<?xml version="1.0" encoding="UTF-8"?>
<svg version="1.1" xmlns="http://www.w3.org/2000/svg" width="552" height="253">
<path d="M0 0 C182.16 0 364.32 0 552 0 C552 83.49 552 166.98 552 253 C369.84 253 187.68 253 0 253 C0 169.51 0 86.02 0 0 Z " fill="#FEFEFE" transform="translate(0,0)"/>
<path d="M0 0 C0.33 0 0.66 0 1 0 C1.02715383 1.74991334 1.04646551 3.49994945 1.0625 5.25 C1.07410156 6.22453125 1.08570313 7.1990625 1.09765625 8.203125 C1 11 1 11 0.40625 13.1875 C-0.2565255 15.23029742 -0.2565255 15.23029742 1.4375 17.75 C1.953125 18.4925 2.46875 19.235 3 20 C3.99 17.69 4.98 15.38 6 13 C8.23177054 16.34765581 8.24633323 17.47061285 8.1875 21.375 C8.18105469 22.31085938 8.17460937 23.24671875 8.16796875 24.2109375 C8.00628217 26.89568683 7.5953259 29.38056603 7 32 C7.66 32 8.32 32 9 32 C9.103125 31.278125 9.20625 30.55625 9.3125 29.8125 C10.06340528 26.74061475 11.21841728 24.59814146 13 22 C13.33 22 13.66 22 14 22 C13.66009167 27.37992836 13.31442207 31.53273547 10 36 C11.32 36 12.64 36 14 36 C14 38.64 14 41.28 14 44 C14.639375 43.01 15.27875 42.02 15.9375 41 C16.618125 40.01 17.29875 39.02 18 38 C18.33 38 18.66 38 19 38 C18.53199289 42.05606165 18.12046792 45.46588679 16 49 C16.763125 48.649375 17.52625 48.29875 18.3125 47.9375 C21 47 21 47 24 48 C22.89764064 48.96041171 21.79303376 49.91824407 20.6875 50.875 C20.07261719 51.40867188 19.45773438 51.94234375 18.82421875 52.4921875 C17 54 17 54 14 56 C13.67 56.99 13.34 57.98 13 59 C12.01 59 11.02 59 10 59 C10 59.99 10 60.98 10 62 C10.51949219 61.59007812 11.03898437 61.18015625 11.57421875 60.7578125 C15.2423777 57.92363424 18.51449706 55.40171967 23 54 C21.47651404 58.1134121 18.51804332 60.56060204 15 63 C13.39125 63.7115625 13.39125 63.7115625 11.75 64.4375 C8.70575712 65.801785 8.70575712 65.801785 7.625 69.1875 C7.315625 70.5796875 7.315625 70.5796875 7 72 C8.65 70.02 10.3 68.04 12 66 C12.66 66.33 13.32 66.66 14 67 C13.23302204 68.41875765 12.46123222 69.83491452 11.6875 71.25 C11.25824219 72.03890625 10.82898438 72.8278125 10.38671875 73.640625 C9.0603786 75.89727134 7.61115776 77.93998597 6 80 C6.55429688 79.7834375 7.10859375 79.566875 7.6796875 79.34375 C8.40414062 79.0653125 9.12859375 78.786875 9.875 78.5 C10.59429687 78.2215625 11.31359375 77.943125 12.0546875 77.65625 C14 77 14 77 16 77 C16 77.66 16 78.32 16 79 C13.98828125 80.4375 13.98828125 80.4375 11.3125 82 C10.44238281 82.515625 9.57226562 83.03125 8.67578125 83.5625 C4.51168692 85.7995609 1.78531534 87 -3 87 C-3 87.99 -3 88.98 -3 90 C-2.41992188 89.91621094 -1.83984375 89.83242187 -1.2421875 89.74609375 C3.42315303 89.13790579 7.35442117 88.92794335 12 90 C12 90.66 12 91.32 12 92 C7.545 92.99 7.545 92.99 3 94 C4.65 94.99 6.3 95.98 8 97 C7.67 97.66 7.34 98.32 7 99 C3.7 98.01 0.4 97.02 -3 96 C-3 96.66 -3 97.32 -3 98 C-4.98 98 -6.96 98 -9 98 C-3.555 98.495 -3.555 98.495 2 99 C2 99.66 2 100.32 2 101 C-2.455 101.99 -2.455 101.99 -7 103 C-5.02 104.32 -3.04 105.64 -1 107 C-3 108 -3 108 -6.375 107.25 C-9.59549912 106.13948306 -11.41665106 105.10495099 -14 103 C-14.66 103 -15.32 103 -16 103 C-16.33 103.66 -16.66 104.32 -17 105 C-16.113125 105.061875 -15.22625 105.12375 -14.3125 105.1875 C-10.25918008 106.18171055 -8.70168251 107.90101124 -6 111 C-12.10593756 112.09034599 -16.06412263 111.78076321 -22 110 C-23.33167376 109.66009726 -24.6646073 109.32498495 -26 109 C-25.67 109.99 -25.34 110.98 -25 112 C-25.5775 111.835 -26.155 111.67 -26.75 111.5 C-29.26664369 110.85537969 -29.26664369 110.85537969 -33 111 C-33.33 111.33 -33.66 111.66 -34 112 C-33.41992188 112.02578125 -32.83984375 112.0515625 -32.2421875 112.078125 C-26.63831229 112.48500703 -23.35315826 113.40864443 -19 117 C-18.67 117.66 -18.34 118.32 -18 119 C-19.65 118.67 -21.3 118.34 -23 118 C-22.34 119.65 -21.68 121.3 -21 123 C-22.65 123.66 -24.3 124.32 -26 125 C-26.66 124.34 -27.32 123.68 -28 123 C-28 121.68 -28 120.36 -28 119 C-28.66 119 -29.32 119 -30 119 C-30.495 120.98 -30.495 120.98 -31 123 C-33.8125 123.25 -33.8125 123.25 -37 123 C-38.875 121 -38.875 121 -40 119 C-40.33 119.66 -40.66 120.32 -41 121 C-43.33615532 123.33615532 -43.88943903 123.29522381 -47.0625 123.3125 C-51 123 -51 123 -53 122 C-53.495 123.485 -53.495 123.485 -54 125 C-55.65 124.67 -57.3 124.34 -59 124 C-58.01 121.69 -57.02 119.38 -56 117 C-58.97 117.99 -58.97 117.99 -62 119 C-60.91796875 116.61328125 -60.91796875 116.61328125 -59 114 C-55.86328125 112.85546875 -55.86328125 112.85546875 -52.3125 112.1875 C-50.54326172 111.83751953 -50.54326172 111.83751953 -48.73828125 111.48046875 C-47.83464844 111.32191406 -46.93101562 111.16335937 -46 111 C-47.65 110.34 -49.3 109.68 -51 109 C-51.495 110.485 -51.495 110.485 -52 112 C-52.99 111.505 -52.99 111.505 -54 111 C-54 109.68 -54 108.36 -54 107 C-54.99 106.505 -54.99 106.505 -56 106 C-56.0825 106.763125 -56.165 107.52625 -56.25 108.3125 C-57 111 -57 111 -58.5 112.6875 C-62.15103009 114.6042908 -65.96506089 115.26715849 -70 116 C-67.89851796 112.01824456 -65.63094642 109.64960955 -62 107 C-62.99 107.33 -63.98 107.66 -65 108 C-71.1194291 109.43986567 -74.41443159 108.44981071 -80 106 C-77.53721199 103.53721199 -75.29323018 103.00228745 -72 102 C-74.31 100.02 -76.62 98.04 -79 96 C-78.01 95.01 -78.01 95.01 -77 94 C-77 93.01 -77 92.02 -77 91 C-77.79664062 90.97421875 -78.59328125 90.9484375 -79.4140625 90.921875 C-90.28821315 90.33980368 -90.28821315 90.33980368 -95 86 C-95.70574404 84.686932 -96.38035629 83.35582591 -97 82 C-95.25008666 81.97284617 -93.50005055 81.95353449 -91.75 81.9375 C-90.77546875 81.92589844 -89.8009375 81.91429687 -88.796875 81.90234375 C-86.34241322 81.98804423 -84.33831086 82.29293934 -82 83 C-83.59353242 81.40646758 -85.5566523 81.57445972 -87.75 81.25 C-92.60871037 80.31563262 -94.86833476 78.96063545 -98 75 C-98.763125 74.071875 -99.52625 73.14375 -100.3125 72.1875 C-100.869375 71.465625 -101.42625 70.74375 -102 70 C-98.22134307 68.74044769 -96.96588214 69.51912811 -93.3125 70.9375 C-92.31863281 71.31777344 -91.32476562 71.69804687 -90.30078125 72.08984375 C-89.54152344 72.39019531 -88.78226563 72.69054687 -88 73 C-88 72.34 -88 71.68 -88 71 C-89.65 70.34 -91.3 69.68 -93 69 C-92.835 68.236875 -92.67 67.47375 -92.5 66.6875 C-91.90854604 63.96403764 -91.90854604 63.96403764 -92 61 C-92.65226562 60.79246094 -93.30453125 60.58492187 -93.9765625 60.37109375 C-100.29046131 58.14539786 -104.32838525 55.68652528 -108 50 C-108 49.67 -108 49.34 -108 49 C-101.25 48.875 -101.25 48.875 -99 50 C-99.99 46.7 -100.98 43.4 -102 40 C-97.56541027 41.3937282 -95.12621626 43.60582235 -92 47 C-90.16859909 43.22946872 -89.6620407 41.01387791 -91 37 C-91.5053125 36.39542969 -92.010625 35.79085937 -92.53125 35.16796875 C-94.31816484 32.53036839 -94.37370565 31.02944528 -94.3125 27.875 C-94.30863281 27.00617188 -94.30476563 26.13734375 -94.30078125 25.2421875 C-94 23 -94 23 -92 21 C-91.01 22.98 -90.02 24.96 -89 27 C-87.02 21.555 -87.02 21.555 -85 16 C-84.34 17.32 -83.68 18.64 -83 20 C-83 15.71 -83 11.42 -83 7 C-81.68 7 -80.36 7 -79 7 C-78.67 8.32 -78.34 9.64 -78 11 C-77.29875 10.21625 -76.5975 9.4325 -75.875 8.625 C-72.90842914 5.91639182 -70.8417484 4.98277285 -67 4 C-69.14199965 8.71239924 -71.23630098 12.61815049 -76 15 C-72.30344323 16.22995741 -68.91292429 17.09013511 -65 17 C-62.69514743 15.30947584 -61.35435496 13.49579438 -59.69140625 11.1796875 C-56.4728026 7.03192576 -51.91748654 4.63916218 -47 3 C-36.99601808 2.23946336 -29.92373905 3.91305365 -21.984375 10.14453125 C-11.10374186 20.31835161 -7.23899705 34.51346229 -6.75 49 C-7.28892675 64.08994908 -11.47683546 76.94847574 -22 88 C-22.99 88.66 -23.98 89.32 -25 90 C-25.25030977 92.58380177 -25.25030977 92.58380177 -25 95 C-23.68 92.69 -22.36 90.38 -21 88 C-20.67 88 -20.34 88 -20 88 C-19.67 89.65 -19.34 91.3 -19 93 C-17.35 89.37 -15.7 85.74 -14 82 C-13.01 83.485 -13.01 83.485 -12 85 C-11.38125 84.34 -10.7625 83.68 -10.125 83 C-8 81 -8 81 -6 81 C-6.33 80.34 -6.66 79.68 -7 79 C-8.28687011 75.13938967 -8.13757618 72.05849717 -8 68 C-6.515 69.98 -6.515 69.98 -5 72 C-4.67 69.69 -4.34 67.38 -4 65 C-3.34 65.33 -2.68 65.66 -2 66 C-1.375 68.0625 -1.375 68.0625 -1 70 C0.55944704 66.88391222 0.55944704 66.88391222 1 63 C-0.62452687 60.26784118 -2.6795165 58.15660755 -5 56 C-3.33333333 56 -1.66666667 56 0 56 C-0.45052734 55.16855469 -0.45052734 55.16855469 -0.91015625 54.3203125 C-1.29042969 53.59585938 -1.67070312 52.87140625 -2.0625 52.125 C-2.44535156 51.40570313 -2.82820313 50.68640625 -3.22265625 49.9453125 C-3.47917969 49.30335938 -3.73570312 48.66140625 -4 48 C-3.505 47.01 -3.505 47.01 -3 46 C-1.35 46.66 0.3 47.32 2 48 C1.484375 47.05125 0.96875 46.1025 0.4375 45.125 C-0.036875 44.09375 -0.51125 43.0625 -1 42 C-0.505 41.01 -0.505 41.01 0 40 C0.66 40.66 1.32 41.32 2 42 C2 40.35 2 38.7 2 37 C2.66 37.33 3.32 37.66 4 38 C4 37.34 4 36.68 4 36 C2.68 36 1.36 36 0 36 C0.33 34.35 0.66 32.7 1 31 C0.20335937 30.61908203 0.20335937 30.61908203 -0.609375 30.23046875 C-8.28045326 26.49291785 -8.28045326 26.49291785 -11 24 C-11 23.34 -11 22.68 -11 22 C-9.02 22.33 -7.04 22.66 -5 23 C-5.350625 22.401875 -5.70125 21.80375 -6.0625 21.1875 C-7 19 -7 19 -6 16 C-5.34 15.67 -4.68 15.34 -4 15 C-4.94875 14.4225 -5.8975 13.845 -6.875 13.25 C-9.76134098 11.17183449 -10.84095741 10.24531925 -12 7 C-10.02 7.66 -8.04 8.32 -6 9 C-6.66 6.69 -7.32 4.38 -8 2 C-6.35 3.65 -4.7 5.3 -3 7 C-2.01 4.69 -1.02 2.38 0 0 Z " fill="#094A97" transform="translate(198,80)"/>
<path d="M0 0 C11.22375922 6.47524571 18.62310865 15.24466982 22.25 27.875 C25.12423783 41.4906752 25.7607236 56.14949478 19.25 68.875 C18.26 68.875 17.27 68.875 16.25 68.875 C16.1727582 64.31773372 16.25703588 60.33942924 17.25 55.875 C16.19941406 55.88660156 15.14882812 55.89820313 14.06640625 55.91015625 C-5.37867997 56.06066001 -5.37867997 56.06066001 -9.75 53.875 C-9.75 50.905 -9.75 47.935 -9.75 44.875 C-20.31 44.875 -30.87 44.875 -41.75 44.875 C-41.75 32.78866567 -40.70040534 26.25643256 -35.75 15.875 C-36.74 16.37 -36.74 16.37 -37.75 16.875 C-39.79055005 16.94565617 -41.83334257 16.95921976 -43.875 16.9375 C-44.97070312 16.92847656 -46.06640625 16.91945313 -47.1953125 16.91015625 C-48.45988281 16.89275391 -48.45988281 16.89275391 -49.75 16.875 C-48.76 17.535 -47.77 18.195 -46.75 18.875 C-47.08 19.865 -47.41 20.855 -47.75 21.875 C-49.07 21.545 -50.39 21.215 -51.75 20.875 C-51.75 22.525 -51.75 24.175 -51.75 25.875 C-51.234375 25.38 -50.71875 24.885 -50.1875 24.375 C-46.94319983 22.37850759 -44.48782666 22.65935615 -40.75 22.875 C-44.60280276 29.55319144 -48.46868272 31.59870469 -55.75 33.875 C-55.42 34.535 -55.09 35.195 -54.75 35.875 C-53.265 35.38 -53.265 35.38 -51.75 34.875 C-51.75 35.865 -51.75 36.855 -51.75 37.875 C-52.74 37.875 -53.73 37.875 -54.75 37.875 C-54.42 39.195 -54.09 40.515 -53.75 41.875 C-52.079375 40.8540625 -52.079375 40.8540625 -50.375 39.8125 C-48.4765625 38.65234375 -48.4765625 38.65234375 -46.75 37.875 C-46.09 38.205 -45.43 38.535 -44.75 38.875 C-45.41 40.855 -46.07 42.835 -46.75 44.875 C-46.09 44.875 -45.43 44.875 -44.75 44.875 C-45.03084572 48.90045534 -45.53365704 50.61982626 -48.1875 53.75 C-50.75 55.875 -50.75 55.875 -52.75 55.875 C-53.08 59.505 -53.41 63.135 -53.75 66.875 C-53.09 64.565 -52.43 62.255 -51.75 59.875 C-51.110625 60.679375 -50.47125 61.48375 -49.8125 62.3125 C-48.34396498 64.1500504 -48.34396498 64.1500504 -46.75 65.875 C-45.76 64.885 -44.77 63.895 -43.75 62.875 C-43.42 64.195 -43.09 65.515 -42.75 66.875 C-41.76 66.875 -40.77 66.875 -39.75 66.875 C-38.48762269 69.39975462 -38.65143596 71.18700466 -38.6875 74 C-38.69652344 74.91007812 -38.70554688 75.82015625 -38.71484375 76.7578125 C-38.72644531 77.45648438 -38.73804688 78.15515625 -38.75 78.875 C-38.42 78.545 -38.09 78.215 -37.75 77.875 C-36.76 77.875 -35.77 77.875 -34.75 77.875 C-34.64748328 83.00083611 -34.71409801 87.82497778 -35.75 92.875 C-35.09 92.545 -34.43 92.215 -33.75 91.875 C-33.75 88.245 -33.75 84.615 -33.75 80.875 C-24.478 86.499 -24.478 86.499 -22.75 88.875 C-22.45703125 91.79296875 -22.45703125 91.79296875 -22.5625 95.0625 C-22.60310547 96.69251953 -22.60310547 96.69251953 -22.64453125 98.35546875 C-22.67933594 99.18691406 -22.71414062 100.01835937 -22.75 100.875 C-21.76 101.205 -20.77 101.535 -19.75 101.875 C-20.74 102.205 -21.73 102.535 -22.75 102.875 C-23.74 102.38 -23.74 102.38 -24.75 101.875 C-24.8325 102.638125 -24.915 103.40125 -25 104.1875 C-25.75 106.875 -25.75 106.875 -27.25 108.5625 C-30.90103009 110.4792908 -34.71506089 111.14215849 -38.75 111.875 C-36.64851796 107.89324456 -34.38094642 105.52460955 -30.75 102.875 C-31.74 103.205 -32.73 103.535 -33.75 103.875 C-39.8694291 105.31486567 -43.16443159 104.32481071 -48.75 101.875 C-46.28721199 99.41221199 -44.04323018 98.87728745 -40.75 97.875 C-43.06 95.895 -45.37 93.915 -47.75 91.875 C-46.76 90.885 -46.76 90.885 -45.75 89.875 C-45.75 88.885 -45.75 87.895 -45.75 86.875 C-46.54664062 86.84921875 -47.34328125 86.8234375 -48.1640625 86.796875 C-59.03821315 86.21480368 -59.03821315 86.21480368 -63.75 81.875 C-64.45574404 80.561932 -65.13035629 79.23082591 -65.75 77.875 C-64.00008666 77.84784617 -62.25005055 77.82853449 -60.5 77.8125 C-59.52546875 77.80089844 -58.5509375 77.78929687 -57.546875 77.77734375 C-55.09241322 77.86304423 -53.08831086 78.16793934 -50.75 78.875 C-52.34353242 77.28146758 -54.3066523 77.44945972 -56.5 77.125 C-61.35871037 76.19063262 -63.61833476 74.83563545 -66.75 70.875 C-67.513125 69.946875 -68.27625 69.01875 -69.0625 68.0625 C-69.619375 67.340625 -70.17625 66.61875 -70.75 65.875 C-66.97134307 64.61544769 -65.71588214 65.39412811 -62.0625 66.8125 C-61.06863281 67.19277344 -60.07476562 67.57304687 -59.05078125 67.96484375 C-58.29152344 68.26519531 -57.53226563 68.56554687 -56.75 68.875 C-56.75 68.215 -56.75 67.555 -56.75 66.875 C-58.4 66.215 -60.05 65.555 -61.75 64.875 C-61.585 64.111875 -61.42 63.34875 -61.25 62.5625 C-60.65854604 59.83903764 -60.65854604 59.83903764 -60.75 56.875 C-61.40226562 56.66746094 -62.05453125 56.45992187 -62.7265625 56.24609375 C-69.04046131 54.02039786 -73.07838525 51.56152528 -76.75 45.875 C-76.75 45.545 -76.75 45.215 -76.75 44.875 C-70 44.75 -70 44.75 -67.75 45.875 C-68.74 42.575 -69.73 39.275 -70.75 35.875 C-66.31541027 37.2687282 -63.87621626 39.48082235 -60.75 42.875 C-58.91859909 39.10446872 -58.4120407 36.88887791 -59.75 32.875 C-60.2553125 32.27042969 -60.760625 31.66585937 -61.28125 31.04296875 C-63.06816484 28.40536839 -63.12370565 26.90444528 -63.0625 23.75 C-63.05863281 22.88117188 -63.05476563 22.01234375 -63.05078125 21.1171875 C-62.75 18.875 -62.75 18.875 -60.75 16.875 C-59.76 18.855 -58.77 20.835 -57.75 22.875 C-55.77 17.43 -55.77 17.43 -53.75 11.875 C-53.09 13.195 -52.43 14.515 -51.75 15.875 C-51.75 11.585 -51.75 7.295 -51.75 2.875 C-50.43 2.875 -49.11 2.875 -47.75 2.875 C-47.42 4.195 -47.09 5.515 -46.75 6.875 C-46.04875 6.09125 -45.3475 5.3075 -44.625 4.5 C-41.65842914 1.79139182 -39.5917484 0.85777285 -35.75 -0.125 C-37.89199965 4.58739924 -39.98630098 8.49315049 -44.75 10.875 C-41.05344323 12.10495741 -37.66292429 12.96513511 -33.75 12.875 C-31.44514743 11.18447584 -30.10435496 9.37079438 -28.44140625 7.0546875 C-21.65948633 -1.68506149 -10.06584713 -3.01975414 0 0 Z " fill="#084996" transform="translate(166.75,84.125)"/>
<path d="M0 0 C0.33 0 0.66 0 1 0 C1.02715383 1.74991334 1.04646551 3.49994945 1.0625 5.25 C1.07410156 6.22453125 1.08570313 7.1990625 1.09765625 8.203125 C1 11 1 11 0.40625 13.1875 C-0.2565255 15.23029742 -0.2565255 15.23029742 1.4375 17.75 C1.953125 18.4925 2.46875 19.235 3 20 C3.99 17.69 4.98 15.38 6 13 C8.23177054 16.34765581 8.24633323 17.47061285 8.1875 21.375 C8.18105469 22.31085938 8.17460937 23.24671875 8.16796875 24.2109375 C8.00628217 26.89568683 7.5953259 29.38056603 7 32 C7.66 32 8.32 32 9 32 C9.103125 31.278125 9.20625 30.55625 9.3125 29.8125 C10.06340528 26.74061475 11.21841728 24.59814146 13 22 C13.33 22 13.66 22 14 22 C13.66009167 27.37992836 13.31442207 31.53273547 10 36 C11.32 36 12.64 36 14 36 C14 38.64 14 41.28 14 44 C14.639375 43.01 15.27875 42.02 15.9375 41 C16.618125 40.01 17.29875 39.02 18 38 C18.33 38 18.66 38 19 38 C18.53199289 42.05606165 18.12046792 45.46588679 16 49 C16.763125 48.649375 17.52625 48.29875 18.3125 47.9375 C21 47 21 47 24 48 C22.89764064 48.96041171 21.79303376 49.91824407 20.6875 50.875 C20.07261719 51.40867188 19.45773438 51.94234375 18.82421875 52.4921875 C17 54 17 54 14 56 C13.67 56.99 13.34 57.98 13 59 C12.01 59 11.02 59 10 59 C10 59.99 10 60.98 10 62 C10.51949219 61.59007812 11.03898437 61.18015625 11.57421875 60.7578125 C15.2423777 57.92363424 18.51449706 55.40171967 23 54 C21.47651404 58.1134121 18.51804332 60.56060204 15 63 C13.39125 63.7115625 13.39125 63.7115625 11.75 64.4375 C8.70575712 65.801785 8.70575712 65.801785 7.625 69.1875 C7.315625 70.5796875 7.315625 70.5796875 7 72 C8.65 70.02 10.3 68.04 12 66 C12.66 66.33 13.32 66.66 14 67 C13.23302204 68.41875765 12.46123222 69.83491452 11.6875 71.25 C11.25824219 72.03890625 10.82898438 72.8278125 10.38671875 73.640625 C9.0603786 75.89727134 7.61115776 77.93998597 6 80 C6.55429688 79.7834375 7.10859375 79.566875 7.6796875 79.34375 C8.40414062 79.0653125 9.12859375 78.786875 9.875 78.5 C10.59429687 78.2215625 11.31359375 77.943125 12.0546875 77.65625 C14 77 14 77 16 77 C16 77.66 16 78.32 16 79 C13.98828125 80.4375 13.98828125 80.4375 11.3125 82 C10.44238281 82.515625 9.57226562 83.03125 8.67578125 83.5625 C4.51168692 85.7995609 1.78531534 87 -3 87 C-3 87.99 -3 88.98 -3 90 C-2.41992188 89.91621094 -1.83984375 89.83242187 -1.2421875 89.74609375 C3.42315303 89.13790579 7.35442117 88.92794335 12 90 C12 90.66 12 91.32 12 92 C7.545 92.99 7.545 92.99 3 94 C4.65 94.99 6.3 95.98 8 97 C7.67 97.66 7.34 98.32 7 99 C3.7 98.01 0.4 97.02 -3 96 C-3 96.66 -3 97.32 -3 98 C-4.98 98 -6.96 98 -9 98 C-5.37 98.33 -1.74 98.66 2 99 C2 99.66 2 100.32 2 101 C-2.455 101.99 -2.455 101.99 -7 103 C-5.02 104.32 -3.04 105.64 -1 107 C-3 108 -3 108 -6.375 107.25 C-9.59549912 106.13948306 -11.41665106 105.10495099 -14 103 C-14.66 103 -15.32 103 -16 103 C-16.33 103.66 -16.66 104.32 -17 105 C-16.113125 105.061875 -15.22625 105.12375 -14.3125 105.1875 C-10.25918008 106.18171055 -8.70168251 107.90101124 -6 111 C-12.10593756 112.09034599 -16.06412263 111.78076321 -22 110 C-23.33167376 109.66009726 -24.6646073 109.32498495 -26 109 C-25.67 109.99 -25.34 110.98 -25 112 C-25.5775 111.835 -26.155 111.67 -26.75 111.5 C-29.26664369 110.85537969 -29.26664369 110.85537969 -33 111 C-33.33 111.33 -33.66 111.66 -34 112 C-33.41992188 112.02578125 -32.83984375 112.0515625 -32.2421875 112.078125 C-26.63831229 112.48500703 -23.35315826 113.40864443 -19 117 C-18.67 117.66 -18.34 118.32 -18 119 C-19.65 118.67 -21.3 118.34 -23 118 C-22.34 119.65 -21.68 121.3 -21 123 C-23.475 123.99 -23.475 123.99 -26 125 C-26.99 124.01 -26.99 124.01 -28 123 C-28 121.68 -28 120.36 -28 119 C-28.66 119 -29.32 119 -30 119 C-30.33 120.32 -30.66 121.64 -31 123 C-33.8125 123.25 -33.8125 123.25 -37 123 C-38.875 121 -38.875 121 -40 119 C-40.33 119.66 -40.66 120.32 -41 121 C-43.33615532 123.33615532 -43.88943903 123.29522381 -47.0625 123.3125 C-51 123 -51 123 -53 122 C-53.33 122.99 -53.66 123.98 -54 125 C-55.65 124.67 -57.3 124.34 -59 124 C-58.01 121.69 -57.02 119.38 -56 117 C-58.97 117.99 -58.97 117.99 -62 119 C-59.375 114.125 -59.375 114.125 -56 113 C-54.43881572 112.93259135 -52.8749748 112.91485544 -51.3125 112.9375 C-50.50425781 112.94652344 -49.69601563 112.95554687 -48.86328125 112.96484375 C-48.24839844 112.97644531 -47.63351563 112.98804688 -47 113 C-47.99 113.99 -47.99 113.99 -49 115 C-48.67958603 117.60280568 -48.67958603 117.60280568 -48 120 C-43.86077183 116.66191277 -43.63118004 114.13960891 -43 109 C-42.04906703 107.30485863 -41.04892238 105.63631892 -40 104 C-39.31039038 102.00779443 -38.63920943 100.00894394 -38 98 C-37 97 -37 97 -33.5 96.875 C-30 97 -30 97 -29 98 C-28.67 95.69 -28.34 93.38 -28 91 C-27.34 91 -26.68 91 -26 91 C-25.67 92.32 -25.34 93.64 -25 95 C-23.68 92.69 -22.36 90.38 -21 88 C-20.67 88 -20.34 88 -20 88 C-19.67 89.65 -19.34 91.3 -19 93 C-16.525 87.555 -16.525 87.555 -14 82 C-13.01 83.485 -13.01 83.485 -12 85 C-11.071875 84.01 -11.071875 84.01 -10.125 83 C-8 81 -8 81 -6 81 C-6.33 80.34 -6.66 79.68 -7 79 C-8.28687011 75.13938967 -8.13757618 72.05849717 -8 68 C-7.01 69.32 -6.02 70.64 -5 72 C-4.67 69.69 -4.34 67.38 -4 65 C-3.01 65.495 -3.01 65.495 -2 66 C-1.375 68.0625 -1.375 68.0625 -1 70 C0.55944704 66.88391222 0.55944704 66.88391222 1 63 C-0.62452687 60.26784118 -2.6795165 58.15660755 -5 56 C-3.33333333 56 -1.66666667 56 0 56 C-0.30035156 55.44570312 -0.60070312 54.89140625 -0.91015625 54.3203125 C-1.29042969 53.59585938 -1.67070312 52.87140625 -2.0625 52.125 C-2.44535156 51.40570313 -2.82820313 50.68640625 -3.22265625 49.9453125 C-3.47917969 49.30335938 -3.73570312 48.66140625 -4 48 C-3.505 47.01 -3.505 47.01 -3 46 C-1.35 46.66 0.3 47.32 2 48 C1.484375 47.05125 0.96875 46.1025 0.4375 45.125 C-0.036875 44.09375 -0.51125 43.0625 -1 42 C-0.505 41.01 -0.505 41.01 0 40 C0.66 40.66 1.32 41.32 2 42 C2 40.35 2 38.7 2 37 C2.66 37.33 3.32 37.66 4 38 C4 37.34 4 36.68 4 36 C2.68 36 1.36 36 0 36 C0.33 34.35 0.66 32.7 1 31 C0.46890625 30.74605469 -0.0621875 30.49210937 -0.609375 30.23046875 C-8.28045326 26.49291785 -8.28045326 26.49291785 -11 24 C-11 23.34 -11 22.68 -11 22 C-9.02 22.33 -7.04 22.66 -5 23 C-5.350625 22.401875 -5.70125 21.80375 -6.0625 21.1875 C-7 19 -7 19 -6 16 C-5.34 15.67 -4.68 15.34 -4 15 C-4.94875 14.4225 -5.8975 13.845 -6.875 13.25 C-9.76134098 11.17183449 -10.84095741 10.24531925 -12 7 C-10.02 7.66 -8.04 8.32 -6 9 C-6.66 6.69 -7.32 4.38 -8 2 C-5.525 4.475 -5.525 4.475 -3 7 C-2.01 4.69 -1.02 2.38 0 0 Z " fill="#0B4D98" transform="translate(198,80)"/>
<path d="M0 0 C2.18742014 3.2811302 2.54442806 5.33084356 3.125 9.1875 C3.37636719 10.81751953 3.37636719 10.81751953 3.6328125 12.48046875 C3.75398438 13.31191406 3.87515625 14.14335938 4 15 C5.74168786 12.21708571 7.0282515 9.90818264 8 6.75 C8.33 5.8425 8.66 4.935 9 4 C9.99 3.67 10.98 3.34 12 3 C11.85936865 5.29199177 11.71234057 7.58359186 11.5625 9.875 C11.48128906 11.15117188 11.40007812 12.42734375 11.31640625 13.7421875 C11 17 11 17 10 19 C14.29 16.03 18.58 13.06 23 10 C23 13.83764027 21.73464665 15.11486085 19.5 18.1875 C18.8503125 19.08855469 18.200625 19.98960938 17.53125 20.91796875 C17.0259375 21.60503906 16.520625 22.29210937 16 23 C17.175625 22.505 18.35125 22.01 19.5625 21.5 C23.59220111 19.97000653 26.72138314 19.73258645 31 20 C30.278125 20.556875 29.55625 21.11375 28.8125 21.6875 C25.92913577 23.9729976 25.92913577 23.9729976 23.3125 26.75 C21 29 21 29 19 29 C19 29.66 19 30.32 19 31 C23.62 31.66 28.24 32.32 33 33 C29.71508627 35.18994248 28.16904361 35.35277339 24.3125 35.625 C23.31863281 35.69976562 22.32476562 35.77453125 21.30078125 35.8515625 C20.54152344 35.90054688 19.78226563 35.94953125 19 36 C21.21579563 38.48225207 23.16920074 39.65776113 26.25 40.875 C30.67524706 42.7435986 34.19251879 45.08363142 38 48 C36.515 48.495 36.515 48.495 35 49 C35.33 49.99 35.66 50.98 36 52 C35.34 52 34.68 52 34 52 C34.99 53.65 35.98 55.3 37 57 C32.25 56.125 32.25 56.125 30 55 C30 55.66 30 56.32 30 57 C30.82757813 57.41378906 30.82757813 57.41378906 31.671875 57.8359375 C35.78125 59.890625 39.890625 61.9453125 44 64 C43.01 65.65 42.02 67.3 41 69 C42.65 68.67 44.3 68.34 46 68 C45.125 71.875 45.125 71.875 44 73 C43.505 74.485 43.505 74.485 43 76 C42.34 75.67 41.68 75.34 41 75 C41.99 77.31 42.98 79.62 44 82 C42.02 81.34 40.04 80.68 38 80 C38.2165625 80.54269531 38.433125 81.08539063 38.65625 81.64453125 C38.9346875 82.35996094 39.213125 83.07539063 39.5 83.8125 C39.7784375 84.52019531 40.056875 85.22789062 40.34375 85.95703125 C41 88 41 88 41 91 C39.515 90.505 39.515 90.505 38 90 C38.38414062 90.42410156 38.76828125 90.84820312 39.1640625 91.28515625 C40.69551099 93.14828209 41.94656815 94.82598526 43 97 C42.3125 100.9375 42.3125 100.9375 41 104 C40.34 103.67 39.68 103.34 39 103 C38.375 100.9375 38.375 100.9375 38 99 C37.67 101.64 37.34 104.28 37 107 C35.515 105.02 35.515 105.02 34 103 C34.14168137 104.43791516 34.28851043 105.8753237 34.4375 107.3125 C34.51871094 108.11300781 34.59992188 108.91351563 34.68359375 109.73828125 C34.95265693 112.16087179 34.95265693 112.16087179 36 115 C35.236875 115.0825 34.47375 115.165 33.6875 115.25 C30.47626739 116.14615794 29.70625501 117.21611025 28 120 C27.67 119.01 27.34 118.02 27 117 C26.73445313 117.63808594 26.46890625 118.27617187 26.1953125 118.93359375 C25.84210938 119.75988281 25.48890625 120.58617187 25.125 121.4375 C24.77695313 122.26121094 24.42890625 123.08492188 24.0703125 123.93359375 C23 126 23 126 21 127 C20.67 125.68 20.34 124.36 20 123 C19.01 125.31 18.02 127.62 17 130 C15 128 15 128 14.5 125.6875 C15.13041766 122.29900509 16.62241203 121.50903476 19.28125 119.49609375 C28.72930894 111.2719879 31.91952775 97.91362821 33 86 C33.44746259 71.05474939 30.08703788 55.70848288 19.640625 44.46484375 C12.69327337 38.26185123 6.35542373 36.54497 -2.8359375 36.66796875 C-8.98095122 37.31281587 -14.02035542 39.58999791 -17.9765625 44.40625 C-18.60304687 45.2415625 -19.22953125 46.076875 -19.875 46.9375 C-21.7734375 49.3046875 -21.7734375 49.3046875 -24 51 C-28.26658996 51.17909143 -31.95412691 50.30142251 -36 49 C-33.80264297 46.53710133 -33.0601476 46.01475319 -29.6875 45.1875 C-26.10069753 44.03242802 -25.18949755 43.47266946 -22.75 40.875 C-21.8425 39.92625 -20.935 38.9775 -20 38 C-19.01 38 -18.02 38 -17 38 C-17 37.34 -17 36.68 -17 36 C-18.155 36.04125 -19.31 36.0825 -20.5 36.125 C-24.94481301 36.14087433 -28.73724131 35.21793105 -33 34 C-33 33.67 -33 33.34 -33 33 C-28.05 32.01 -23.1 31.02 -18 30 C-20.10375 29.13375 -20.10375 29.13375 -22.25 28.25 C-25.8727235 26.65257861 -28.44571062 25.10956968 -31 22 C-25.65312184 22 -20.32767645 22.57800583 -15 23 C-17.64 19.37 -20.28 15.74 -23 12 C-22.67 11.34 -22.34 10.68 -22 10 C-18.04 12.64 -14.08 15.28 -10 18 C-11.0209375 15.6796875 -11.0209375 15.6796875 -12.0625 13.3125 C-13.78960563 9.38725993 -14.18956883 7.15226856 -13 3 C-11 6 -11 6 -11 8 C-10.401875 8.2475 -9.80375 8.495 -9.1875 8.75 C-6.68373081 10.18072525 -5.51927612 11.5691582 -4 14 C-4 14.66 -4 15.32 -4 16 C-3.34 16 -2.68 16 -2 16 C-2.04125 14.845 -2.0825 13.69 -2.125 12.5 C-2.14087433 8.05518699 -1.21793105 4.26275869 0 0 Z " fill="#FBDE21" transform="translate(157,47)"/>
<path d="M0 0 C0.66 0.33 1.32 0.66 2 1 C-0.58610145 5.46208488 -2.69705206 9.04172329 -7 12 C-8.75310573 13.93949915 -10.3655178 15.95689725 -12 18 C-11.01 18.33 -10.02 18.66 -9 19 C-9.33 19.99 -9.66 20.98 -10 22 C-11.32 21.67 -12.64 21.34 -14 21 C-14 22.65 -14 24.3 -14 26 C-13.484375 25.505 -12.96875 25.01 -12.4375 24.5 C-9.19319983 22.50350759 -6.73782666 22.78435615 -3 23 C-6.85280276 29.67819144 -10.71868272 31.72370469 -18 34 C-17.67 34.66 -17.34 35.32 -17 36 C-15.515 35.505 -15.515 35.505 -14 35 C-14 35.99 -14 36.98 -14 38 C-14.99 38 -15.98 38 -17 38 C-16.67 39.32 -16.34 40.64 -16 42 C-14.329375 40.9790625 -14.329375 40.9790625 -12.625 39.9375 C-10.7265625 38.77734375 -10.7265625 38.77734375 -9 38 C-8.34 38.33 -7.68 38.66 -7 39 C-7.66 40.98 -8.32 42.96 -9 45 C-8.34 45 -7.68 45 -7 45 C-7.28084572 49.02545534 -7.78365704 50.74482626 -10.4375 53.875 C-13 56 -13 56 -15 56 C-15.33 59.63 -15.66 63.26 -16 67 C-15.34 64.69 -14.68 62.38 -14 60 C-13.360625 60.804375 -12.72125 61.60875 -12.0625 62.4375 C-10.59396498 64.2750504 -10.59396498 64.2750504 -9 66 C-8.01 65.01 -7.02 64.02 -6 63 C-5.67 64.32 -5.34 65.64 -5 67 C-4.01 67 -3.02 67 -2 67 C-0.73762269 69.52475462 -0.90143596 71.31200466 -0.9375 74.125 C-0.94652344 75.03507812 -0.95554688 75.94515625 -0.96484375 76.8828125 C-0.97644531 77.58148438 -0.98804688 78.28015625 -1 79 C-0.67 78.67 -0.34 78.34 0 78 C0.99 78 1.98 78 3 78 C3.10251672 83.12583611 3.03590199 87.94997778 2 93 C2.66 92.67 3.32 92.34 4 92 C4 88.37 4 84.74 4 81 C13.272 86.624 13.272 86.624 15 89 C15.29296875 91.91796875 15.29296875 91.91796875 15.1875 95.1875 C15.14689453 96.81751953 15.14689453 96.81751953 15.10546875 98.48046875 C15.07066406 99.31191406 15.03585938 100.14335937 15 101 C15.99 101.33 16.98 101.66 18 102 C17.01 102.33 16.02 102.66 15 103 C14.01 102.505 14.01 102.505 13 102 C12.9175 102.763125 12.835 103.52625 12.75 104.3125 C12 107 12 107 10.5 108.6875 C6.84896991 110.6042908 3.03493911 111.26715849 -1 112 C1.10148204 108.01824456 3.36905358 105.64960955 7 103 C6.01 103.33 5.02 103.66 4 104 C-2.1194291 105.43986567 -5.41443159 104.44981071 -11 102 C-8.53721199 99.53721199 -6.29323018 99.00228745 -3 98 C-5.31 96.02 -7.62 94.04 -10 92 C-9.01 91.01 -9.01 91.01 -8 90 C-8 89.01 -8 88.02 -8 87 C-8.79664062 86.97421875 -9.59328125 86.9484375 -10.4140625 86.921875 C-21.28821315 86.33980368 -21.28821315 86.33980368 -26 82 C-26.70574404 80.686932 -27.38035629 79.35582591 -28 78 C-26.25008666 77.97284617 -24.50005055 77.95353449 -22.75 77.9375 C-21.77546875 77.92589844 -20.8009375 77.91429687 -19.796875 77.90234375 C-17.34241322 77.98804423 -15.33831086 78.29293934 -13 79 C-14.59353242 77.40646758 -16.5566523 77.57445972 -18.75 77.25 C-23.60871037 76.31563262 -25.86833476 74.96063545 -29 71 C-29.763125 70.071875 -30.52625 69.14375 -31.3125 68.1875 C-31.869375 67.465625 -32.42625 66.74375 -33 66 C-29.22134307 64.74044769 -27.96588214 65.51912811 -24.3125 66.9375 C-23.31863281 67.31777344 -22.32476562 67.69804687 -21.30078125 68.08984375 C-20.54152344 68.39019531 -19.78226563 68.69054687 -19 69 C-19 68.34 -19 67.68 -19 67 C-20.65 66.34 -22.3 65.68 -24 65 C-23.835 64.236875 -23.67 63.47375 -23.5 62.6875 C-22.90854604 59.96403764 -22.90854604 59.96403764 -23 57 C-23.65226562 56.79246094 -24.30453125 56.58492187 -24.9765625 56.37109375 C-31.29046131 54.14539786 -35.32838525 51.68652528 -39 46 C-39 45.67 -39 45.34 -39 45 C-32.25 44.875 -32.25 44.875 -30 46 C-30.99 42.7 -31.98 39.4 -33 36 C-28.56541027 37.3937282 -26.12621626 39.60582235 -23 43 C-21.16859909 39.22946872 -20.6620407 37.01387791 -22 33 C-22.5053125 32.39542969 -23.010625 31.79085937 -23.53125 31.16796875 C-25.31816484 28.53036839 -25.37370565 27.02944528 -25.3125 23.875 C-25.30863281 23.00617188 -25.30476563 22.13734375 -25.30078125 21.2421875 C-25 19 -25 19 -23 17 C-22.01 18.98 -21.02 20.96 -20 23 C-18.02 17.555 -18.02 17.555 -16 12 C-15.34 13.32 -14.68 14.64 -14 16 C-14 11.71 -14 7.42 -14 3 C-12.68 3 -11.36 3 -10 3 C-9.67 4.32 -9.34 5.64 -9 7 C-8.2575 6.21625 -7.515 5.4325 -6.75 4.625 C-4.46457031 2.44345348 -2.9455578 1.01570959 0 0 Z " fill="#13529B" transform="translate(129,84)"/>
<path d="M0 0 C11.03670104 2.20734021 17.37961999 4.66015057 23.72265625 13.9375 C29.11010142 22.63649404 31.39530685 30.8968768 30.97265625 41.1875 C30.87051051 43.1024133 30.87051051 43.1024133 32 45 C21.44 45 10.88 45 0 45 C0 30.15 0 15.3 0 0 Z " fill="#FCFCFD" transform="translate(157,84)"/>
<path d="M0 0 C10.23 0 20.46 0 31 0 C31 14.85 31 29.7 31 45 C20.81436641 43.7267958 15.05106428 40.13838543 8.56640625 32.26953125 C1.470215 21.98801724 0 12.36359168 0 0 Z " fill="#F7F7FB" transform="translate(126,129)"/>
<path d="M0 0 C0.33 0 0.66 0 1 0 C1.02715383 1.74991334 1.04646551 3.49994945 1.0625 5.25 C1.07410156 6.22453125 1.08570313 7.1990625 1.09765625 8.203125 C1 11 1 11 0.40625 13.1875 C-0.2565255 15.23029742 -0.2565255 15.23029742 1.4375 17.75 C1.953125 18.4925 2.46875 19.235 3 20 C3.99 17.69 4.98 15.38 6 13 C8.23177054 16.34765581 8.24633323 17.47061285 8.1875 21.375 C8.18105469 22.31085938 8.17460937 23.24671875 8.16796875 24.2109375 C8.00628217 26.89568683 7.5953259 29.38056603 7 32 C7.66 32 8.32 32 9 32 C9.103125 31.278125 9.20625 30.55625 9.3125 29.8125 C10.06340528 26.74061475 11.21841728 24.59814146 13 22 C13.33 22 13.66 22 14 22 C13.66009167 27.37992836 13.31442207 31.53273547 10 36 C11.32 36 12.64 36 14 36 C14 38.64 14 41.28 14 44 C14.639375 43.01 15.27875 42.02 15.9375 41 C16.618125 40.01 17.29875 39.02 18 38 C18.33 38 18.66 38 19 38 C18.53199289 42.05606165 18.12046792 45.46588679 16 49 C16.763125 48.649375 17.52625 48.29875 18.3125 47.9375 C21 47 21 47 24 48 C22.89764064 48.96041171 21.79303376 49.91824407 20.6875 50.875 C20.07261719 51.40867188 19.45773438 51.94234375 18.82421875 52.4921875 C17 54 17 54 14 56 C13.67 56.99 13.34 57.98 13 59 C12.01 59 11.02 59 10 59 C10 59.99 10 60.98 10 62 C10.51949219 61.59007812 11.03898437 61.18015625 11.57421875 60.7578125 C15.2423777 57.92363424 18.51449706 55.40171967 23 54 C21.47944877 58.10548833 18.52498207 60.57761896 15 63 C13.453125 63.5878125 13.453125 63.5878125 11.875 64.1875 C7.94120007 66.6675043 7.3296778 69.49553569 5.95703125 73.8203125 C5.64121094 74.53960937 5.32539063 75.25890625 5 76 C3.515 76.495 3.515 76.495 2 77 C1.83052421 75.58366664 1.66454493 74.16691467 1.5 72.75 C1.4071875 71.96109375 1.314375 71.1721875 1.21875 70.359375 C1 68 1 68 1 64 C-0.29009392 61.58204732 -0.29009392 61.58204732 -2 59.25 C-2.8353125 58.05117187 -2.8353125 58.05117187 -3.6875 56.828125 C-4.120625 56.22484375 -4.55375 55.6215625 -5 55 C-3.35 55.66 -1.7 56.32 0 57 C-0.30035156 56.37351563 -0.60070312 55.74703125 -0.91015625 55.1015625 C-1.29042969 54.28429687 -1.67070312 53.46703125 -2.0625 52.625 C-2.44535156 51.81289062 -2.82820312 51.00078125 -3.22265625 50.1640625 C-3.47917969 49.44992188 -3.73570312 48.73578125 -4 48 C-3.67 47.34 -3.34 46.68 -3 46 C-1.35 46.66 0.3 47.32 2 48 C1.484375 47.05125 0.96875 46.1025 0.4375 45.125 C-0.036875 44.09375 -0.51125 43.0625 -1 42 C-0.67 41.34 -0.34 40.68 0 40 C0.66 40.66 1.32 41.32 2 42 C2 40.35 2 38.7 2 37 C2.66 37.33 3.32 37.66 4 38 C4 37.34 4 36.68 4 36 C2.68 36 1.36 36 0 36 C0.33 34.35 0.66 32.7 1 31 C0.20335937 30.61908203 0.20335937 30.61908203 -0.609375 30.23046875 C-8.28045326 26.49291785 -8.28045326 26.49291785 -11 24 C-11 23.34 -11 22.68 -11 22 C-9.02 22.33 -7.04 22.66 -5 23 C-5.350625 22.401875 -5.70125 21.80375 -6.0625 21.1875 C-7 19 -7 19 -6 16 C-5.34 15.67 -4.68 15.34 -4 15 C-5.423125 14.13375 -5.423125 14.13375 -6.875 13.25 C-9.76134098 11.17183449 -10.84095741 10.24531925 -12 7 C-10.02 7.66 -8.04 8.32 -6 9 C-6.66 6.69 -7.32 4.38 -8 2 C-6.35 3.65 -4.7 5.3 -3 7 C-2.01 4.69 -1.02 2.38 0 0 Z " fill="#11519B" transform="translate(198,80)"/>
<path d="M0 0 C1.41655793 -0.0272415 2.83327045 -0.04650467 4.25 -0.0625 C5.43335938 -0.07990234 5.43335938 -0.07990234 6.640625 -0.09765625 C11.21862461 0.09183049 14.15278351 1.54205613 18 4 C17.01 4.33 16.02 4.66 15 5 C15.33 5.99 15.66 6.98 16 8 C15.34 8 14.68 8 14 8 C14.99 9.65 15.98 11.3 17 13 C12.25 12.125 12.25 12.125 10 11 C10 11.66 10 12.32 10 13 C10.82757813 13.41378906 10.82757813 13.41378906 11.671875 13.8359375 C15.78125 15.890625 19.890625 17.9453125 24 20 C23.01 21.65 22.02 23.3 21 25 C22.65 24.67 24.3 24.34 26 24 C25.125 27.875 25.125 27.875 24 29 C23.67 29.99 23.34 30.98 23 32 C22.34 31.67 21.68 31.34 21 31 C21.99 33.31 22.98 35.62 24 38 C22.02 37.34 20.04 36.68 18 36 C18.2165625 36.54269531 18.433125 37.08539063 18.65625 37.64453125 C18.9346875 38.35996094 19.213125 39.07539063 19.5 39.8125 C19.7784375 40.52019531 20.056875 41.22789062 20.34375 41.95703125 C21 44 21 44 21 47 C19.515 46.505 19.515 46.505 18 46 C18.38414062 46.42410156 18.76828125 46.84820312 19.1640625 47.28515625 C20.69551099 49.14828209 21.94656815 50.82598526 23 53 C22.3125 56.9375 22.3125 56.9375 21 60 C20.34 59.67 19.68 59.34 19 59 C18.375 56.9375 18.375 56.9375 18 55 C17.67 57.64 17.34 60.28 17 63 C16.01 61.68 15.02 60.36 14 59 C14.14168137 60.43791516 14.28851043 61.8753237 14.4375 63.3125 C14.55931641 64.51326172 14.55931641 64.51326172 14.68359375 65.73828125 C14.95265693 68.16087179 14.95265693 68.16087179 16 71 C15.236875 71.0825 14.47375 71.165 13.6875 71.25 C10.47626739 72.14615794 9.70625501 73.21611025 8 76 C7.67 75.01 7.34 74.02 7 73 C6.73445312 73.63808594 6.46890625 74.27617187 6.1953125 74.93359375 C5.84210938 75.75988281 5.48890625 76.58617187 5.125 77.4375 C4.77695313 78.26121094 4.42890625 79.08492188 4.0703125 79.93359375 C3 82 3 82 1 83 C0.67 81.68 0.34 80.36 0 79 C-1.485 82.465 -1.485 82.465 -3 86 C-5 84 -5 84 -5.5 81.6875 C-4.86958234 78.29900509 -3.37758797 77.50903476 -0.71875 75.49609375 C8.72930894 67.2719879 11.91952775 53.91362821 13 42 C13.47154662 26.25034273 9.21895947 12.76471312 0 0 Z " fill="#F3F6F8" transform="translate(177,91)"/>
<path d="M0 0 C3.5625 0.1875 3.5625 0.1875 5.5625 2.1875 C5.6875 5.3125 5.6875 5.3125 5.5625 8.1875 C6.5525 8.1875 7.5425 8.1875 8.5625 8.1875 C9.0575 9.6725 9.0575 9.6725 9.5625 11.1875 C8.9025 11.5175 8.2425 11.8475 7.5625 12.1875 C8.0575 13.6725 8.0575 13.6725 8.5625 15.1875 C7.985 15.0225 7.4075 14.8575 6.8125 14.6875 C4.29585631 14.04287969 4.29585631 14.04287969 0.5625 14.1875 C0.2325 14.5175 -0.0975 14.8475 -0.4375 15.1875 C0.14257812 15.21328125 0.72265625 15.2390625 1.3203125 15.265625 C6.92418771 15.67250703 10.20934174 16.59614443 14.5625 20.1875 C15.0575 21.1775 15.0575 21.1775 15.5625 22.1875 C13.9125 21.8575 12.2625 21.5275 10.5625 21.1875 C11.2225 22.8375 11.8825 24.4875 12.5625 26.1875 C10.9125 26.8475 9.2625 27.5075 7.5625 28.1875 C6.9025 27.5275 6.2425 26.8675 5.5625 26.1875 C5.5625 24.8675 5.5625 23.5475 5.5625 22.1875 C4.9025 22.1875 4.2425 22.1875 3.5625 22.1875 C3.2325 23.5075 2.9025 24.8275 2.5625 26.1875 C-0.25 26.4375 -0.25 26.4375 -3.4375 26.1875 C-5.3125 24.1875 -5.3125 24.1875 -6.4375 22.1875 C-6.7675 22.8475 -7.0975 23.5075 -7.4375 24.1875 C-9.77365532 26.52365532 -10.32693903 26.48272381 -13.5 26.5 C-17.4375 26.1875 -17.4375 26.1875 -19.4375 25.1875 C-19.7675 26.1775 -20.0975 27.1675 -20.4375 28.1875 C-22.0875 27.8575 -23.7375 27.5275 -25.4375 27.1875 C-24.4475 24.8775 -23.4575 22.5675 -22.4375 20.1875 C-24.4175 20.8475 -26.3975 21.5075 -28.4375 22.1875 C-25.8125 17.3125 -25.8125 17.3125 -22.4375 16.1875 C-20.87631572 16.12009135 -19.3124748 16.10235544 -17.75 16.125 C-16.53763672 16.13853516 -16.53763672 16.13853516 -15.30078125 16.15234375 C-14.37845703 16.16974609 -14.37845703 16.16974609 -13.4375 16.1875 C-14.0975 16.8475 -14.7575 17.5075 -15.4375 18.1875 C-15.11708603 20.79030568 -15.11708603 20.79030568 -14.4375 23.1875 C-10.29827183 19.84941277 -10.06868004 17.32710891 -9.4375 12.1875 C-8.48656703 10.49235863 -7.48642238 8.82381892 -6.4375 7.1875 C-5.74789038 5.19529443 -5.07670943 3.19644394 -4.4375 1.1875 C-3.4375 0.1875 -3.4375 0.1875 0 0 Z " fill="#17559D" transform="translate(164.4375,176.8125)"/>
<path d="M0 0 C4.62 0 9.24 0 14 0 C13.54625 1.32 13.0925 2.64 12.625 4 C6.58797573 22.16802586 5.92601382 39.26952054 14.5625 56.625 C16.83302214 61.14155367 16.83302214 61.14155367 20 65 C19.67 65.99 19.34 66.98 19 68 C18.34 67.34 17.68 66.68 17 66 C17 69.96 17 73.92 17 78 C15.515 77.505 15.515 77.505 14 77 C13.25 75.0625 13.25 75.0625 13 73 C13.33 72.34 13.66 71.68 14 71 C14.06950541 69.45976004 14.08452357 67.91665012 14.0625 66.375 C14.05347656 65.55773437 14.04445312 64.74046875 14.03515625 63.8984375 C14.02355469 63.27195313 14.01195312 62.64546875 14 62 C13.34 62.99 12.68 63.98 12 65 C11.01 65.99 11.01 65.99 10 67 C9.505 66.01 9.505 66.01 9 65 C9.33 64.34 9.66 63.68 10 63 C10.06996014 61.29297265 10.08440154 59.58331997 10.0625 57.875 C10.05347656 56.96492188 10.04445313 56.05484375 10.03515625 55.1171875 C10.02355469 54.41851562 10.01195313 53.71984375 10 53 C9.360625 52.731875 8.72125 52.46375 8.0625 52.1875 C6 51 6 51 5 48 C4.01 48.99 3.02 49.98 2 51 C0.68 49.02 -0.64 47.04 -2 45 C-2.33 47.64 -2.66 50.28 -3 53 C-5 51 -5 51 -5.25 48.1875 C-4.99314051 44.91254148 -4.61872324 42.85203618 -3 40 C-2.195625 39.566875 -1.39125 39.13375 -0.5625 38.6875 C3.25180755 36.17563893 3.66078785 33.29957584 5 29 C4.34 29 3.68 29 3 29 C3.33 27.02 3.66 25.04 4 23 C1.03 24.32 -1.94 25.64 -5 27 C-5 25.35 -5 23.7 -5 22 C-4.01 22 -3.02 22 -2 22 C-2 21.01 -2 20.02 -2 19 C-3.98 19.99 -3.98 19.99 -6 21 C-6 19.68 -6 18.36 -6 17 C-5.32453125 16.76925781 -4.6490625 16.53851563 -3.953125 16.30078125 C1.32395501 14.3714442 4.94749592 12.99500668 8 8 C3.32538149 7.67386382 0.83325617 8.29417212 -3 11 C-2.67 9.02 -2.34 7.04 -2 5 C-0.68 5 0.64 5 2 5 C2 4.34 2 3.68 2 3 C1.01 3 0.02 3 -1 3 C-0.67 2.01 -0.34 1.02 0 0 Z " fill="#EDF2F7" transform="translate(117,100)"/>
<path d="M0 0 C10.89 0 21.78 0 33 0 C33 9.29705684 32.63497207 15.69149242 29 24 C28.01 24 27.02 24 26 24 C25.9227582 19.44273372 26.00703588 15.46442924 27 11 C25.94941406 11.01160156 24.89882812 11.02320313 23.81640625 11.03515625 C4.37132003 11.18566001 4.37132003 11.18566001 0 9 C0 6.03 0 3.06 0 0 Z " fill="#084996" transform="translate(157,129)"/>
<path d="M0 0 C0.33 0 0.66 0 1 0 C1.10489746 0.82238159 1.10489746 0.82238159 1.21191406 1.66137695 C3.32902823 17.88180711 5.57861828 33.87455834 19.12109375 44.78125 C22.24488934 46.80749579 25.45734087 47.88126554 29 49 C29 49.66 29 50.32 29 51 C31.08368538 50.68985608 33.16693668 50.3767948 35.25 50.0625 C36.41015625 49.88847656 37.5703125 49.71445313 38.765625 49.53515625 C41.23106961 49.1272264 43.59424562 48.66098697 46 48 C46 50.31 46 52.62 46 55 C45.01 54.505 45.01 54.505 44 54 C41.6670134 53.95977609 39.33293334 53.95679753 37 54 C36.35089846 55.58199631 35.70585306 57.16565724 35.0625 58.75 C34.52302734 60.07257813 34.52302734 60.07257813 33.97265625 61.421875 C33.14378647 63.61887922 32.54692112 65.72349927 32 68 C30.625 71.6875 30.625 71.6875 29 75 C27.515 75.495 27.515 75.495 26 76 C25.26919734 74.02253397 24.60578253 72.01927511 24 70 C25 68 25 68 28 67 C26.35 66.34 24.7 65.68 23 65 C22.67 65.99 22.34 66.98 22 68 C21.34 67.67 20.68 67.34 20 67 C20.66 65.35 21.32 63.7 22 62 C21.34 61.67 20.68 61.34 20 61 C19.84747691 59.08759516 19.77807227 57.16827201 19.75 55.25 C19.49007729 50.10207238 19.49007729 50.10207238 16.1875 46.1875 C15.135625 45.465625 14.08375 44.74375 13 44 C11.45999215 41.66514939 10.24333211 39.48666423 9 37 C8.42894531 35.94039062 7.85789063 34.88078125 7.26953125 33.7890625 C1.16345398 22.30849709 -0.36684302 13.0025471 0 0 Z " fill="#225CA1" transform="translate(124,124)"/>
<path d="M0 0 C9.272 5.624 9.272 5.624 11 8 C11.29296875 10.91796875 11.29296875 10.91796875 11.1875 14.1875 C11.16042969 15.27417969 11.13335937 16.36085937 11.10546875 17.48046875 C11.07066406 18.31191406 11.03585938 19.14335937 11 20 C11.99 20.33 12.98 20.66 14 21 C13.01 21.33 12.02 21.66 11 22 C10.34 21.67 9.68 21.34 9 21 C8.87625 22.1446875 8.87625 22.1446875 8.75 23.3125 C8 26 8 26 6.5 27.6875 C2.84896991 29.6042908 -0.96506089 30.26715849 -5 31 C-2.89851796 27.01824456 -0.63094642 24.64960955 3 22 C2.01 22.33 1.02 22.66 0 23 C-6.1194291 24.43986567 -9.41443159 23.44981071 -15 21 C-12.53721199 18.53721199 -10.29323018 18.00228745 -7 17 C-7.5053125 16.57847656 -8.010625 16.15695313 -8.53125 15.72265625 C-9.1809375 15.17480469 -9.830625 14.62695312 -10.5 14.0625 C-11.1496875 13.51722656 -11.799375 12.97195312 -12.46875 12.41015625 C-13.22671875 11.71212891 -13.22671875 11.71212891 -14 11 C-14 10.67 -14 10.34 -14 10 C-12.60386935 10.14295891 -11.20810692 10.28951558 -9.8125 10.4375 C-9.03519531 10.51871094 -8.25789063 10.59992188 -7.45703125 10.68359375 C-4.95359214 11.00597621 -2.47509476 11.50498105 0 12 C0 8.04 0 4.08 0 0 Z " fill="#0D4E99" transform="translate(133,165)"/>
<path d="M0 0 C2.31 0 4.62 0 7 0 C7 8.58 7 17.16 7 26 C-5.94619459 26.60496236 -5.94619459 26.60496236 -10.375 24.0625 C-12.57777939 19.91110807 -13.02264112 16.59772798 -12 12 C-9.9375 8.9375 -9.9375 8.9375 -7 7 C-3.1875 6.6875 -3.1875 6.6875 0 7 C0 4.69 0 2.38 0 0 Z " fill="#13529B" transform="translate(279,133)"/>
<path d="M0 0 C2.475 0.495 2.475 0.495 5 1 C6.48638208 3.49616871 7.60213004 5.71473103 8.6875 8.375 C11.01562955 13.85440081 11.01562955 13.85440081 14 19 C14.23710693 18.45996338 14.47421387 17.91992676 14.71850586 17.36352539 C15.78909926 14.92878456 16.86325029 12.49562968 17.9375 10.0625 C18.31068359 9.21236328 18.68386719 8.36222656 19.06835938 7.48632812 C19.42607422 6.67744141 19.78378906 5.86855469 20.15234375 5.03515625 C20.48226318 4.2862915 20.81218262 3.53742676 21.15209961 2.76586914 C22 1 22 1 23 0 C24.65 0 26.3 0 28 0 C28 8.58 28 17.16 28 26 C26.68 26 25.36 26 24 26 C23.67 20.39 23.34 14.78 23 9 C20.69 14.28 18.38 19.56 16 25 C11 24 11 24 9.78979492 22.41772461 C9.52271729 21.75264893 9.25563965 21.08757324 8.98046875 20.40234375 C8.70871826 19.75515381 8.43696777 19.10796387 8.15698242 18.44116211 C7.83705322 17.61495361 7.51712402 16.78874512 7.1875 15.9375 C6.135625 13.318125 5.08375 10.69875 4 8 C3.67 13.94 3.34 19.88 3 26 C2.01 26 1.02 26 0 26 C0 17.42 0 8.84 0 0 Z " fill="#205CA1" transform="translate(268,94)"/>
<path d="M0 0 C3.49406769 1.66762322 4.82670681 2.74006022 7 6 C7.46229036 10.99273591 7.08578614 13.99990685 4 18 C0.2626144 20.4915904 -1.57331583 20.45793285 -6 20 C-8.75329021 18.20437595 -10.52627461 16.94745078 -12 14 C-12.5811138 6.91041162 -12.5811138 6.91041162 -10.125 3.0625 C-6.7586549 -0.20483495 -4.63724366 -0.36370538 0 0 Z " fill="#1A589E" transform="translate(422,100)"/>
<path d="M0 0 C3.70718433 0.81785983 5.13329673 2.33819937 7.16015625 5.4765625 C7.79480821 8.28716402 7.79055099 10.66534271 7.16015625 13.4765625 C5.36651714 16.2865971 4.1413469 17.98596718 1.16015625 19.4765625 C-1.85091552 19.82209533 -3.93297152 20.04904403 -6.83984375 19.4765625 C-9.93443611 16.89773553 -11.39407609 15.35097899 -12.31640625 11.47265625 C-12.58587414 7.73556213 -11.91946977 5.5998544 -9.90234375 2.4765625 C-6.33149918 0.14458237 -4.19478356 -0.26611315 0 0 Z " fill="#0A4C98" transform="translate(437.83984375,139.5234375)"/>
<path d="M0 0 C0.33 0 0.66 0 1 0 C1.02715383 1.74991334 1.04646551 3.49994945 1.0625 5.25 C1.07410156 6.22453125 1.08570313 7.1990625 1.09765625 8.203125 C1 11 1 11 0.40625 13.1875 C-0.2565255 15.23029742 -0.2565255 15.23029742 1.4375 17.75 C1.953125 18.4925 2.46875 19.235 3 20 C3.99 17.69 4.98 15.38 6 13 C8.97387455 17.46081182 8.38766968 21.76645926 8 27 C7 30.6875 7 30.6875 6 33 C5.67 32.34 5.34 31.68 5 31 C4.01 30.9175 3.02 30.835 2 30.75 C-3.07926166 30.19033084 -7.18061814 27.26509515 -11 24 C-11 23.34 -11 22.68 -11 22 C-9.02 22.33 -7.04 22.66 -5 23 C-5.350625 22.401875 -5.70125 21.80375 -6.0625 21.1875 C-7 19 -7 19 -6 16 C-5.34 15.67 -4.68 15.34 -4 15 C-5.423125 14.13375 -5.423125 14.13375 -6.875 13.25 C-9.76134098 11.17183449 -10.84095741 10.24531925 -12 7 C-10.02 7.66 -8.04 8.32 -6 9 C-6.66 6.69 -7.32 4.38 -8 2 C-6.35 3.65 -4.7 5.3 -3 7 C-2.01 4.69 -1.02 2.38 0 0 Z " fill="#16559D" transform="translate(198,80)"/>
<path d="M0 0 C3.73286067 0.90956644 5.4535836 2.61916827 8.00390625 5.48828125 C8.56640625 8.11328125 8.56640625 8.11328125 8.00390625 10.48828125 C7.02451835 11.50847698 6.02495176 12.5097793 5.00390625 13.48828125 C5.00390625 14.80828125 5.00390625 16.12828125 5.00390625 17.48828125 C1.26652065 19.97987165 -0.56940958 19.9462141 -4.99609375 19.48828125 C-7.74938396 17.6926572 -9.52236836 16.43573203 -10.99609375 13.48828125 C-11.68180804 6.51685268 -11.68180804 6.51685268 -8.99609375 2.48828125 C-5.86760881 0.40262462 -3.77633725 -0.25080039 0 0 Z " fill="#0C4D98" transform="translate(390.99609375,139.51171875)"/>
<path d="M0 0 C3.57901257 0.80899922 5.12434624 2.53307317 7.16015625 5.48828125 C7.66015625 8.17578125 7.66015625 8.17578125 7.16015625 10.48828125 C4.24250625 12.43338125 2.5347834 12.94104442 -0.83984375 13.48828125 C-0.05609375 13.42640625 0.72765625 13.36453125 1.53515625 13.30078125 C2.40140625 13.36265625 3.26765625 13.42453125 4.16015625 13.48828125 C5.15015625 14.97328125 5.15015625 14.97328125 6.16015625 16.48828125 C2.06909384 19.46359937 -0.8104632 20.11695382 -5.83984375 19.48828125 C-8.59313396 17.6926572 -10.36611836 16.43573203 -11.83984375 13.48828125 C-12.52272581 6.54564701 -12.52272581 6.54564701 -9.90234375 2.48828125 C-6.3306711 0.15576034 -4.1946013 -0.24509357 0 0 Z " fill="#12529B" transform="translate(299.83984375,139.51171875)"/>
<path d="M0 0 C13.22055675 -0.48965025 13.22055675 -0.48965025 16.4375 1.53125 C18.57471132 4.90804388 18.43950771 7.89424697 18.25 11.75 C18.23195313 12.44738281 18.21390625 13.14476562 18.1953125 13.86328125 C18.14838554 15.57611539 18.07664605 17.28823824 18 19 C16.02 19 14.04 19 12 19 C12 14.71 12 10.42 12 6 C10.35 6 8.7 6 7 6 C7 10.29 7 14.58 7 19 C4.69 19 2.38 19 0 19 C0 12.73 0 6.46 0 0 Z " fill="#14539C" transform="translate(345,140)"/>
<path d="M0 0 C3.7106545 0.73397562 7.38463659 0.9193982 11.15625 1.125 C11.89681641 1.16818359 12.63738281 1.21136719 13.40039062 1.25585938 C15.21466464 1.36120432 17.0291855 1.46228316 18.84375 1.5625 C18.70254286 3.50034265 18.55562127 5.43776955 18.40625 7.375 C18.32503906 8.45394531 18.24382812 9.53289062 18.16015625 10.64453125 C17.84375 13.5625 17.84375 13.5625 16.84375 16.5625 C16.18375 16.2325 15.52375 15.9025 14.84375 15.5625 C14.84375 14.9025 14.84375 14.2425 14.84375 13.5625 C13.85375 14.5525 12.86375 15.5425 11.84375 16.5625 C11.84375 13.9225 11.84375 11.2825 11.84375 8.5625 C11.080625 9.0575 10.3175 9.5525 9.53125 10.0625 C6.84375 11.5625 6.84375 11.5625 3.84375 11.5625 C3.84375 13.2125 3.84375 14.8625 3.84375 16.5625 C2.85375 16.2325 1.86375 15.9025 0.84375 15.5625 C0.12037657 13.85270825 -0.5974108 12.13984508 -1.26171875 10.40625 C-2.63117802 7.58360907 -4.92876385 5.72978382 -7.15625 3.5625 C-7.15625 2.5725 -7.15625 1.5825 -7.15625 0.5625 C-4.57862404 -0.1003181 -2.63132275 -0.53389157 0 0 Z " fill="#EDEFF6" transform="translate(165.15625,138.4375)"/>
<path d="M0 0 C3.375 0.3125 3.375 0.3125 7 1 C7.66 1.99 8.32 2.98 9 4 C12.04335724 4.73135412 12.04335724 4.73135412 15.5 5.0625 C21.79349186 5.79349186 21.79349186 5.79349186 24 8 C24.26991906 10.68839385 24.08737357 13.29141936 24 16 C23.34 16 22.68 16 22 16 C21.67 17.65 21.34 19.3 21 21 C20.67 21 20.34 21 20 21 C19.67 19.02 19.34 17.04 19 15 C17.35 15.33 15.7 15.66 14 16 C14 16.99 14 17.98 14 19 C13.34 19 12.68 19 12 19 C12.50603992 16.83125748 12.99983813 15.00032373 14 13 C11.03 12.505 11.03 12.505 8 12 C8 14.64 8 17.28 8 20 C7.34 19.67 6.68 19.34 6 19 C6 17.02 6 15.04 6 13 C5.34 13 4.68 13 4 13 C4.33 14.32 4.66 15.64 5 17 C4.01 16.67 3.02 16.34 2 16 C2.185625 15.0925 2.37125 14.185 2.5625 13.25 C2.95734621 10.31685676 2.94691572 8.7355343 2 6 C1.01 6.495 1.01 6.495 0 7 C0 4.69 0 2.38 0 0 Z " fill="#1E569E" transform="translate(130,136)"/>
<path d="M0 0 C1.8125 0.1875 1.8125 0.1875 4 1 C5.03435556 2.64556566 6.02763513 4.3170608 7 6 C8.03687604 7.08752038 9.10110457 8.14944535 10.1875 9.1875 C13 12 13 12 13 14 C11.02 14 9.04 14 7 14 C6.67 15.65 6.34 17.3 6 19 C6.33 18.67 6.66 18.34 7 18 C7 17.34 7 16.68 7 16 C8.98 16.33 10.96 16.66 13 17 C13 18.65 13 20.3 13 22 C11.37536158 22.05395478 9.75021459 22.09277195 8.125 22.125 C6.76761719 22.15980469 6.76761719 22.15980469 5.3828125 22.1953125 C3 22 3 22 1 20 C0.875 16.875 0.875 16.875 1 14 C-0.65 14 -2.3 14 -4 14 C-4 16.31 -4 18.62 -4 21 C-5.98 21.33 -7.96 21.66 -10 22 C-9.93489583 19.98177083 -9.86979167 17.96354167 -9.8046875 15.9453125 C-9.81668311 13.76136355 -9.81668311 13.76136355 -12 12 C-11.278125 11.608125 -10.55625 11.21625 -9.8125 10.8125 C-5.45576243 8.00482468 -1.98121249 4.86297612 0 0 Z " fill="#1B529D" transform="translate(172,106)"/>
<path d="M0 0 C2.5625 2.25 2.5625 2.25 4 5 C3.67 6.65 3.34 8.3 3 10 C-1.95 10 -6.9 10 -12 10 C-9.57208447 14.20516915 -9.57208447 14.20516915 -6.51953125 14.390625 C-5.62621094 14.34421875 -4.73289062 14.2978125 -3.8125 14.25 C-2.91144531 14.21390625 -2.01039063 14.1778125 -1.08203125 14.140625 C-0.39496094 14.09421875 0.29210937 14.0478125 1 14 C1 14.99 1 15.98 1 17 C-2.41557022 19.10188936 -5.02173 19.4871351 -9 19 C-11.69990662 17.20006226 -13.5418865 15.916227 -15 13 C-15.70153846 5.86769231 -15.70153846 5.86769231 -12.625 2.0625 C-8.36069065 -1.28802878 -5.19547904 -1.496134 0 0 Z " fill="#17559D" transform="translate(381,101)"/>
<path d="M0 0 C2 2 2 2 2.125 4.625 C2.08375 5.40875 2.0425 6.1925 2 7 C2.66 6.01 3.32 5.02 4 4 C4.66 4.66 5.32 5.32 6 6 C9.11332248 5.33131686 9.11332248 5.33131686 10.1875 2.9375 C10.455625 2.298125 10.72375 1.65875 11 1 C11.66 1.33 12.32 1.66 13 2 C13.10251672 7.12583611 13.03590199 11.94997778 12 17 C5.375 16.25 5.375 16.25 2 14 C2 13.01 2 12.02 2 11 C1.20335938 10.97421875 0.40671875 10.9484375 -0.4140625 10.921875 C-11.28821315 10.33980368 -11.28821315 10.33980368 -16 6 C-16.70574404 4.686932 -17.38035629 3.35582591 -18 2 C-16.27119018 1.94550162 -14.54187288 1.90698312 -12.8125 1.875 C-11.84957031 1.85179687 -10.88664062 1.82859375 -9.89453125 1.8046875 C-6.87187222 2.0086456 -4.73230015 2.73125368 -2 4 C-1.67 3.01 -1.34 2.02 -1 1 C-0.67 0.67 -0.34 0.34 0 0 Z " fill="#14539C" transform="translate(119,160)"/>
<path d="M0 0 C0.66 0.33 1.32 0.66 2 1 C2.625 3.0625 2.625 3.0625 3 5 C3.66 4.01 4.32 3.02 5 2 C6 3 6 3 6.09765625 5.06640625 C6.08605469 5.89011719 6.07445312 6.71382812 6.0625 7.5625 C6.05347656 8.38878906 6.04445312 9.21507812 6.03515625 10.06640625 C6.02355469 10.70449219 6.01195312 11.34257812 6 12 C9.59634744 8.50640535 12.83451967 4.88901869 16 1 C16.66 1.33 17.32 1.66 18 2 C17.23302204 3.41875765 16.46123222 4.83491452 15.6875 6.25 C15.25824219 7.03890625 14.82898438 7.8278125 14.38671875 8.640625 C13.0603786 10.89727134 11.61115776 12.93998597 10 15 C10.55429688 14.7834375 11.10859375 14.566875 11.6796875 14.34375 C12.40414062 14.0653125 13.12859375 13.786875 13.875 13.5 C14.59429687 13.2215625 15.31359375 12.943125 16.0546875 12.65625 C18 12 18 12 20 12 C20 12.66 20 13.32 20 14 C14.72066414 18.00464712 9.64573468 20.71105501 3 21 C2.67 19.68 2.34 18.36 2 17 C1.01 17 0.02 17 -1 17 C-4.00559652 11.99067246 -4.29341888 8.67276511 -4 3 C-3.01 4.32 -2.02 5.64 -1 7 C-0.67 4.69 -0.34 2.38 0 0 Z " fill="#10519A" transform="translate(194,145)"/>
<path d="M0 0 C9.82820549 4.84198803 9.82820549 4.84198803 12 10 C12.33 10.99 12.66 11.98 13 13 C13.51949219 12.59007812 14.03898437 12.18015625 14.57421875 11.7578125 C18.2423777 8.92363424 21.51449706 6.40171967 26 5 C24.47944877 9.10548833 21.52498207 11.57761896 18 14 C16.96875 14.391875 15.9375 14.78375 14.875 15.1875 C10.94120007 17.6675043 10.3296778 20.49553569 8.95703125 24.8203125 C8.64121094 25.53960937 8.32539063 26.25890625 8 27 C7.01 27.33 6.02 27.66 5 28 C4.83052421 26.58366664 4.66454493 25.16691467 4.5 23.75 C4.4071875 22.96109375 4.314375 22.1721875 4.21875 21.359375 C4 19 4 19 4 15 C2.70990608 12.58204732 2.70990608 12.58204732 1 10.25 C0.1646875 9.05117187 0.1646875 9.05117187 -0.6875 7.828125 C-1.120625 7.22484375 -1.55375 6.6215625 -2 6 C0.475 6.99 0.475 6.99 3 8 C2.505 7.05125 2.01 6.1025 1.5 5.125 C0 2 0 2 0 0 Z " fill="#4275AF" transform="translate(195,129)"/>
<path d="M0 0 C0.66 0 1.32 0 2 0 C2 2.97 2 5.94 2 9 C4.97 9 7.94 9 11 9 C11 10.98 11 12.96 11 15 C10.67 14.34 10.34 13.68 10 13 C9.34 13 8.68 13 8 13 C7.34 16.3 6.68 19.6 6 23 C7.98 23 9.96 23 12 23 C11.67 20.69 11.34 18.38 11 16 C12.9451 18.91765 13.45276317 20.62537285 14 24 C12.375 25.625 12.375 25.625 10 27 C6.75 26.1875 6.75 26.1875 4 25 C4.31127516 23.41642541 4.62407289 21.83315007 4.9375 20.25 C5.11152344 19.36828125 5.28554687 18.4865625 5.46484375 17.578125 C5.92368488 15.36764947 6.43336074 13.18487932 7 11 C5.35 11 3.7 11 2 11 C1.67 12.65 1.34 14.3 1 16 C0.67 16 0.34 16 0 16 C0 14.35 0 12.7 0 11 C-1.98 11 -3.96 11 -6 11 C-5.77183594 11.66386719 -5.54367188 12.32773438 -5.30859375 13.01171875 C-5.02113281 13.89472656 -4.73367187 14.77773437 -4.4375 15.6875 C-4.14746094 16.55761719 -3.85742188 17.42773438 -3.55859375 18.32421875 C-2.94858039 21.24631074 -3.22296367 23.14400553 -4 26 C-6.33294775 26.04241723 -8.66702567 26.04092937 -11 26 C-11.33 25.67 -11.66 25.34 -12 25 C-11.84550243 19.46185633 -10.67670682 14.25368138 -9 9 C-6.03 9 -3.06 9 0 9 C-0.185625 7.700625 -0.37125 6.40125 -0.5625 5.0625 C-0.87890625 2.84765625 -0.87890625 2.84765625 -1 1 C-0.67 0.67 -0.34 0.34 0 0 Z " fill="#B0B7DB" transform="translate(142,97)"/>
<path d="M0 0 C2.31 0.66 4.62 1.32 7 2 C7 4.31 7 6.62 7 9 C7.82638376 6.10765685 8 4.11257569 8 1 C10.97 1 13.94 1 17 1 C17 3.64 17 6.28 17 9 C19.31 9 21.62 9 24 9 C23.67 7.68 23.34 6.36 23 5 C23 5.99 23 6.98 23 8 C21.35 8.33 19.7 8.66 18 9 C18 6.69 18 4.38 18 2 C23.625 0.875 23.625 0.875 27 2 C27.33 1.34 27.66 0.68 28 0 C30 2 30 2 30.0625 5.5 C30.041875 6.655 30.02125 7.81 30 9 C30.33 9.66 30.66 10.32 31 11 C20.44 11 9.88 11 -1 11 C-1 2 -1 2 0 0 Z " fill="#C0C8E2" transform="translate(158,118)"/>
<path d="M0 0 C1.2065625 0.0309375 1.2065625 0.0309375 2.4375 0.0625 C2.4375 2.0425 2.4375 4.0225 2.4375 6.0625 C3.7575 6.0625 5.0775 6.0625 6.4375 6.0625 C6.4375 7.7125 6.4375 9.3625 6.4375 11.0625 C5.1175 11.0625 3.7975 11.0625 2.4375 11.0625 C2.4375 13.7025 2.4375 16.3425 2.4375 19.0625 C3.7575 19.3925 5.0775 19.7225 6.4375 20.0625 C6.4375 21.3825 6.4375 22.7025 6.4375 24.0625 C-0.0372314 25.40631218 -0.0372314 25.40631218 -2.28125 23.9375 C-4.05742035 21.33822632 -3.85995248 19.49032026 -3.75 16.375 C-3.72292969 15.38113281 -3.69585937 14.38726562 -3.66796875 13.36328125 C-3.63316406 12.60402344 -3.59835937 11.84476563 -3.5625 11.0625 C-4.5525 11.0625 -5.5425 11.0625 -6.5625 11.0625 C-6.2325 9.4125 -5.9025 7.7625 -5.5625 6.0625 C-4.9025 6.0625 -4.2425 6.0625 -3.5625 6.0625 C-3.583125 5.258125 -3.60375 4.45375 -3.625 3.625 C-3.54067676 0.16774696 -3.45725304 0.08432324 0 0 Z " fill="#074A96" transform="translate(371.5625,133.9375)"/>
<path d="M0 0 C0.639375 0.804375 1.27875 1.60875 1.9375 2.4375 C3.40603502 4.2750504 3.40603502 4.2750504 5 6 C5.99 5.01 6.98 4.02 8 3 C8.33 4.32 8.66 5.64 9 7 C9.99 7 10.98 7 12 7 C13.84299569 10.68599138 13.49401235 14.97639943 13 19 C11.0625 21.5625 11.0625 21.5625 9 23 C8.67 23.33 8.34 23.66 8 24 C7.01 23.67 6.02 23.34 5 23 C5 21.35 5 19.7 5 18 C4.360625 17.7525 3.72125 17.505 3.0625 17.25 C1 16 1 16 0.375 13.9375 C0.25125 13.298125 0.1275 12.65875 0 12 C-0.66 11.67 -1.32 11.34 -2 11 C-1.85957123 9.35369672 -1.71250671 7.70795821 -1.5625 6.0625 C-1.48128906 5.14597656 -1.40007812 4.22945312 -1.31640625 3.28515625 C-1 1 -1 1 0 0 Z " fill="#094B97" transform="translate(115,144)"/>
<path d="M0 0 C0.66 0 1.32 0 2 0 C3.31626692 3.61973402 4 6.09567131 4 10 C6.88575819 9.60196439 7.82189513 9.20990931 9.75 6.9375 C10.1625 6.298125 10.575 5.65875 11 5 C11.84454356 8.37817425 12.10844919 10.67465243 11 14 C12.3303125 14.0928125 12.3303125 14.0928125 13.6875 14.1875 C17.74081992 15.18171055 19.29831749 16.90101124 22 20 C14.84247699 21.27812911 9.28227935 21.18818623 3 17 C3 16.01 3 15.02 3 14 C1.35 14.66 -0.3 15.32 -2 16 C-1.67 15.34 -1.34 14.68 -1 14 C-0.76970044 11.62876754 -0.58880058 9.25258057 -0.4375 6.875 C-0.35371094 5.59367188 -0.26992187 4.31234375 -0.18359375 2.9921875 C-0.09271484 1.51105469 -0.09271484 1.51105469 0 0 Z " fill="#2C65A6" transform="translate(170,171)"/>
<path d="M0 0 C4.62 0 9.24 0 14 0 C13 5 13 5 12 6 C10.35 6 8.7 6 7 6 C7 10.29 7 14.58 7 19 C4.69 19 2.38 19 0 19 C0 12.73 0 6.46 0 0 Z " fill="#1B589F" transform="translate(448,140)"/>
<path d="M0 0 C4.29 0 8.58 0 13 0 C13 1.65 13 3.3 13 5 C11.02 5.33 9.04 5.66 7 6 C7 10.29 7 14.58 7 19 C4.69 19 2.38 19 0 19 C0 12.73 0 6.46 0 0 Z " fill="#16549C" transform="translate(402,140)"/>
<path d="M0 0 C0.99 0 1.98 0 3 0 C2.89300781 0.64066406 2.78601563 1.28132812 2.67578125 1.94140625 C1.82562855 8.07530368 2.09967089 11.53399514 5 17 C5.33 17.99 5.66 18.98 6 20 C2.23789157 21.88105421 -2.1464298 20.23582109 -6 19 C-8.875 16.6875 -8.875 16.6875 -11 14 C-11.763125 13.071875 -12.52625 12.14375 -13.3125 11.1875 C-14.1478125 10.1046875 -14.1478125 10.1046875 -15 9 C-11.22134307 7.74044769 -9.96588214 8.51912811 -6.3125 9.9375 C-4.82169922 10.50791016 -4.82169922 10.50791016 -3.30078125 11.08984375 C-2.54152344 11.39019531 -1.78226563 11.69054687 -1 12 C-1 11.34 -1 10.68 -1 10 C-3.475 9.01 -3.475 9.01 -6 8 C-6 7.01 -6 6.02 -6 5 C-3.03 5.495 -3.03 5.495 0 6 C-0.2784375 4.7934375 -0.2784375 4.7934375 -0.5625 3.5625 C-0.706875 2.716875 -0.85125 1.87125 -1 1 C-0.67 0.67 -0.34 0.34 0 0 Z " fill="#10509A" transform="translate(111,141)"/>
<path d="M0 0 C1.89213369 2.38573379 3.02391783 4.07175348 4 7 C2.68 7 1.36 7 0 7 C0 7.99 0 8.98 0 10 C0.58007812 9.91621094 1.16015625 9.83242187 1.7578125 9.74609375 C6.42315303 9.13790579 10.35442117 8.92794335 15 10 C15 10.66 15 11.32 15 12 C12.03 12.66 9.06 13.32 6 14 C7.65 14.99 9.3 15.98 11 17 C10.67 17.66 10.34 18.32 10 19 C6.7 18.01 3.4 17.02 0 16 C0 16.66 0 17.32 0 18 C-1.65 18 -3.3 18 -5 18 C-5.33 17.34 -5.66 16.68 -6 16 C-5.3507041 14.65812182 -4.68268138 13.32520503 -4 12 C-4 11.01 -4 10.02 -4 9 C-4.99 9.99 -5.98 10.98 -7 12 C-6.67 9.69 -6.34 7.38 -6 5 C-4.02 5.495 -4.02 5.495 -2 6 C-1.855625 5.38125 -1.71125 4.7625 -1.5625 4.125 C-1 2 -1 2 0 0 Z " fill="#1F5BA0" transform="translate(195,160)"/>
<path d="M0 0 C1.98 0 3.96 0 6 0 C6 8.58 6 17.16 6 26 C4.02 26 2.04 26 0 26 C0 17.42 0 8.84 0 0 Z " fill="#0D4E99" transform="translate(334,133)"/>
<path d="M0 0 C1.98 0 3.96 0 6 0 C6 8.58 6 17.16 6 26 C4.02 26 2.04 26 0 26 C0 17.42 0 8.84 0 0 Z " fill="#034795" transform="translate(311,133)"/>
<path d="M0 0 C0.99 0 1.98 0 3 0 C3 0.66 3 1.32 3 2 C3.99 1.34 4.98 0.68 6 0 C9.46883989 -0.44283062 11.26719644 -0.50783155 14.17578125 1.5078125 C16.71991381 4.9835225 16.43949443 8.12485202 16.25 12.25 C16.23195313 12.99507812 16.21390625 13.74015625 16.1953125 14.5078125 C16.14835649 16.33909701 16.07661652 18.16971649 16 20 C15.01 20 14.02 20 13 20 C12.67 14.72 12.34 9.44 12 4 C5.6 4.2 5.6 4.2 4 6 C3.76472227 8.34987262 3.58613583 10.70556039 3.4375 13.0625 C3.35371094 14.35285156 3.26992188 15.64320312 3.18359375 16.97265625 C3.12300781 17.97167969 3.06242187 18.97070312 3 20 C2.01 20 1.02 20 0 20 C0 13.4 0 6.8 0 0 Z " fill="#1D5A9F" transform="translate(310,100)"/>
<path d="M0 0 C0.99 0 1.98 0 3 0 C3 1.98 3 3.96 3 6 C4.65 6 6.3 6 8 6 C8 7.32 8 8.64 8 10 C6.35 10 4.7 10 3 10 C3 14.29 3 18.58 3 23 C4.65 23 6.3 23 8 23 C7.67 23.99 7.34 24.98 7 26 C2.54676754 26.3610729 2.54676754 26.3610729 0.34375 24.90625 C-1.65709853 22.06783697 -1.28913696 19.73427756 -1.1875 16.3125 C-1.16042969 15.13300781 -1.13335937 13.95351562 -1.10546875 12.73828125 C-1.07066406 11.83464844 -1.03585937 10.93101563 -1 10 C-1.99 10 -2.98 10 -4 10 C-4 9.01 -4 8.02 -4 7 C-3.01 7 -2.02 7 -1 7 C-1.020625 6.030625 -1.04125 5.06125 -1.0625 4.0625 C-1 1 -1 1 0 0 Z " fill="#2D65A6" transform="translate(356,94)"/>
<path d="M0 0 C1.9375 1.125 1.9375 1.125 3 3 C3.38976435 6.11811483 3.50422245 8.11019567 1.9375 10.875 C-1.1069286 12.64273274 -3.5631012 12.36823916 -7 12 C-8.9375 10.875 -8.9375 10.875 -10 9 C-10.38976435 5.88188517 -10.50422245 3.88980433 -8.9375 1.125 C-5.8930714 -0.64273274 -3.4368988 -0.36823916 0 0 Z " fill="#F6F8FA" transform="translate(423,104)"/>
<path d="M0 0 C2.4375 0.6875 2.4375 0.6875 4.4375 1.6875 C4.4375 2.3475 4.4375 3.0075 4.4375 3.6875 C2.1275 3.6875 -0.1825 3.6875 -2.5625 3.6875 C-1.84610801 6.97593538 -1.84610801 6.97593538 1.4375 8.3125 C2.4275 8.76625 3.4175 9.22 4.4375 9.6875 C5.4375 10.6875 5.4375 10.6875 5.75 13.5625 C5.4375 16.6875 5.4375 16.6875 3.75 18.5625 C0.99202664 19.90421677 -0.5374427 20.230459 -3.5625 19.6875 C-5.375 17.6875 -5.375 17.6875 -6.5625 15.6875 C-4.2525 15.6875 -1.9425 15.6875 0.4375 15.6875 C1.0975 14.3675 1.7575 13.0475 2.4375 11.6875 C1.32375 11.44 0.21 11.1925 -0.9375 10.9375 C-4.5625 9.6875 -4.5625 9.6875 -6.0625 7.8125 C-6.65219004 5.30631732 -6.58555989 4.04840745 -5.5625 1.6875 C-2.5625 -0.3125 -2.5625 -0.3125 0 0 Z " fill="#1D5AA0" transform="translate(344.5625,100.3125)"/>
<path d="M0 0 C1.98 0 3.96 0 6 0 C6 6.27 6 12.54 6 19 C4.02 19 2.04 19 0 19 C0 12.73 0 6.46 0 0 Z " fill="#0D4E99" transform="translate(416,140)"/>
<path d="M0 0 C0.66 0.33 1.32 0.66 2 1 C2.10251672 6.12583611 2.03590199 10.94997778 1 16 C-5.625 15.25 -5.625 15.25 -9 13 C-9 12.01 -9 11.02 -9 10 C-9.66 9.34 -10.32 8.68 -11 8 C-10.34 7.34 -9.68 6.68 -9 6 C-8.34 5.01 -7.68 4.02 -7 3 C-6.34 3.66 -5.68 4.32 -5 5 C-1.88667752 4.33131686 -1.88667752 4.33131686 -0.8125 1.9375 C-0.544375 1.298125 -0.27625 0.65875 0 0 Z " fill="#235EA2" transform="translate(130,161)"/>
<path d="M0 0 C7.0867694 0.1540602 11.77681404 3.36534204 17 8 C27.71282149 20.03584576 31.6258205 34.04157723 31 50 C30.731875 49.401875 30.46375 48.80375 30.1875 48.1875 C29.16579343 45.95263501 29.16579343 45.95263501 27.375 44.75 C25.06309893 41.80758046 25.8208109 38.64351176 26 35 C26.66 35 27.32 35 28 35 C24.84489451 23.75993668 21.14300913 12.76095087 10.9375 5.9375 C7.4135937 4.01156309 3.90555168 2.89502226 0 2 C0 1.34 0 0.68 0 0 Z " fill="#4A6FAB" transform="translate(160,83)"/>
<path d="M0 0 C0.33 0 0.66 0 1 0 C1.27439609 8.15566158 0.58126074 15.25621777 -2 23 C-6 18.25 -6 18.25 -6 16 C-5.34 15.67 -4.68 15.34 -4 15 C-5.423125 14.13375 -5.423125 14.13375 -6.875 13.25 C-9.76134098 11.17183449 -10.84095741 10.24531925 -12 7 C-10.02 7.66 -8.04 8.32 -6 9 C-6.66 6.69 -7.32 4.38 -8 2 C-6.35 3.65 -4.7 5.3 -3 7 C-2.01 4.69 -1.02 2.38 0 0 Z " fill="#235EA2" transform="translate(198,80)"/>
<path d="M0 0 C0.33 0 0.66 0 1 0 C0.66009167 5.37992836 0.31442207 9.53273547 -3 14 C-1.68 14 -0.36 14 1 14 C0.6875 15.875 0.6875 15.875 0 18 C-0.99 18.66 -1.98 19.32 -3 20 C-3.99 19.01 -4.98 18.02 -6 17 C-6.66 17.66 -7.32 18.32 -8 19 C-8.33 17.35 -8.66 15.7 -9 14 C-10.32 14 -11.64 14 -13 14 C-12.67 12.68 -12.34 11.36 -12 10 C-8.94736336 9.01879536 -7.05263664 9.01879536 -4 10 C-3.896875 9.278125 -3.79375 8.55625 -3.6875 7.8125 C-2.93659472 4.74061475 -1.78158272 2.59814146 0 0 Z " fill="#245FA2" transform="translate(211,102)"/>
<path d="M0 0 C2.475 0.495 2.475 0.495 5 1 C7.34165499 0.73128549 9.67884289 0.40961596 12 0 C11.67 0.99 11.34 1.98 11 3 C10.00742187 3.40863281 9.01484375 3.81726563 7.9921875 4.23828125 C6.51105469 5.11033203 6.51105469 5.11033203 5 6 C4.05689861 9.40163148 4.05689861 9.40163148 4.125 13.1875 C4.06699219 15.09595703 4.06699219 15.09595703 4.0078125 17.04296875 C4.00523437 18.01878906 4.00265625 18.99460937 4 20 C2.68 20 1.36 20 0 20 C0 13.4 0 6.8 0 0 Z " fill="#3269A8" transform="translate(388,100)"/>
<path d="M0 0 C1.21236328 0.01353516 1.21236328 0.01353516 2.44921875 0.02734375 C3.37154297 0.04474609 3.37154297 0.04474609 4.3125 0.0625 C3.6525 0.7225 2.9925 1.3825 2.3125 2.0625 C2.63576553 5.65929066 2.63576553 5.65929066 3.3125 9.0625 C1.6625 9.0625 0.0125 9.0625 -1.6875 9.0625 C-2.0175 10.0525 -2.3475 11.0425 -2.6875 12.0625 C-4.3375 11.7325 -5.9875 11.4025 -7.6875 11.0625 C-6.6975 8.7525 -5.7075 6.4425 -4.6875 4.0625 C-6.6675 4.7225 -8.6475 5.3825 -10.6875 6.0625 C-7.85535308 0.80279857 -5.86976654 -0.08506908 0 0 Z " fill="#10509A" transform="translate(146.6875,192.9375)"/>
<path d="M0 0 C0.66 0 1.32 0 2 0 C2.53532823 1.55759343 3.05265378 3.12138045 3.5625 4.6875 C3.85253906 5.55761719 4.14257812 6.42773438 4.44140625 7.32421875 C5.05141961 10.24631074 4.77703633 12.14400553 4 15 C1.66705225 15.04241723 -0.66702567 15.04092937 -3 15 C-3.33 14.67 -3.66 14.34 -4 14 C-3.9140625 12.0390625 -3.9140625 12.0390625 -3.625 9.625 C-3.48964844 8.43777344 -3.48964844 8.43777344 -3.3515625 7.2265625 C-3 5 -3 5 -2 2 C-1.34 2 -0.68 2 0 2 C0 1.34 0 0.68 0 0 Z " fill="#6080B9" transform="translate(134,108)"/>
<path d="M0 0 C7.27540501 0.36377025 7.27540501 0.36377025 10.5625 3.25 C12 6 12 6 11.75 8.8125 C11.5025 9.534375 11.255 10.25625 11 11 C9.35 11 7.7 11 6 11 C6 10.01 6 9.02 6 8 C3.03 8 0.06 8 -3 8 C-2.34 6.68 -1.68 5.36 -1 4 C1.625 3.25 1.625 3.25 4 3 C4 2.34 4 1.68 4 1 C2.68 0.67 1.36 0.34 0 0 Z " fill="#1E5AA0" transform="translate(373,100)"/>
<path d="M0 0 C0.99 2.97 1.98 5.94 3 9 C1.576875 8.4740625 1.576875 8.4740625 0.125 7.9375 C-2.87060172 6.64973223 -2.87060172 6.64973223 -5 8 C-6.91015625 7.546875 -6.91015625 7.546875 -9.0625 6.75 C-9.77535156 6.49734375 -10.48820313 6.2446875 -11.22265625 5.984375 C-13 5 -13 5 -14 2 C-12.22978678 1.663389 -10.45880326 1.33082707 -8.6875 1 C-7.70136719 0.814375 -6.71523437 0.62875 -5.69921875 0.4375 C-3 0 -3 0 0 0 Z " fill="#F5F7F3" transform="translate(190,81)"/>
<path d="M0 0 C2.46568063 3.69852095 4.47847865 7.58073606 6.5625 11.50390625 C7.89579554 14.06904241 7.89579554 14.06904241 10 16 C9.67 16.99 9.34 17.98 9 19 C8.34 18.34 7.68 17.68 7 17 C7 20.96 7 24.92 7 29 C6.01 28.67 5.02 28.34 4 28 C3.25 26.0625 3.25 26.0625 3 24 C3.33 23.34 3.66 22.68 4 22 C4.06950541 20.45976004 4.08452357 18.91665012 4.0625 17.375 C4.05347656 16.55773437 4.04445312 15.74046875 4.03515625 14.8984375 C4.02355469 14.27195313 4.01195312 13.64546875 4 13 C3.01 14.485 3.01 14.485 2 16 C1.34 16.66 0.68 17.32 0 18 C-0.33 17.34 -0.66 16.68 -1 16 C-0.67 15.34 -0.34 14.68 0 14 C0.09585131 12.35643193 0.12983511 10.70885358 0.125 9.0625 C0.12757812 8.18722656 0.13015625 7.31195313 0.1328125 6.41015625 C0.09822003 3.85540944 0.09822003 3.85540944 -1 1 C-0.67 0.67 -0.34 0.34 0 0 Z " fill="#DDE6F0" transform="translate(127,149)"/>
<path d="M0 0 C0.33 0 0.66 0 1 0 C1.10489746 0.82238159 1.10489746 0.82238159 1.21191406 1.66137695 C3.44131304 18.74208568 6.72619758 31.55815865 18 45 C15.75 44.9375 15.75 44.9375 13 44 C11.37358084 41.66879921 10.23454862 39.54317016 9 37 C8.42765625 35.93523437 7.8553125 34.87046875 7.265625 33.7734375 C1.15304017 22.30420195 -0.36657291 12.99297321 0 0 Z " fill="#456FAE" transform="translate(124,124)"/>
<path d="M0 0 C2 3 2 3 1.625 6.1875 C1.41875 7.115625 1.2125 8.04375 1 9 C2.3303125 9.0928125 2.3303125 9.0928125 3.6875 9.1875 C7.74081992 10.18171055 9.29831749 11.90101124 12 15 C9.36 15.33 6.72 15.66 4 16 C4 15.34 4 14.68 4 14 C1.03 13.01 -1.94 12.02 -5 11 C-3.68 10.34 -2.36 9.68 -1 9 C-1.20625 8.2575 -1.4125 7.515 -1.625 6.75 C-2.04408751 3.67669159 -1.61949011 2.57213134 0 0 Z " fill="#3E72AD" transform="translate(180,176)"/>
<path d="M0 0 C1.89213369 2.38573379 3.02391783 4.07175348 4 7 C2.68 7 1.36 7 0 7 C-1.02703748 12.55493924 -1.02703748 12.55493924 0 18 C-1.65 18 -3.3 18 -5 18 C-5.33 17.34 -5.66 16.68 -6 16 C-5.3507041 14.65812182 -4.68268138 13.32520503 -4 12 C-4 11.01 -4 10.02 -4 9 C-4.99 9.99 -5.98 10.98 -7 12 C-6.67 9.69 -6.34 7.38 -6 5 C-4.02 5.495 -4.02 5.495 -2 6 C-1.855625 5.38125 -1.71125 4.7625 -1.5625 4.125 C-1 2 -1 2 0 0 Z " fill="#6790BF" transform="translate(195,160)"/>
<path d="M0 0 C0 2.31 0 4.62 0 7 C-0.66 6.67 -1.32 6.34 -2 6 C-5.45786015 5.49992206 -5.45786015 5.49992206 -9 6 C-11.00864359 8.3726974 -11.00864359 8.3726974 -12 11 C-14.69378051 8.48580485 -16.44805246 6.32759923 -18 3 C-17.27554688 2.95101562 -16.55109375 2.90203125 -15.8046875 2.8515625 C-10.62984852 2.45137495 -4.87824104 0 0 0 Z " fill="#F3F6F9" transform="translate(170,172)"/>
<path d="M0 0 C5.39325843 -0.35955056 5.39325843 -0.35955056 7.6875 1 C9.76763714 4.16973279 9.31199229 7.53253394 9.1875 11.1875 C9.17396484 11.93708984 9.16042969 12.68667969 9.14648438 13.45898438 C9.11118539 15.30629767 9.05737917 17.15324066 9 19 C8.01 19 7.02 19 6 19 C5.93941406 18.01257813 5.87882812 17.02515625 5.81640625 16.0078125 C5.73261719 14.72648437 5.64882813 13.44515625 5.5625 12.125 C5.44068359 10.21074219 5.44068359 10.21074219 5.31640625 8.2578125 C5.20793973 5.11699848 5.20793973 5.11699848 4 3 C1.47266765 2.34444881 1.47266765 2.34444881 -1 2 C-0.67 1.34 -0.34 0.68 0 0 Z " fill="#0E4F9A" transform="translate(317,101)"/>
<path d="M0 0 C0 3 0 3 -1.3203125 4.5 C-4.26239033 6.94536339 -6.71993681 8.8761259 -10.25 10.4375 C-14.12447552 12.63890655 -14.59026517 14.84911411 -16 19 C-16.33 19 -16.66 19 -17 19 C-16.125 11.375 -16.125 11.375 -15 8 C-13.67720041 7.6270521 -12.3409732 7.30113082 -11 7 C-9.42475436 6.05377736 -7.88348699 5.04938225 -6.375 4 C-2.12173913 1.06086957 -2.12173913 1.06086957 0 0 Z " fill="#2B64A6" transform="translate(220,134)"/>
<path d="M0 0 C0.99 0 1.98 0 3 0 C2.89300781 0.64066406 2.78601563 1.28132812 2.67578125 1.94140625 C1.82562855 8.07530368 2.09967089 11.53399514 5 17 C5.33 17.99 5.66 18.98 6 20 C2.7169902 21.6415049 -0.42545033 20.51888624 -4 20 C-4 19.67 -4 19.34 -4 19 C-1.69 19 0.62 19 3 19 C2.34 18.01 1.68 17.02 1 16 C0.731875 14.989375 0.46375 13.97875 0.1875 12.9375 C-0.71731803 9.78714344 -0.71731803 9.78714344 -3.625 8.625 C-4.40875 8.41875 -5.1925 8.2125 -6 8 C-6 7.01 -6 6.02 -6 5 C-3.03 5.495 -3.03 5.495 0 6 C-0.2784375 4.7934375 -0.2784375 4.7934375 -0.5625 3.5625 C-0.706875 2.716875 -0.85125 1.87125 -1 1 C-0.67 0.67 -0.34 0.34 0 0 Z " fill="#386EAB" transform="translate(111,141)"/>
<path d="M0 0 C0.33 0 0.66 0 1 0 C1.38855926 2.4568901 1.76130088 4.91441833 2.125 7.375 C2.23714844 8.07367188 2.34929687 8.77234375 2.46484375 9.4921875 C2.72816466 11.31787914 2.8718116 13.1598762 3 15 C2.34 15.66 1.68 16.32 1 17 C0.34 16.01 -0.32 15.02 -1 14 C-1.99 13.67 -2.98 13.34 -4 13 C-4 10.36 -4 7.72 -4 5 C-2.68 5 -1.36 5 0 5 C0 3.35 0 1.7 0 0 Z " fill="#DEE7F0" transform="translate(378,140)"/>
<path d="M0 0 C2.97 0 5.94 0 9 0 C9 2.97 9 5.94 9 9 C6.03 9 3.06 9 0 9 C0 6.03 0 3.06 0 0 Z " fill="#7086BE" transform="translate(166,119)"/>
<path d="M0 0 C3.3 0 6.6 0 10 0 C10 0.66 10 1.32 10 2 C7.5 3.5 7.5 3.5 5 5 C3.7315625 6.3303125 3.7315625 6.3303125 2.4375 7.6875 C0 10 0 10 -4 10 C-3.71125 9.46375 -3.4225 8.9275 -3.125 8.375 C-1.83288192 5.64719516 -0.91441408 2.87387282 0 0 Z " fill="#F5F6F1" transform="translate(130,83)"/>
<path d="M0 0 C0 0.66 0 1.32 0 2 C-5.27933586 6.00464712 -10.35426532 8.71105501 -17 9 C-15.42979585 5.70092995 -14.49858645 4.23869228 -11.15234375 2.63671875 C-10.09144531 2.32347656 -9.03054687 2.01023438 -7.9375 1.6875 C-6.87402344 1.36136719 -5.81054688 1.03523437 -4.71484375 0.69921875 C-2 0 -2 0 0 0 Z " fill="#1F5CA1" transform="translate(214,157)"/>
<path d="M0 0 C-1.10235936 0.96041171 -2.20696624 1.91824407 -3.3125 2.875 C-3.92738281 3.40867188 -4.54226562 3.94234375 -5.17578125 4.4921875 C-7 6 -7 6 -10 8 C-10.33 8.99 -10.66 9.98 -11 11 C-12.32 10.67 -13.64 10.34 -15 10 C-15.33 8.35 -15.66 6.7 -16 5 C-14.35 5 -12.7 5 -11 5 C-10.79375 4.38125 -10.5875 3.7625 -10.375 3.125 C-7.85679214 -0.76677579 -4.2199254 -1.4066418 0 0 Z " fill="#215CA1" transform="translate(222,128)"/>
<path d="M0 0 C0.99 0 1.98 0 3 0 C3 6.27 3 12.54 3 19 C2.01 19 1.02 19 0 19 C0 12.73 0 6.46 0 0 Z " fill="#1E5AA0" transform="translate(402,101)"/>
<path d="M0 0 C0.33 0 0.66 0 1 0 C1.02505615 1.06436279 1.0501123 2.12872559 1.07592773 3.2253418 C1.1703167 7.18574429 1.27045975 11.14598423 1.37231445 15.10620117 C1.41554445 16.81807647 1.45722765 18.52999157 1.49731445 20.24194336 C1.55530714 22.70699034 1.61891697 25.17183918 1.68359375 27.63671875 C1.70030624 28.39836838 1.71701874 29.16001801 1.73423767 29.94474792 C1.83947708 33.74572105 2.17722336 37.29102164 3 41 C3 41.99 3 42.98 3 44 C1.515 44.495 1.515 44.495 0 45 C-1.28407611 35.58344188 -0.89809582 26.34052306 -0.5625 16.875 C-0.50916411 15.23439444 -0.45642492 13.59376938 -0.40429688 11.953125 C-0.27640934 7.96849171 -0.14045055 3.98420944 0 0 Z " fill="#526BAE" transform="translate(156,84)"/>
<path d="M0 0 C0.66 0.33 1.32 0.66 2 1 C-1.95623632 8.5273523 -1.95623632 8.5273523 -6.3125 10.5 C-7.199375 10.665 -8.08625 10.83 -9 11 C-8.73517462 7.11589437 -8.46605993 5.4537952 -5.625 2.6875 C-3 1 -3 1 0 0 Z " fill="#10509A" transform="translate(129,84)"/>
<path d="M0 0 C0.99 0 1.98 0 3 0 C3 5.94 3 11.88 3 18 C2.01 18 1.02 18 0 18 C0 12.06 0 6.12 0 0 Z " fill="#034695" transform="translate(331,101)"/>
<path d="M0 0 C2.375 0.3125 2.375 0.3125 5 1 C5.66 1.99 6.32 2.98 7 4 C5.35 3.67 3.7 3.34 2 3 C2.66 4.65 3.32 6.3 4 8 C2.35 8.66 0.7 9.32 -1 10 C-3 8 -3 8 -3.125 4.875 C-3.08375 3.92625 -3.0425 2.9775 -3 2 C-2.01 2 -1.02 2 0 2 C0 1.34 0 0.68 0 0 Z " fill="#11519B" transform="translate(173,195)"/>
<path d="M0 0 C0.99 0.33 1.98 0.66 3 1 C3.66 4.3 4.32 7.6 5 11 C3.35 11.66 1.7 12.32 0 13 C-1.33106125 9.00681626 -1.13647721 5.16255487 -1 1 C-0.67 0.67 -0.34 0.34 0 0 Z " fill="#2761A4" transform="translate(116,86)"/>
<path d="M0 0 C2.31 0.66 4.62 1.32 7 2 C7 4.31 7 6.62 7 9 C4.125 9.625 4.125 9.625 1 10 C-1 8 -1 8 -1.1875 5 C-1 2 -1 2 0 0 Z " fill="#8C99C9" transform="translate(158,118)"/>
<path d="M0 0 C0.99 0.33 1.98 0.66 3 1 C3.6875 3.0625 3.6875 3.0625 4 5 C4.33 4.34 4.66 3.68 5 3 C7.31 3.66 9.62 4.32 12 5 C12 5.33 12 5.66 12 6 C10.10507994 6.33848652 8.20901534 6.67056911 6.3125 7 C5.25675781 7.185625 4.20101562 7.37125 3.11328125 7.5625 C0.35095938 7.95068074 -2.21742043 8.08259976 -5 8 C-4.360625 7.236875 -3.72125 6.47375 -3.0625 5.6875 C-0.85767219 3.11753287 -0.85767219 3.11753287 0 0 Z " fill="#E3EAF2" transform="translate(142,186)"/>
<path d="M0 0 C1.32 0.66 2.64 1.32 4 2 C4 5.3 4 8.6 4 12 C2.02 12.99 2.02 12.99 0 14 C-0.16947579 12.58366664 -0.33545507 11.16691467 -0.5 9.75 C-0.5928125 8.96109375 -0.685625 8.1721875 -0.78125 7.359375 C-1 5 -1 5 -1 1 C-0.67 0.67 -0.34 0.34 0 0 Z " fill="#8DABCE" transform="translate(200,143)"/>
<path d="M0 0 C4.69879518 4.3373494 4.69879518 4.3373494 5.9375 7.0625 C6.01693993 9.52513785 5.26384713 10.91836944 4 13 C-2.57142857 9 -2.57142857 9 -4 5 C-2.02 5.66 -0.04 6.32 2 7 C1.34 4.69 0.68 2.38 0 0 Z " fill="#2862A4" transform="translate(190,82)"/>
<path d="M0 0 C0.99 0.33 1.98 0.66 3 1 C3 2.32 3 3.64 3 5 C2.01 5 1.02 5 0 5 C-1.70680947 6.62553283 -3.37660195 8.29115995 -5 10 C-5.33 10 -5.66 10 -6 10 C-6.625 6.625 -6.625 6.625 -7 3 C-6.34 2.34 -5.68 1.68 -5 1 C-4.67 1.99 -4.34 2.98 -4 4 C-2.68 2.68 -1.36 1.36 0 0 Z " fill="#2B64A6" transform="translate(190,161)"/>
<path d="M0 0 C0.66 0 1.32 0 2 0 C2 0.66 2 1.32 2 2 C2.66 2.33 3.32 2.66 4 3 C4 5.31 4 7.62 4 10 C2.02 10 0.04 10 -2 10 C-1.34 6.7 -0.68 3.4 0 0 Z " fill="#4269AB" transform="translate(150,110)"/>
<path d="M0 0 C1.67542976 0.28604898 3.34385343 0.61781233 5 1 C5.625 2.875 5.625 2.875 6 5 C5.34 5.66 4.68 6.32 4 7 C1.375 6.625 1.375 6.625 -1 6 C-1.042721 4.33388095 -1.04063832 2.66617115 -1 1 C-0.67 0.67 -0.34 0.34 0 0 Z " fill="#E6EDF4" transform="translate(274,146)"/>
<path d="M0 0 C1.5 1.375 1.5 1.375 3 3 C3 3.66 3 4.32 3 5 C3.66 5 4.32 5 5 5 C5.33 6.32 5.66 7.64 6 9 C5.34 9 4.68 9 4 9 C4 9.33 4 9.66 4 10 C2.35 10 0.7 10 -1 10 C-1 9.01 -1 8.02 -1 7 C-1.66 6.34 -2.32 5.68 -3 5 C-2.34 4.34 -1.68 3.68 -1 3 C-0.67 2.01 -0.34 1.02 0 0 Z " fill="#5482B7" transform="translate(122,164)"/>
<path d="M0 0 C1.67542976 0.28604898 3.34385343 0.61781233 5 1 C5.625 2.875 5.625 2.875 6 5 C5.34 5.66 4.68 6.32 4 7 C1.875 6.625 1.875 6.625 0 6 C-0.38218767 4.34385343 -0.71395102 2.67542976 -1 1 C-0.67 0.67 -0.34 0.34 0 0 Z " fill="#F2F6F9" transform="translate(433,146)"/>
<path d="M0 0 C3.3125 -0.25 3.3125 -0.25 7 0 C7.99 1.32 8.98 2.64 10 4 C6.04 4 2.08 4 -2 4 C-1.34 2.68 -0.68 1.36 0 0 Z " fill="#E4EBF3" transform="translate(372,104)"/>
<path d="M0 0 C1.65 0 3.3 0 5 0 C5.625 1.875 5.625 1.875 6 4 C5.34 4.66 4.68 5.32 4 6 C1.375 5.625 1.375 5.625 -1 5 C-0.67 3.35 -0.34 1.7 0 0 Z " fill="#12529B" transform="translate(417,132)"/>
<path d="M0 0 C0 0.66 0 1.32 0 2 C0.99 2 1.98 2 3 2 C3 3.32 3 4.64 3 6 C2.34 6 1.68 6 1 6 C0.67 7.32 0.34 8.64 0 10 C-0.33 8.35 -0.66 6.7 -1 5 C-2.32 5 -3.64 5 -5 5 C-4.625 3.0625 -4.625 3.0625 -4 1 C-2 0 -2 0 0 0 Z " fill="#4E7EB5" transform="translate(203,111)"/>
<path d="M0 0 C3.63 0 7.26 0 11 0 C11 0.33 11 0.66 11 1 C9.35 1.33 7.7 1.66 6 2 C7.98 3.32 9.96 4.64 12 6 C8.79937313 7.60031344 6.27728194 6.03173691 3 5 C3 3.68 3 2.36 3 1 C2.01 0.67 1.02 0.34 0 0 Z " fill="#356BAA" transform="translate(185,181)"/>
<path d="M0 0 C2.02530578 0.19288626 4.05332205 0.39483693 6.05859375 0.73828125 C8.26709377 1.0360066 9.91543924 0.78171028 12 0 C10.515 2.475 10.515 2.475 9 5 C3.06 4.01 3.06 4.01 -3 3 C-2.01 2.01 -1.02 1.02 0 0 Z " fill="#DEE6EC" transform="translate(124,93)"/>
<path d="M0 0 C5.29158974 1.40071493 7.77478044 4.85487245 11 9 C7.34140712 9 6.05403361 7.72246476 3.36328125 5.37890625 C1.75098025 3.74812615 0.79568834 2.14835851 0 0 Z " fill="#13539B" transform="translate(193,135)"/>
<path d="M0 0 C-0.66 0.61875 -1.32 1.2375 -2 1.875 C-4.2284549 3.75637427 -4.2284549 3.75637427 -4 6 C-5.65 6.33 -7.3 6.66 -9 7 C-9 4.69 -9 2.38 -9 0 C-5.52176885 -1.15941038 -3.54104422 -0.70820884 0 0 Z " fill="#909CCC" transform="translate(185,120)"/>
<path d="M0 0 C0 3 0 3 -1.53125 4.60546875 C-2.1809375 5.12753906 -2.830625 5.64960938 -3.5 6.1875 C-4.1496875 6.71730469 -4.799375 7.24710938 -5.46875 7.79296875 C-5.9740625 8.19128906 -6.479375 8.58960938 -7 9 C-7.33 8.01 -7.66 7.02 -8 6 C-5.51047079 3.33264727 -3.36591866 1.44253657 0 0 Z " fill="#2D65A7" transform="translate(220,134)"/>
<path d="M0 0 C1.9451 2.91765 2.45276317 4.62537285 3 8 C1.3125 9.625 1.3125 9.625 -1 11 C-3.75 10.1875 -3.75 10.1875 -6 9 C-3 7 -3 7 1 7 C0.67 4.69 0.34 2.38 0 0 Z " fill="#CED2E8" transform="translate(153,113)"/>
<path d="M0 0 C2.31 0.66 4.62 1.32 7 2 C7.33 3.32 7.66 4.64 8 6 C7.34 6 6.68 6 6 6 C6 5.34 6 4.68 6 4 C2.04 4 -1.92 4 -6 4 C-5.34 3.34 -4.68 2.68 -4 2 C-1.375 2.375 -1.375 2.375 1 3 C0.67 2.01 0.34 1.02 0 0 Z " fill="#DBE4F0" transform="translate(194,175)"/>
<path d="M0 0 C-0.33 1.32 -0.66 2.64 -1 4 C-1.66 4 -2.32 4 -3 4 C-3.66 5.98 -4.32 7.96 -5 10 C-7 8 -7 8 -7.375 5.5625 C-7 3 -7 3 -5.1875 1.1875 C-3 0 -3 0 0 0 Z " fill="#DBE4EF" transform="translate(179,167)"/>
<path d="M0 0 C0.66 0.33 1.32 0.66 2 1 C0.87895467 2.31587941 -0.24696965 3.62760353 -1.375 4.9375 C-2.00148437 5.66839844 -2.62796875 6.39929688 -3.2734375 7.15234375 C-5 9 -5 9 -7 10 C-6.16834689 6.11895214 -5.43938064 2.94459355 -2 0.6875 C-1.34 0.460625 -0.68 0.23375 0 0 Z " fill="#DAE4EF" transform="translate(211,143)"/>
<path d="M0 0 C0.515625 0.268125 1.03125 0.53625 1.5625 0.8125 C4.66401415 2.32349407 7.82262806 3.65572726 11 5 C9.6875 6.5 9.6875 6.5 8 8 C7.01 8 6.02 8 5 8 C3.09122416 5.41753857 1.43622754 2.87245509 0 0 Z " fill="#E8EEF4" transform="translate(140,169)"/>
<path d="M0 0 C0.33 0 0.66 0 1 0 C1 3.3 1 6.6 1 10 C1.99 10 2.98 10 4 10 C4.33 9.34 4.66 8.68 5 8 C4.67 9.32 4.34 10.64 4 12 C1.69 12 -0.62 12 -3 12 C-3 11.34 -3 10.68 -3 10 C-2.01 10 -1.02 10 0 10 C0 6.7 0 3.4 0 0 Z " fill="#E1E3F1" transform="translate(134,111)"/>
<path d="M0 0 C2.31 0.33 4.62 0.66 7 1 C6.34 2.65 5.68 4.3 5 6 C3.68 5.67 2.36 5.34 1 5 C0.67 3.35 0.34 1.7 0 0 Z " fill="#3E72AE" transform="translate(206,133)"/>
<path d="M0 0 C1.32 0.33 2.64 0.66 4 1 C2.74464015 4.76607955 1.47116415 5.26441793 -2 7 C-2.99 7 -3.98 7 -5 7 C-4.54625 6.5875 -4.0925 6.175 -3.625 5.75 C-1.94049626 3.93591905 -1.00734029 2.24714373 0 0 Z " fill="#2E5CA3" transform="translate(172,106)"/>
<path d="M0 0 C1.45922693 0.11409593 2.91740598 0.24165544 4.375 0.375 C5.59316406 0.47941406 5.59316406 0.47941406 6.8359375 0.5859375 C9 1 9 1 11 3 C3.43365385 3.37211538 3.43365385 3.37211538 1.23828125 1.48828125 C0.82964844 0.99714844 0.42101562 0.50601563 0 0 Z " fill="#0B4C98" transform="translate(175,188)"/>
<path d="M0 0 C0.33 0 0.66 0 1 0 C1.33 4.29 1.66 8.58 2 13 C1.01 12.67 0.02 12.34 -1 12 C-2.76776276 7.74256089 -1.2040323 4.24952578 0 0 Z " fill="#C1D2E5" transform="translate(132,165)"/>
<path d="M0 0 C5.57142857 5.14285714 5.57142857 5.14285714 6 9 C5.01 9.495 5.01 9.495 4 10 C3.32845067 8.71086513 2.66291141 7.41859796 2 6.125 C1.62875 5.40570313 1.2575 4.68640625 0.875 3.9453125 C0 2 0 2 0 0 Z " fill="#1A589E" transform="translate(190,82)"/>
<path d="M0 0 C-0.8125 2.4375 -0.8125 2.4375 -2 5 C-2.99 5.33 -3.98 5.66 -5 6 C-5.33 4.35 -5.66 2.7 -6 1 C-3.92446352 0.4465236 -2.15634036 0 0 0 Z " fill="#EFF3F8" transform="translate(155,194)"/>
<path d="M0 0 C0.99 0.33 1.98 0.66 3 1 C2.6189482 3.76262553 2.16402868 4.84143894 0.125 6.8125 C-0.57625 7.204375 -1.2775 7.59625 -2 8 C-2.99 7.67 -3.98 7.34 -5 7 C-4.0409375 6.1028125 -4.0409375 6.1028125 -3.0625 5.1875 C-0.79689611 3.09189663 -0.79689611 3.09189663 0 0 Z " fill="#D5E0EC" transform="translate(142,186)"/>
<path d="M0 0 C0.99 0 1.98 0 3 0 C3 2.64 3 5.28 3 8 C2.34 8 1.68 8 1 8 C0.67 5.36 0.34 2.72 0 0 Z " fill="#2D5DA4" transform="translate(151,144)"/>
<path d="M0 0 C0.99 0.33 1.98 0.66 3 1 C3.59732819 3.76264289 4 6.16032769 4 9 C3.01 9.33 2.02 9.66 1 10 C0.67 6.7 0.34 3.4 0 0 Z " fill="#365DA5" transform="translate(155,119)"/>
<path d="M0 0 C1.65 0 3.3 0 5 0 C4.67 0.99 4.34 1.98 4 3 C0.9375 4.1875 0.9375 4.1875 -2 5 C-1.34 3.35 -0.68 1.7 0 0 Z " fill="#2962A5" transform="translate(395,100)"/>
<path d="M0 0 C0.66 1.32 1.32 2.64 2 4 C-0.875 4.125 -0.875 4.125 -4 4 C-4.66 3.34 -5.32 2.68 -6 2 C-4.02 1.34 -2.04 0.68 0 0 Z " fill="#C9D7E8" transform="translate(168,189)"/>
<path d="M0 0 C2 3 2 3 1.625 6.1875 C1.41875 7.115625 1.2125 8.04375 1 9 C0.34 9 -0.32 9 -1 9 C-1.80967438 6.08517222 -2.21845993 4.53886783 -1.0625 1.6875 C-0.711875 1.130625 -0.36125 0.57375 0 0 Z " fill="#5684B8" transform="translate(180,176)"/>
<path d="M0 0 C2.97 0.495 2.97 0.495 6 1 C5.67 2.32 5.34 3.64 5 5 C2.525 4.01 2.525 4.01 0 3 C0 2.01 0 1.02 0 0 Z " fill="#5C87BA" transform="translate(105,146)"/>
<path d="M0 0 C2.64 0 5.28 0 8 0 C7.67 0.99 7.34 1.98 7 3 C4.36 2.67 1.72 2.34 -1 2 C-0.67 1.34 -0.34 0.68 0 0 Z " fill="#BCC2E0" transform="translate(145,106)"/>
<path d="M0 0 C0.99 0 1.98 0 3 0 C3 0.66 3 1.32 3 2 C3.66 2.33 4.32 2.66 5 3 C4.67 4.32 4.34 5.64 4 7 C0 2.25 0 2.25 0 0 Z " fill="#6891C0" transform="translate(192,96)"/>
<path d="M0 0 C1.9375 0.75 1.9375 0.75 4 2 C4.75 4.125 4.75 4.125 5 6 C3.02 5.01 1.04 4.02 -1 3 C-0.67 2.01 -0.34 1.02 0 0 Z " fill="#EEF2F7" transform="translate(107,149)"/>
<path d="M0 0 C1.1875 1.5625 1.1875 1.5625 2 4 C0.625 7.75 0.625 7.75 -1 11 C-1.33 11 -1.66 11 -2 11 C-1.125 3.375 -1.125 3.375 0 0 Z " fill="#12519B" transform="translate(205,142)"/>
<path d="M0 0 C1.32 0 2.64 0 4 0 C4 1.98 4 3.96 4 6 C2.68 5.34 1.36 4.68 0 4 C0 2.68 0 1.36 0 0 Z " fill="#8190C5" transform="translate(157,122)"/>
<path d="M0 0 C0.66 0 1.32 0 2 0 C2 2.97 2 5.94 2 9 C1.34 8.67 0.68 8.34 0 8 C-0.6875 4.5 -0.6875 4.5 -1 1 C-0.67 0.67 -0.34 0.34 0 0 Z " fill="#BFC6E1" transform="translate(142,97)"/>
<path d="M0 0 C0.66 0 1.32 0 2 0 C3.6875 1.8125 3.6875 1.8125 5 4 C4.67 4.99 4.34 5.98 4 7 C2 5.75 2 5.75 0 4 C0 2.68 0 1.36 0 0 Z " fill="#F4F7FA" transform="translate(132,161)"/>
<path d="M0 0 C0.66 0.66 1.32 1.32 2 2 C1.625 4.625 1.625 4.625 1 7 C0.01 6.01 -0.98 5.02 -2 4 C-1 1 -1 1 0 0 Z " fill="#5B87B9" transform="translate(119,160)"/>
<path d="M0 0 C0.99 0.33 1.98 0.66 3 1 C3.6875 3.0625 3.6875 3.0625 4 5 C2.02 5.99 2.02 5.99 0 7 C0 4.69 0 2.38 0 0 Z " fill="#507FB5" transform="translate(200,150)"/>
<path d="M0 0 C0 0.66 0 1.32 0 2 C-2.31 2 -4.62 2 -7 2 C-7 1.34 -7 0.68 -7 0 C-4.3333581 -1.33332095 -2.83319697 -0.67102033 0 0 Z " fill="#86A7CC" transform="translate(393,146)"/>
<path d="M0 0 C0.99 0.66 1.98 1.32 3 2 C2.34 3.98 1.68 5.96 1 8 C0.67 8 0.34 8 0 8 C-0.66 5.69 -1.32 3.38 -2 1 C-1.34 0.67 -0.68 0.34 0 0 Z " fill="#EBEBF6" transform="translate(142,105)"/>
</svg>
