<?xml version="1.0" encoding="UTF-8"?>
<svg version="1.1" xmlns="http://www.w3.org/2000/svg" width="500" height="500">
<path d="M0 0 C7.95630109 5.48909138 14.70804042 12.42731856 21.47827148 19.27246094 C23.19004679 21.00257408 24.90977086 22.72446856 26.63085938 24.4453125 C31.80747717 29.63939584 36.9140569 34.83597242 41.6262207 40.46289062 C43.16976401 42.26532154 43.16976401 42.26532154 46 44.5 C49.075665 47.06305416 51.49377562 49.79241708 54.0859375 52.82421875 C59.15173123 58.58268223 64.64384466 63.87915934 70.62280273 68.6784668 C72.64410956 70.65244304 73.90031193 72.28562665 75.41137695 74.62011719 C79.32848232 80.24709058 83.29439819 85.05567395 90.16220093 86.80584717 C98.55483479 87.83558681 106.99575925 87.53736428 115.42529297 87.2020874 C120.23913915 87.02322509 125.05538505 86.94552788 129.87194824 86.8822937 C132.4257882 86.84180308 134.97937632 86.77094795 137.53137207 86.665802 C147.09772107 86.42761869 147.09772107 86.42761869 150.69287109 89.29443359 C154.0317205 93.20989699 154.0317205 93.20989699 155.1328125 95.46875 C155.45717285 96.11054199 155.7815332 96.75233398 156.11572266 97.41357422 C156.61531494 98.44635498 156.61531494 98.44635498 157.125 99.5 C157.90294545 101.03553282 158.68435766 102.5693129 159.46875 104.1015625 C159.87867188 104.9049707 160.28859375 105.70837891 160.7109375 106.53613281 C162.89799614 110.71639718 165.26355787 114.79149397 167.625 118.875 C172.2457337 126.89481729 176.7711744 134.96260821 181.25 143.0625 C187.39952669 154.17740824 193.66252862 165.22336551 199.98535156 176.24047852 C200.62698242 177.35865967 201.26861328 178.47684082 201.9296875 179.62890625 C202.49929199 180.61963135 203.06889648 181.61035645 203.65576172 182.63110352 C205.63649982 186.12167776 206.1264146 187.96429135 206.13422108 191.97980976 C206.13867892 193.03966062 206.14313676 194.09951148 206.14772969 195.19147903 C206.14745315 196.95189703 206.14745315 196.95189703 206.14717102 198.74787903 C206.15084771 199.98745997 206.1545244 201.2270409 206.1583125 202.5041849 C206.16745201 205.9561049 206.17205179 209.4079773 206.17470181 212.85990489 C206.1786002 216.57848072 206.18817881 220.29704272 206.19691467 224.01560974 C206.21669166 233.00115488 206.22674659 241.98670118 206.23564246 250.97226265 C206.2400231 255.20097317 206.24539047 259.42968243 206.25063133 263.65839195 C206.2676444 277.71067069 206.28213957 291.76294864 206.28938007 305.81523609 C206.29129005 309.46316847 206.29321037 313.11110085 206.29516602 316.7590332 C206.29564976 317.66573754 206.2961335 318.57244187 206.2966319 319.5066221 C206.30493594 334.2015707 206.33027881 348.89643799 206.36274669 363.59135107 C206.3957898 378.66919564 206.41382632 393.74699885 206.41702431 408.82487983 C206.4191919 417.29427772 206.42797685 425.76355703 206.45348549 434.23291969 C206.47515495 441.44436465 206.48326148 448.65566222 206.47351871 455.86713604 C206.46896311 459.5477939 206.47093274 463.22814745 206.49028015 466.90876389 C206.51106058 470.89636018 206.50096153 474.88353354 206.48774719 478.87117004 C206.50420106 480.6215498 206.50420106 480.6215498 206.52098733 482.40729076 C206.45831454 490.20532804 206.45831454 490.20532804 204.1570158 494.19555187 C200.14050646 497.55555635 196.02700588 497.14284805 191.05478096 497.13142776 C190.2322678 497.1334804 189.40975464 497.13553303 188.56231683 497.13764787 C185.78234398 497.14334118 183.00242031 497.14185776 180.22244263 497.14044189 C178.21876336 497.14302419 176.21508462 497.14603696 174.21140659 497.1494453 C168.68667026 497.15753437 163.16194691 497.15930592 157.63720536 497.16004276 C151.68618307 497.16188998 145.73516756 497.16943558 139.78414917 497.17617798 C126.08455347 497.19048408 112.38495872 497.19628931 98.68535725 497.20086992 C91.91816312 497.20320478 85.15096983 497.20680728 78.38377636 497.2105653 C55.2268761 497.22340081 32.06997632 497.23412058 8.91307259 497.2375679 C7.45913734 497.23778954 6.00520209 497.23801132 4.55126684 497.23823325 C3.09378894 497.23845389 1.63631103 497.23867438 0.17883313 497.2388947 C-2.74519849 497.23933726 -5.6692301 497.23978437 -8.59326172 497.24023438 C-9.31825281 497.24034377 -10.04324391 497.24045316 -10.79020443 497.24056586 C-34.30709997 497.24419788 -57.82396471 497.26012336 -81.34084845 497.28342474 C-106.19441811 497.30800561 -131.04797015 497.3217399 -155.90155232 497.32293582 C-158.62835956 497.32310728 -161.35516679 497.32332271 -164.08197403 497.32357025 C-164.75340855 497.32362602 -165.42484306 497.32368179 -166.11662408 497.32373925 C-176.93409429 497.32489114 -187.75153294 497.33592473 -198.56899248 497.35045731 C-209.43585731 497.36480416 -220.30267965 497.36781646 -231.16955124 497.36001733 C-237.05970634 497.35609854 -242.94975501 497.35710016 -248.83989716 497.37107468 C-254.22729953 497.38373998 -259.6145147 497.38268137 -265.00191654 497.37048396 C-266.9554713 497.36851412 -268.90903898 497.37166418 -270.86257552 497.38032833 C-273.50964689 497.39132919 -276.15604679 497.38399842 -278.80309868 497.3719368 C-279.95167759 497.38332959 -279.95167759 497.38332959 -281.12346011 497.39495254 C-285.58140325 497.35083321 -288.51308376 496.8499382 -292 494 C-294.08433722 490.99526384 -294.25921741 488.45938639 -294.29078865 484.85395813 C-294.30463793 483.80779264 -294.31848721 482.76162716 -294.33275616 481.68375969 C-294.33784439 480.53555307 -294.34293263 479.38734646 -294.34817505 478.2043457 C-294.36117295 476.98336748 -294.37417085 475.76238926 -294.38756263 474.5044117 C-294.42131753 471.11280743 -294.44603949 467.72135995 -294.466676 464.32966495 C-294.48596594 461.42033203 -294.51258529 458.51108435 -294.53921391 455.60181075 C-294.63440562 445.17216922 -294.69974829 434.74240618 -294.7578125 424.3125 C-294.76242766 423.48782384 -294.76704282 422.66314768 -294.77179784 421.81348133 C-294.86278949 405.41017208 -294.93974115 389.00680807 -294.99325752 372.60333252 C-295.00523429 368.99580822 -295.0174057 365.38828466 -295.02978516 361.78076172 C-295.03285112 360.88421214 -295.03591708 359.98766256 -295.03907596 359.06394482 C-295.09031927 344.59426875 -295.20390225 330.12577041 -295.34271576 315.65669763 C-295.48436602 300.76741189 -295.56423421 285.87873017 -295.58675659 270.98878193 C-295.60098787 262.64246482 -295.64165522 254.29818499 -295.75281143 245.95254517 C-295.84759488 238.83129767 -295.8859044 231.7123935 -295.85504843 224.59053904 C-295.84102279 220.96797902 -295.85087316 217.35040972 -295.9342041 213.72867012 C-296.39796596 192.46642281 -291.40422016 179.05612204 -279.83743262 161.78462791 C-277.50020491 158.24256088 -275.47111827 154.60901255 -273.46484375 150.87109375 C-272.87123047 149.79085937 -272.27761719 148.710625 -271.66601562 147.59765625 C-271.09560547 146.55480469 -270.52519531 145.51195312 -269.9375 144.4375 C-269.2848378 143.24981717 -268.63183139 142.06232344 -267.97851562 140.875 C-266.64753523 138.45597191 -265.31725269 136.03656339 -263.98779297 133.61669922 C-260.66677584 127.57322157 -257.33733675 121.53448064 -254 115.5 C-253.413396 114.43322021 -252.82679199 113.36644043 -252.22241211 112.26733398 C-249.1739922 106.76116604 -246.05223642 101.3019071 -242.8125 95.90625 C-242.17957031 94.84728516 -241.54664063 93.78832031 -240.89453125 92.69726562 C-239.04046143 90.05760539 -237.72369845 88.66698187 -235 87 C-232.88118649 86.84708405 -232.88118649 86.84708405 -230.55979919 87.15979004 C-229.67313883 87.26741039 -228.78647846 87.37503075 -227.8729496 87.48591232 C-226.9048152 87.61753391 -225.93668079 87.7491555 -224.93920898 87.88476562 C-222.8012976 88.13653434 -220.66281752 88.383507 -218.52388 88.62640381 C-217.38283625 88.75730156 -216.24179249 88.88819931 -215.06617165 89.02306366 C-203.55706841 90.25836756 -191.99750276 90.95095436 -180.4375 91.5 C-179.768086 91.53202578 -179.09867201 91.56405155 -178.40897274 91.59704781 C-143.79064269 93.18013872 -115.17269239 90.58925241 -88.45982146 66.28555298 C-72.05101365 51.13655929 -57.27096568 33.84738141 -43.63529968 16.19439697 C-42.97614091 15.34510872 -42.31698214 14.49582047 -41.63784885 13.6207962 C-40.43066171 12.05217766 -39.2379769 10.47222384 -38.06433773 8.8783493 C-28.89240588 -3.10951435 -13.70057547 -6.7865048 0 0 Z M-160 253 C-160.99 254.98 -161.98 256.96 -163 259 C-177.05230658 267.43138395 -195.61656597 262.62764923 -212 263 C-212 313.16 -212 363.32 -212 415 C-186.73179687 415.07347656 -186.73179687 415.07347656 -160.953125 415.1484375 C-150.30728641 415.18380573 -139.66145343 415.21967359 -129.015625 415.2578125 C-123.42513074 415.27782111 -117.83463606 415.29770566 -112.24414062 415.31738281 C-111.54344483 415.31985425 -110.84274904 415.32232569 -110.12082005 415.32487202 C-98.80260831 415.36461174 -87.48438658 415.39734489 -76.16614571 415.42749982 C-64.55408843 415.45859313 -52.94207551 415.49734187 -41.33006549 415.54279006 C-34.80630097 415.56807971 -28.28256665 415.58985372 -21.75876617 415.60334396 C-15.62258018 415.6161419 -9.48649764 415.63817181 -3.3503685 415.66738319 C-1.09447979 415.67647673 1.1614256 415.68215332 3.4173317 415.68421364 C6.49015196 415.68752362 9.56267663 415.70296689 12.63543701 415.7215271 C13.53426755 415.71959237 14.43309808 415.71765763 15.35916591 415.71566427 C16.18224467 415.72312976 17.00532342 415.73059525 17.85334396 415.73828697 C18.56266154 415.74056529 19.27197912 415.74284362 20.00279117 415.74519098 C22.56452172 416.07202313 23.89819972 416.45101594 26 418 C26.99 420.31 27.98 422.62 29 425 C34.94 425 40.88 425 47 425 C48.32 422.69 49.64 420.38 51 418 C54.14993714 415.5850482 57.11623117 415.6763526 61 416 C63.125 416.5625 63.125 416.5625 65 418 C66.98 421.465 66.98 421.465 69 425 C74.94 425 80.88 425 87 425 C88.485 421.535 88.485 421.535 90 418 C100.17622501 412.91188749 112.62895005 415.379035 124 415 C124 364.84 124 314.68 124 263 C108.32113281 262.96261719 92.64226562 262.92523438 76.48828125 262.88671875 C66.57616291 262.85645542 56.66405643 262.82544103 46.75195312 262.79101562 C31.00692807 262.73647265 15.26193598 262.68506245 -0.4831543 262.65356445 C-11.94894541 262.63061308 -23.41465043 262.59724711 -34.8803733 262.55129844 C-40.95314145 262.52732767 -47.02582413 262.50862414 -53.09863853 262.50238609 C-58.81217455 262.49635271 -64.52549178 262.47641605 -70.23894691 262.44572449 C-72.33799345 262.43691623 -74.43706854 262.43322742 -76.53613281 262.43499184 C-79.39854457 262.43663851 -82.26028457 262.41999699 -85.12260437 262.39872742 C-86.37309815 262.40599878 -86.37309815 262.40599878 -87.64885443 262.41341704 C-92.21123869 262.35733699 -95.40880566 262.11535196 -99 259 C-99.99 257.02 -100.98 255.04 -102 253 C-108.27 253 -114.54 253 -121 253 C-121.66 255.31 -122.32 257.62 -123 260 C-127.43604192 262.47593037 -131.14729649 262.19028577 -136 261 C-139.22924784 258.77293252 -139.42563086 256.93592284 -141 253 C-147.27 253 -153.54 253 -160 253 Z " fill="#040201" transform="translate(294,3)"/>
<path d="M0 0 C151.8 0 303.6 0 460 0 C460 91.41 460 182.82 460 277 C308.2 277 156.4 277 0 277 C0 185.59 0 94.18 0 0 Z M114 53 C113.01 54.98 112.02 56.96 111 59 C96.94769342 67.43138395 78.38343403 62.62764923 62 63 C62 113.16 62 163.32 62 215 C87.26820312 215.07347656 87.26820312 215.07347656 113.046875 215.1484375 C123.69271359 215.18380573 134.33854657 215.21967359 144.984375 215.2578125 C150.57486926 215.27782111 156.16536394 215.29770566 161.75585938 215.31738281 C162.45655517 215.31985425 163.15725096 215.32232569 163.87917995 215.32487202 C175.19739169 215.36461174 186.51561342 215.39734489 197.83385429 215.42749982 C209.44591157 215.45859313 221.05792449 215.49734187 232.66993451 215.54279006 C239.19369903 215.56807971 245.71743335 215.58985372 252.24123383 215.60334396 C258.37741982 215.6161419 264.51350236 215.63817181 270.6496315 215.66738319 C272.90552021 215.67647673 275.1614256 215.68215332 277.4173317 215.68421364 C280.49015196 215.68752362 283.56267663 215.70296689 286.63543701 215.7215271 C287.53426755 215.71959237 288.43309808 215.71765763 289.35916591 215.71566427 C290.18224467 215.72312976 291.00532342 215.73059525 291.85334396 215.73828697 C292.56266154 215.74056529 293.27197912 215.74284362 294.00279117 215.74519098 C296.56452172 216.07202313 297.89819972 216.45101594 300 218 C300.99 220.31 301.98 222.62 303 225 C308.94 225 314.88 225 321 225 C322.32 222.69 323.64 220.38 325 218 C328.14993714 215.5850482 331.11623117 215.6763526 335 216 C337.125 216.5625 337.125 216.5625 339 218 C340.98 221.465 340.98 221.465 343 225 C348.94 225 354.88 225 361 225 C362.485 221.535 362.485 221.535 364 218 C374.17622501 212.91188749 386.62895005 215.379035 398 215 C398 164.84 398 114.68 398 63 C382.32113281 62.96261719 366.64226562 62.92523438 350.48828125 62.88671875 C340.57616291 62.85645542 330.66405643 62.82544103 320.75195312 62.79101562 C305.00692807 62.73647265 289.26193598 62.68506245 273.5168457 62.65356445 C262.05105459 62.63061308 250.58534957 62.59724711 239.1196267 62.55129844 C233.04685855 62.52732767 226.97417587 62.50862414 220.90136147 62.50238609 C215.18782545 62.49635271 209.47450822 62.47641605 203.76105309 62.44572449 C201.66200655 62.43691623 199.56293146 62.43322742 197.46386719 62.43499184 C194.60145543 62.43663851 191.73971543 62.41999699 188.87739563 62.39872742 C187.62690185 62.40599878 187.62690185 62.40599878 186.35114557 62.41341704 C181.78876131 62.35733699 178.59119434 62.11535196 175 59 C174.01 57.02 173.02 55.04 172 53 C165.73 53 159.46 53 153 53 C152.34 55.31 151.68 57.62 151 60 C146.56395808 62.47593037 142.85270351 62.19028577 138 61 C134.77075216 58.77293252 134.57436914 56.93592284 133 53 C126.73 53 120.46 53 114 53 Z " fill="#FCB854" transform="translate(20,203)"/>
<path d="M0 0 C1.91438076 0.08678847 3.82867694 0.17546006 5.7428894 0.2658844 C7.72389359 0.29763462 9.70503227 0.32181326 11.68621826 0.33877563 C16.87504551 0.40337197 22.05564407 0.57000334 27.24124146 0.75874329 C32.54274125 0.93338164 37.845586 1.01044126 43.1491394 1.09596252 C53.53554763 1.27771386 63.91587557 1.56740597 74.2975769 1.92604065 C69.3723903 12.25564395 58.2650928 24.1054583 48.2975769 29.92604065 C40.27729922 32.48556911 32.11726382 32.03580575 23.84933472 30.98805237 C20.9758088 30.91822118 19.65850487 31.31913647 17.2975769 32.92604065 C15.16171012 36.12984082 15.06625516 36.94544032 15.1725769 40.61354065 C15.19062378 41.42178284 15.20867065 42.23002502 15.2272644 43.0627594 C15.25046753 43.67764221 15.27367065 44.29252502 15.2975769 44.92604065 C16.7825769 45.42104065 16.7825769 45.42104065 18.2975769 45.92604065 C18.2975769 46.58604065 18.2975769 47.24604065 18.2975769 47.92604065 C57.06762911 48.04043392 95.83765593 48.12856301 134.60784269 48.1813673 C139.18288784 48.18762098 143.75793265 48.19409258 148.33297729 48.20069885 C149.24380325 48.2020104 150.1546292 48.20332196 151.09305594 48.20467325 C165.84957638 48.22644195 180.60599962 48.26587152 195.36246236 48.31180463 C210.49899655 48.35852856 225.63547976 48.38632744 240.7720831 48.39648312 C250.11554316 48.40335073 259.45872852 48.42505708 268.80210403 48.46562298 C275.20538546 48.49201123 281.60852446 48.50005057 288.01185634 48.49354754 C291.70877575 48.49033848 295.40521449 48.49532767 299.10204887 48.52206802 C303.10745727 48.55082934 307.11183704 48.54100546 311.11732483 48.52731323 C312.28949985 48.54187744 313.46167488 48.55644165 314.66937035 48.57144719 C321.14771617 48.68016327 321.14771617 48.68016327 326.52832508 45.55569744 C328.53289735 42.5762815 328.84633375 41.15739334 328.6100769 37.61354065 C328.56495972 36.73053284 328.51984253 35.84752502 328.47335815 34.9377594 C328.41535034 34.27389221 328.35734253 33.61002502 328.2975769 32.92604065 C323.64632857 30.58604811 319.36799417 30.58304925 314.27804565 30.51197815 C312.99018913 30.48292892 312.99018913 30.48292892 311.67631531 30.45329285 C308.94600216 30.39372509 306.21564633 30.34720331 303.4850769 30.30104065 C301.62893918 30.26283986 299.77281878 30.2237869 297.91671753 30.18385315 C293.37714546 30.08804238 288.83749044 30.00392744 284.2975769 29.92604065 C285.25049642 28.8089815 286.20417573 27.69257047 287.15817261 26.57643127 C287.68917068 25.95466003 288.22016876 25.33288879 288.76725769 24.692276 C290.62063801 22.55317599 292.55252612 20.49359997 294.4850769 18.42604065 C299.18494703 13.15214059 300.89919142 8.91796808 302.2975769 1.92604065 C317.8075769 1.92604065 333.3175769 1.92604065 349.2975769 1.92604065 C356.48895753 14.44436989 363.57902398 27.00788056 370.55392456 39.64796448 C373.75753655 45.43104926 377.00547386 51.18107518 380.36398315 56.8752594 C381.3387561 58.5288446 381.3387561 58.5288446 382.33322144 60.21583557 C383.57669524 62.31473634 384.82613284 64.41011832 386.08224487 66.5014801 C386.63670288 67.43564758 387.19116089 68.36981506 387.76242065 69.33229065 C388.2534729 70.15020081 388.74452515 70.96811096 389.25045776 71.81080627 C390.2975769 73.92604065 390.2975769 73.92604065 390.2975769 76.92604065 C243.1175769 76.92604065 95.9375769 76.92604065 -55.7024231 76.92604065 C-54.84741525 72.65100141 -54.24437632 70.75377155 -52.10476685 67.20729065 C-51.55852661 66.28955872 -51.01228638 65.37182678 -50.44949341 64.42628479 C-49.5537561 62.94116394 -49.5537561 62.94116394 -48.6399231 61.42604065 C-47.35951341 59.27030665 -46.08230654 57.1126679 -44.80789185 54.9533844 C-44.30813339 54.10664406 -44.30813339 54.10664406 -43.79827881 53.24279785 C-39.20966196 45.43276877 -34.89286443 37.47050806 -30.56155396 29.5158844 C-29.33906818 27.27946298 -28.09466517 25.05484196 -26.82563782 22.84449768 C-25.30769042 20.14351534 -24.04166965 17.42294687 -22.84460449 14.56642151 C-17.59368181 2.90400061 -12.7171609 -0.2127835 0 0 Z " fill="#F8D698" transform="translate(82.70242309570313,107.07395935058594)"/>
<path d="M0 0 C10.09505228 2.89098254 20.49207656 17.61539336 27.7890625 24.95922852 C29.1462478 26.32144343 30.50366821 27.68342414 31.86132812 29.04516602 C34.34691125 31.53884303 36.83115146 34.0338402 39.3137207 36.53051758 C42.02989565 39.26154822 44.75174905 41.9868125 47.4765625 44.70922852 C48.52674039 45.75931104 49.57686693 46.80944492 50.62695312 47.85961914 C51.19103882 48.42370483 51.75512451 48.98779053 52.33630371 49.56896973 C59.33292643 56.56559245 66.32954915 63.56221517 73.32617188 70.55883789 C73.86056885 71.09307373 74.39496582 71.62730957 74.94555664 72.17773438 C76.38998841 73.62262681 77.83274337 75.06919496 79.27539062 76.51586914 C80.61453681 77.85026237 81.96951652 79.16931894 83.3515625 80.45922852 C85.21661136 84.18932624 84.51795844 87.76325886 83.4765625 91.70922852 C81.7265625 94.45922852 81.7265625 94.45922852 79.4765625 96.70922852 C78.7134375 97.51360352 77.9503125 98.31797852 77.1640625 99.14672852 C75.18149252 101.03708594 73.20566621 102.78007668 71.1015625 104.52172852 C67.69592665 107.39080905 64.83119803 110.58110052 61.95703125 113.97485352 C58.79084022 117.68405884 58.79084022 117.68405884 55.40372276 117.95532417 C54.05737157 117.96377413 52.71092438 117.96096735 51.36459351 117.94973755 C50.62376168 117.9514464 49.88292985 117.95315525 49.11964858 117.95491588 C46.62442802 117.95822368 44.12947333 117.94718606 41.63427734 117.9362793 C39.85075385 117.93571546 38.06722989 117.9360312 36.28370667 117.93716431 C31.43063373 117.9377399 26.57765895 117.92595227 21.7246089 117.91201639 C16.65703798 117.89954335 11.589465 117.89834125 6.5218811 117.89596558 C-3.07934281 117.88974071 -12.68052137 117.87331631 -22.28172529 117.8532666 C-33.21021519 117.83093887 -44.13870723 117.81992205 -55.06721425 117.80987573 C-77.55264718 117.78895093 -100.0380398 117.75375544 -122.5234375 117.70922852 C-122.5234375 117.04922852 -122.5234375 116.38922852 -122.5234375 115.70922852 C-121.125 114.33422852 -121.125 114.33422852 -119.1484375 112.70922852 C-113.98376015 108.32429819 -109.27588796 103.53145394 -104.5234375 98.70922852 C-103.66105469 97.85586914 -102.79867187 97.00250977 -101.91015625 96.12329102 C-100.01326899 94.20467182 -98.24427696 92.28205786 -96.5234375 90.20922852 C-93.97970035 87.21312574 -91.42278452 84.36696328 -88.5234375 81.70922852 C-87.8634375 81.70922852 -87.2034375 81.70922852 -86.5234375 81.70922852 C-86.5234375 81.04922852 -86.5234375 80.38922852 -86.5234375 79.70922852 C-85.8634375 79.70922852 -85.2034375 79.70922852 -84.5234375 79.70922852 C-84.5234375 79.04922852 -84.5234375 78.38922852 -84.5234375 77.70922852 C-83.11401367 76.32104492 -83.11401367 76.32104492 -81.12890625 74.68579102 C-76.0983945 70.40747426 -71.47927793 65.77521175 -66.8359375 61.08422852 C-66.00771484 60.25149414 -65.17949219 59.41875977 -64.32617188 58.56079102 C-62.74316036 56.96890753 -61.1614567 55.375722 -59.58129883 53.78100586 C-57.91404591 52.10247836 -56.23749895 50.43459053 -54.5546875 48.77172852 C-52.46674276 46.73799638 -52.46674276 46.73799638 -50.7109375 44.33422852 C-48.90282008 42.16448761 -47.25946858 40.57151558 -45.12109375 38.77172852 C-39.95152901 34.29319444 -35.1362245 29.47243844 -30.31298828 24.62915039 C-28.76577667 23.07654096 -27.21324023 21.52939891 -25.66015625 19.98266602 C-24.66113727 18.98298676 -23.66242826 17.98299763 -22.6640625 16.98266602 C-21.77235352 16.0898291 -20.88064453 15.19699219 -19.96191406 14.27709961 C-17.65813768 11.85107638 -15.57863092 9.34654342 -13.5234375 6.70922852 C-9.67458354 2.39214414 -6.03926824 -0.62353311 0 0 Z " fill="#FC5C5C" transform="translate(281.5234375,19.290771484375)"/>
<path d="M0 0 C1.68204529 -0.01395813 1.68204529 -0.01395813 3.39807129 -0.02819824 C5.19359436 -0.00360535 5.19359436 -0.00360535 7.02539062 0.02148438 C8.88907288 0.02142395 8.88907288 0.02142395 10.79040527 0.0213623 C14.08307235 0.02808309 17.37452495 0.0580399 20.66693115 0.0970459 C22.67999547 0.11521952 24.69242997 0.11780476 26.70556641 0.11425781 C30.5832903 0.10759751 34.46024421 0.1227229 38.33789062 0.14648438 C40.1334137 0.1467865 40.1334137 0.1467865 41.96520996 0.14709473 C52.39590346 0.29510363 52.39590346 0.29510363 57.18164062 3.61523438 C58.94715447 5.94250263 59.17837246 7.59375789 59.61914062 10.49023438 C58.99998185 14.91279703 57.32613906 16.47073594 54.18164062 19.61523438 C39.31557188 24.57059062 22.85185299 20.61523438 7.18164062 20.61523438 C7.18164062 70.77523437 7.18164062 120.93523437 7.18164062 172.61523438 C24.01550781 172.58042969 40.849375 172.545625 58.19335938 172.50976562 C68.83463679 172.49444369 79.47590624 172.47987837 90.1171875 172.46875 C95.70564805 172.46287629 101.29410835 172.45681482 106.88256836 172.45043945 C107.5830004 172.44964821 108.28343244 172.44885696 109.0050897 172.44804174 C120.31619811 172.43499028 131.62726082 172.41133688 142.93834212 172.38377599 C154.54472175 172.35573122 166.15107472 172.33928467 177.75748664 172.33296889 C184.27741817 172.3290524 190.79724604 172.31982534 197.31714439 172.2980442 C203.45085645 172.27771875 209.58442191 172.27139263 215.71816444 172.27591133 C217.97204001 172.27508437 220.22592035 172.26909541 222.47976685 172.25761795 C225.55230037 172.24273575 228.62427725 172.24626538 231.69682312 172.25447083 C232.59274081 172.2457323 233.48865851 172.23699378 234.41172522 172.22799045 C239.13606436 172.2621926 242.38592923 172.47298936 246.18164062 175.61523438 C247.95613348 179.08706823 248.32358673 180.90550387 247.55664062 184.74023438 C245.9997465 187.99555846 245.10532344 189.47876647 242.18164062 191.61523438 C238.8727172 192.22544355 235.59326156 192.1631017 232.23657227 192.1366272 C231.21508874 192.14427829 230.19360521 192.15192939 229.14116764 192.15981233 C225.70783651 192.18050082 222.27517256 192.1724832 218.84179688 192.16455078 C216.38466775 192.17324213 213.92754406 192.18360746 211.47042847 192.19552612 C205.48309852 192.21956958 199.49603224 192.22460551 193.5086782 192.2199256 C188.64322647 192.21636129 183.77782924 192.2198541 178.91238403 192.22837448 C178.22024057 192.22956486 177.52809712 192.23075524 176.81497961 192.23198169 C175.40895867 192.23440515 174.00293773 192.23683342 172.59691679 192.23926644 C159.40874663 192.26102375 146.22067871 192.2566892 133.03250277 192.24449675 C120.96232561 192.23415483 108.8924711 192.25667719 96.82235777 192.29469319 C84.43272526 192.33341689 72.04324551 192.34996805 59.65355206 192.34244668 C52.6960202 192.33861788 45.73876308 192.34364371 38.78128052 192.37187576 C32.24110484 192.39814568 25.70146996 192.39322914 19.1612587 192.36705399 C16.75699779 192.36230415 14.35269188 192.36785704 11.94848251 192.38430023 C8.67379591 192.40508711 5.40131402 192.38915976 2.12670898 192.36367798 C1.16835176 192.37842655 0.20999453 192.39317512 -0.77740383 192.40837061 C-7.12635863 192.30395067 -7.12635863 192.30395067 -10.4073391 189.03854275 C-12.0179732 185.13094673 -12.32656715 182.31795301 -12.3397522 178.09385681 C-12.34740329 177.35721867 -12.35505439 176.62058052 -12.36293733 175.86162001 C-12.38350305 173.40411603 -12.3756324 170.94755488 -12.36767578 168.48999023 C-12.3763739 166.72383259 -12.3867415 164.95768249 -12.39865112 163.19154358 C-12.42540768 158.40237447 -12.42659157 153.61352122 -12.42152452 148.82429194 C-12.4193842 144.82554319 -12.42915374 140.82685823 -12.43873537 136.82812315 C-12.46091605 127.39635314 -12.46180495 117.96474245 -12.44970703 108.53295898 C-12.43761637 98.80109408 -12.46227911 89.06980667 -12.50484717 79.33804029 C-12.5400577 70.98118493 -12.55208565 62.6245136 -12.54557168 54.26758677 C-12.54194328 49.27681777 -12.54724504 44.28646107 -12.57500076 39.2957592 C-12.60011543 34.60462471 -12.59631143 29.91439263 -12.57017899 25.22327232 C-12.56543949 23.50154061 -12.57094574 21.77974577 -12.58742523 20.0580864 C-12.60830292 17.70754863 -12.59221947 15.36005575 -12.56680298 13.0096283 C-12.56713846 11.69464828 -12.56747395 10.37966825 -12.5678196 9.02484035 C-11.16694247 2.65166816 -6.43211909 -0.01346792 0 0 Z " fill="#010000" transform="translate(74.818359375,245.384765625)"/>
<path d="M0 0 C1.41734897 -0.00958323 1.41734897 -0.00958323 2.86333126 -0.01936007 C6.02576996 -0.03460612 9.18695512 -0.01415075 12.34934998 0.00622559 C14.61795975 0.00272431 16.88656707 -0.00293433 19.15516663 -0.0105896 C25.31420442 -0.02484532 31.47279619 -0.00776835 37.63179135 0.01569557 C44.07434 0.03578946 50.51686986 0.02992581 56.95944214 0.02758789 C67.7778101 0.02764147 78.5959777 0.04728159 89.41429138 0.07946777 C100.5432422 0.11256581 111.67201109 0.12672458 122.80101013 0.1204834 C136.2166078 0.11299688 149.63207717 0.1203675 163.04766655 0.14213562 C168.17077184 0.15031673 173.29383704 0.15301786 178.41694832 0.15144348 C184.44737519 0.15056554 190.47758423 0.16475654 196.50795364 0.19067001 C198.72311408 0.19784141 200.93829768 0.19991078 203.15346718 0.19655228 C206.17318701 0.19284677 209.19226785 0.20755305 212.21191406 0.22705078 C213.53214226 0.21905889 213.53214226 0.21905889 214.87904173 0.21090555 C220.70525942 0.27597485 224.0460379 1.19243925 228.33073521 5.36144447 C230.05145602 8.57078621 229.92332219 11.14881294 229.93014526 14.78170776 C229.93822357 15.86466737 229.93822357 15.86466737 229.94646508 16.96950495 C229.96077532 19.38930775 229.95363357 21.80856587 229.94651794 24.22839355 C229.95221998 25.96307313 229.95918359 27.69774894 229.96731567 29.43241882 C229.98528214 34.14529839 229.98407198 38.85799212 229.97837329 43.57089567 C229.97528601 47.50481913 229.98136886 51.43870665 229.98741204 55.37262499 C230.00146754 64.65384248 229.99988787 73.93496795 229.98851013 83.21618652 C229.97703173 92.79109189 229.99109758 102.36571706 230.01790661 111.94058549 C230.0400606 120.1606695 230.04670155 128.38066553 230.04083019 136.60077727 C230.03745823 141.51047384 230.03989142 146.41999085 230.05708122 151.32966232 C230.07254313 155.94756266 230.06860322 160.565048 230.04977608 165.1829319 C230.04608789 166.87682452 230.04920538 168.57074783 230.05966187 170.2646122 C230.07285863 172.57930157 230.06133747 174.89261448 230.04367065 177.20724487 C230.04346137 178.50177771 230.04325209 179.79631054 230.04303646 181.13007164 C229.45432004 185.23625559 228.12585035 187.41441623 225.54246521 190.62145996 C223.20340558 191.79098978 221.76388284 191.77244732 219.15623474 191.81433105 C218.24834198 191.83039398 217.34044922 191.84645691 216.40504456 191.86300659 C212.2560345 191.90741125 208.1071845 191.94851001 203.95799255 191.97155762 C201.76778042 191.9881329 199.57762272 192.01544337 197.38768005 192.05358887 C194.23325993 192.10826231 191.08010735 192.13021594 187.92527771 192.14489746 C186.94600311 192.16756683 185.96672852 192.19023621 184.95777893 192.21359253 C178.17207192 192.19243789 178.17207192 192.19243789 174.95213318 189.27233887 C173.31436618 186.19252 172.61387622 184.12059961 172.54246521 180.62145996 C174.25077692 175.94608054 174.97608029 174.90465242 179.54246521 172.62145996 C189.44246521 172.62145996 199.34246521 172.62145996 209.54246521 172.62145996 C209.54246521 122.46145996 209.54246521 72.30145996 209.54246521 20.62145996 C193.86359802 20.65626465 178.18473083 20.69106934 162.03074646 20.72692871 C152.11863561 20.74225094 142.20653331 20.75681629 132.29441833 20.76794434 C116.5493528 20.78576252 100.80433533 20.80673753 85.05931091 20.84777832 C73.59357089 20.87765057 62.12786977 20.89702782 50.66209191 20.90372545 C44.58928785 20.90764137 38.51659511 20.91686484 32.44382668 20.93865013 C26.73034899 20.95898085 21.01702871 20.96530064 15.3035183 20.960783 C13.20444764 20.96160973 11.10537182 20.96759559 9.0063324 20.97907639 C6.14398066 20.99396692 3.28222593 20.99042601 0.41986084 20.98222351 C-0.41380168 20.99096204 -1.2474642 20.99970056 -2.10638922 21.00870389 C-6.72805263 20.97282114 -9.6851299 20.58121065 -13.45753479 17.62145996 C-15.97217702 14.60388929 -16.44940585 13.07668047 -16.52003479 9.12145996 C-13.94120969 0.62650668 -7.81766316 -0.1114682 0 0 Z " fill="#000000" transform="translate(208.45753479003906,245.3785400390625)"/>
<path d="M0 0 C7.17303277 4.66489462 11.87015753 11.55806873 14.55566406 19.68066406 C15.1908556 22.99622427 15.20330069 26.29594239 15.23828125 29.66015625 C15.246353 30.40526962 15.25442474 31.150383 15.26274109 31.91807556 C15.27654994 33.49573465 15.28728636 35.07342321 15.29516602 36.65112305 C15.30663257 38.24626575 15.32699921 39.84137171 15.35668945 41.4362793 C15.60877008 54.99652725 14.48068235 65.53457199 4.640625 75.765625 C-2.96636749 82.20231095 -11.65234772 85.37496107 -21.54296875 85.2109375 C-30.67191035 84.42721278 -38.74692823 80.53385709 -45.01171875 73.85546875 C-53.17186191 63.81353157 -54.20505774 54.54564406 -54.24023438 41.92749023 C-54.24989143 39.83601354 -54.28093032 37.74554148 -54.3125 35.65429688 C-54.4180415 22.46867804 -52.23309301 13.75654053 -43.21875 4.08984375 C-31.20656608 -7.50388294 -14.15994983 -8.08845971 0 0 Z M-32 21 C-34.89713868 27.05571345 -34.40711208 33.22507325 -34.4375 39.8125 C-34.47037109 41.05837891 -34.50324219 42.30425781 -34.53710938 43.58789062 C-34.57960854 50.8707014 -34.22838469 56.55852914 -29 62 C-24.33385718 64.96120602 -20.49082058 65.47415047 -15.1484375 64.64453125 C-11.00259301 63.4007779 -8.24668816 60.89648362 -5.86083984 57.26708984 C-4.02305948 52.42714983 -4.6282234 46.912768 -4.62939453 41.78320312 C-4.62502751 39.6385112 -4.58870344 37.49588981 -4.55078125 35.3515625 C-4.54491095 33.97656948 -4.54094298 32.60156676 -4.5390625 31.2265625 C-4.52673584 29.36378662 -4.52673584 29.36378662 -4.51416016 27.46337891 C-5.20638137 22.52878088 -7.41680157 19.4392713 -11.0625 16.125 C-19.08400894 13.05293275 -26.71213775 13.89298981 -32 21 Z " fill="#020202" transform="translate(237,302)"/>
<path d="M0 0 C2.21920036 -0.00438192 4.43642324 -0.04076404 6.65527344 -0.07861328 C8.07453752 -0.08448082 9.49381098 -0.08845064 10.91308594 -0.09033203 C12.19570313 -0.0985498 13.47832031 -0.10676758 14.79980469 -0.11523438 C18.78160274 0.44945905 20.40562888 1.56307401 23.22558594 4.37060547 C24.80014333 7.51972026 24.57357712 9.89069363 24.22558594 13.37060547 C22.83230812 15.97216156 21.45280348 17.2918691 19.22558594 19.37060547 C15.62979929 20.39164066 12.20989219 20.4881686 8.48730469 20.46826172 C7.42060547 20.46503906 6.35390625 20.46181641 5.25488281 20.45849609 C3.60069336 20.44592773 3.60069336 20.44592773 1.91308594 20.43310547 C0.79095703 20.42859375 -0.33117187 20.42408203 -1.48730469 20.41943359 C-4.24969742 20.40767873 -7.01206262 20.38974416 -9.77441406 20.37060547 C-9.77441406 25.32060547 -9.77441406 30.27060547 -9.77441406 35.37060547 C-8.02064453 35.31839844 -8.02064453 35.31839844 -6.23144531 35.26513672 C-4.68328265 35.23698831 -3.13510438 35.20968928 -1.58691406 35.18310547 C-0.43352539 35.14540039 -0.43352539 35.14540039 0.74316406 35.10693359 C5.41370868 35.04679783 8.44516049 35.31636344 12.22558594 38.37060547 C14.67421844 42.04355422 15.05742031 45.10329512 14.22558594 49.37060547 C11.69104937 52.59015192 10.11261289 54.07492982 6.22558594 55.37060547 C3.492693 55.59858109 0.7751639 55.78728734 -1.96191406 55.93310547 C-2.71150391 55.97628906 -3.46109375 56.01947266 -4.23339844 56.06396484 C-6.08019781 56.16983232 -7.92728241 56.27070307 -9.77441406 56.37060547 C-9.77441406 60.99060547 -9.77441406 65.61060547 -9.77441406 70.37060547 C-7.89496094 70.32419922 -6.01550781 70.27779297 -4.07910156 70.22998047 C-1.60255497 70.19245704 0.87400883 70.15605749 3.35058594 70.12060547 C4.58808594 70.08708984 5.82558594 70.05357422 7.10058594 70.01904297 C17.38441989 69.90846411 17.38441989 69.90846411 21.02636719 72.10888672 C24.03093743 75.19884439 24.20894873 77.02605276 24.39355469 81.18310547 C24.15134666 84.33744256 23.34945947 86.03434458 21.22558594 88.37060547 C15.24571972 91.35889558 8.94719841 90.69985102 2.41308594 90.68310547 C1.16720703 90.69921875 -0.07867187 90.71533203 -1.36230469 90.73193359 C-9.55047544 90.73627745 -15.32443095 89.95780496 -22.46191406 85.80810547 C-29.57096409 78.31478246 -30.51612345 70.16192339 -30.40332031 60.20654297 C-30.40573227 58.97449127 -30.40814423 57.74243958 -30.41062927 56.47305298 C-30.40965465 53.8828813 -30.39635396 51.29268778 -30.37133789 48.70263672 C-30.33695309 44.7500916 -30.3507224 40.79977587 -30.37011719 36.84716797 C-30.36322 34.32111684 -30.35354879 31.79507144 -30.34082031 29.26904297 C-30.34578018 28.09489838 -30.35074005 26.92075378 -30.35585022 25.71102905 C-30.24473788 17.93486117 -29.25508876 12.40413901 -24.02832031 6.34716797 C-23.47015625 5.90115234 -22.91199219 5.45513672 -22.33691406 4.99560547 C-21.78132813 4.53412109 -21.22574219 4.07263672 -20.65332031 3.59716797 C-14.24876476 -0.5837685 -7.35863388 -0.00163018 0 0 Z " fill="#010101" transform="translate(369.7744140625,296.62939453125)"/>
<path d="M0 0 C3.71482729 1.53301219 4.84654564 2.70118636 6.703125 6.31640625 C7.23697954 7.7249961 7.75129879 9.14108411 8.25 10.5625 C8.53302979 11.32739746 8.81605957 12.09229492 9.10766602 12.88037109 C10.0956266 15.57894508 11.05039957 18.28768973 12 21 C12.39364746 22.11906738 12.78729492 23.23813477 13.19287109 24.39111328 C15.83209262 31.91489482 18.43106623 39.45194809 21 47 C23.90377574 44.09622426 24.67745839 40.4901071 25.93359375 36.66796875 C26.21219742 35.83920731 26.49080109 35.01044586 26.77784729 34.15657043 C27.97048372 30.60819392 29.14925001 27.05524846 30.3293457 23.50268555 C31.19266995 20.91032727 32.0629709 18.32038316 32.93359375 15.73046875 C33.19619492 14.93134567 33.45879608 14.1322226 33.72935486 13.30888367 C37.03812266 3.471408 37.03812266 3.471408 40.75 0.6875 C44.0210618 -0.31199111 46.59742588 -0.3581657 50 0 C52.75329021 1.79562405 54.52627461 3.05254922 56 6 C56.72636391 12.83024771 54.39611462 18.46868817 52.08984375 24.828125 C51.68472061 25.971745 51.27959747 27.11536499 50.86219788 28.29364014 C49.56421262 31.94950319 48.25100444 35.59968795 46.9375 39.25 C46.0803976 41.65850472 45.22426831 44.06735596 44.36914062 46.4765625 C42.3124895 52.26210851 40.2312435 58.03844939 38.14324951 63.81274414 C37.06306 66.82419555 36.00649294 69.84279274 34.95751953 72.86523438 C34.34808746 74.59248521 33.738557 76.31970134 33.12890625 78.046875 C32.8668187 78.82121887 32.60473114 79.59556274 32.33470154 80.39337158 C30.91265765 84.37296502 29.80752469 86.97044457 26 89 C22.44358877 90.08238603 20.46574733 90.13040925 16.875 89.125 C10.17985279 84.17641293 8.23486688 73.29405309 5.59375 65.6953125 C5.18717163 64.53554901 4.78059326 63.37578552 4.36169434 62.18087769 C3.07093387 58.49680895 1.78529071 54.81098015 0.5 51.125 C-0.78637168 47.44654699 -2.07380239 43.76846665 -3.36169434 40.09054565 C-4.15977136 37.81027757 -4.95679534 35.52964054 -5.75256348 33.24856567 C-7.84645114 27.25376413 -9.9879144 21.28352257 -12.2310791 15.34274292 C-13.31648131 12.03574692 -13.54964066 9.43525413 -13 6 C-9.27625236 0.29025362 -6.72149163 -0.45569435 0 0 Z " fill="#030303" transform="translate(117,297)"/>
<path d="M0 0 C1.53718437 -0.01925285 1.53718437 -0.01925285 3.10542297 -0.03889465 C4.21685165 -0.04628159 5.32828033 -0.05366852 6.47338867 -0.0612793 C7.61289474 -0.06935104 8.75240082 -0.07742279 9.92643738 -0.08573914 C12.34156773 -0.09958792 14.75671772 -0.1103065 17.171875 -0.11816406 C20.86585567 -0.1353792 24.55894214 -0.17925999 28.25268555 -0.22338867 C30.59708 -0.2335151 32.94148206 -0.24203136 35.28588867 -0.2487793 C36.39124466 -0.26628738 37.49660065 -0.28379547 38.63545227 -0.30183411 C46.31575407 -0.28010887 46.31575407 -0.28010887 50.25341797 2.07861328 C53.46516004 5.77059177 53.32944013 8.33240299 53.07885742 13.17700195 C52.24824938 16.49943413 51.21170707 17.09433995 48.26635742 18.92700195 C44.60876629 20.37166584 41.22095276 20.3040163 37.31713867 20.25512695 C36.14836182 20.24384766 34.97958496 20.23256836 33.77539062 20.22094727 C32.88553467 20.20644531 31.99567871 20.19194336 31.07885742 20.17700195 C31.08551926 20.94263962 31.09218109 21.70827728 31.0990448 22.49711609 C31.15921703 29.72116611 31.2048627 36.9450942 31.23429394 44.16932964 C31.24993365 47.88317769 31.27114051 51.59681824 31.30517578 55.31054688 C31.33783037 58.89616237 31.35572318 62.48157857 31.36348915 66.06733131 C31.36902178 67.43365426 31.37982579 68.7999666 31.39604759 70.16620445 C31.41790018 72.08335053 31.4190835 74.00069817 31.41943359 75.91796875 C31.42609543 77.00828903 31.43275726 78.09860931 31.43962097 79.2219696 C30.9011442 83.63265987 29.20946456 86.23482934 25.82885742 89.05200195 C22.11515941 90.57124205 19.92230794 90.22521573 16.07885742 89.17700195 C13.76072122 87.28589084 12.40971727 85.83872165 11.07885742 83.17700195 C10.98740959 81.17531445 10.96134045 79.1705194 10.96533203 77.16674805 C10.96540756 75.90559174 10.96548309 74.64443542 10.96556091 73.34506226 C10.97066793 71.96352092 10.97588393 70.58197999 10.98120117 69.20043945 C10.98306598 67.79082286 10.98448959 66.38120561 10.98548889 64.97158813 C10.98930909 61.25946263 10.99913514 57.54737618 11.01019287 53.83526611 C11.02041767 50.04814177 11.02498881 46.26101112 11.0300293 42.47387695 C11.04075785 35.04156747 11.05782831 27.60929018 11.07885742 20.17700195 C10.18827637 20.19005371 9.29769531 20.20310547 8.38012695 20.21655273 C7.21078613 20.2267041 6.04144531 20.23685547 4.83666992 20.24731445 C3.67796387 20.26036621 2.51925781 20.27341797 1.32543945 20.28686523 C-3.02131545 20.13977246 -5.27959678 19.55192312 -8.92114258 17.17700195 C-11.24184417 13.91351534 -11.93867366 12.05355582 -11.85864258 8.05200195 C-10.78771007 4.76780893 -9.5729478 3.34666077 -6.92114258 1.17700195 C-4.44752866 -0.05980501 -2.76710482 0.03012429 0 0 Z " fill="#020101" transform="translate(274.921142578125,296.822998046875)"/>
<path d="M0 0 C5.53846154 3.07692308 5.53846154 3.07692308 7 6 C7.10598025 7.76040754 7.14878647 9.52477852 7.16113281 11.28833008 C7.17074036 12.39320267 7.1803479 13.49807526 7.19024658 14.63642883 C7.19449646 15.83535263 7.19874634 17.03427643 7.203125 18.26953125 C7.20882507 19.4978215 7.21452515 20.72611176 7.22039795 21.99162292 C7.2298587 24.59507381 7.23638618 27.19853672 7.24023438 29.80200195 C7.24678795 33.78548148 7.28094669 37.76859436 7.3125 41.75195312 C7.31903039 44.27864276 7.32428072 46.8053361 7.328125 49.33203125 C7.3404718 50.52488235 7.3528186 51.71773346 7.36553955 52.94673157 C7.36253845 54.06106064 7.35953735 55.17538971 7.35644531 56.32348633 C7.36191376 57.7900341 7.36191376 57.7900341 7.36749268 59.28620911 C6.85142957 63.09713499 5.38976292 65.93281379 2.31811523 68.29150391 C-1.12316482 69.34327797 -4.52394405 69.32537145 -8.08984375 69.3359375 C-9.26215294 69.3459227 -9.26215294 69.3459227 -10.45814514 69.35610962 C-12.10805921 69.36621632 -13.75801399 69.37092725 -15.40795898 69.37060547 C-17.92565509 69.37497942 -20.44159814 69.41131891 -22.95898438 69.44921875 C-24.5650982 69.45508731 -26.17122031 69.45905644 -27.77734375 69.4609375 C-28.52644516 69.47530853 -29.27554657 69.48967957 -30.04734802 69.50448608 C-33.68765532 69.4728238 -35.79183167 69.13268026 -38.88891602 67.15869141 C-41 65 -41 65 -43 62 C-42.91086884 56.38473702 -42.91086884 56.38473702 -42 54 C-39.39767046 51.4855436 -37.74937244 50.11887699 -34.13745117 49.54589844 C-32.60568237 49.57731934 -32.60568237 49.57731934 -31.04296875 49.609375 C-29.93115234 49.62226562 -28.81933594 49.63515625 -27.67382812 49.6484375 C-25.9480957 49.69871094 -25.9480957 49.69871094 -24.1875 49.75 C-23.01767578 49.76804688 -21.84785156 49.78609375 -20.64257812 49.8046875 C-17.7608822 49.8517356 -14.88086203 49.91746291 -12 50 C-12.01110306 49.44733963 -12.02220612 48.89467926 -12.03364563 48.32527161 C-12.14437269 42.56654035 -12.21972184 36.80811204 -12.2746582 31.04858398 C-12.29978285 28.90002151 -12.33388861 26.75154435 -12.37719727 24.60327148 C-12.43793792 21.51264388 -12.46623044 18.42314737 -12.48828125 15.33203125 C-12.51408768 14.37351761 -12.5398941 13.41500397 -12.56648254 12.42744446 C-12.56841898 7.80980936 -12.51254663 5.68849305 -9.68432617 1.8894043 C-6.13006992 -0.61231368 -4.26860885 -0.67399087 0 0 Z " fill="#050001" transform="translate(280,53)"/>
<path d="M0 0 C0.99 0.33 1.98 0.66 3 1 C2.51271832 1.34731234 2.02543665 1.69462467 1.52338886 2.05246162 C-0.78266449 5.00057783 -0.37469333 7.45534272 -0.3742218 11.16061401 C-0.37819621 11.89468888 -0.38217061 12.62876375 -0.38626546 13.38508332 C-0.39591157 15.85180689 -0.38405661 18.31796023 -0.37231445 20.78466797 C-0.3747417 22.55037653 -0.37846037 24.31608372 -0.38337708 26.08178711 C-0.39280025 30.88351801 -0.38334794 35.68504557 -0.37004495 40.48676062 C-0.35874479 45.50794863 -0.36283694 50.52912642 -0.36479187 55.55032349 C-0.36567546 63.98556853 -0.35458217 72.42073331 -0.33618164 80.85595703 C-0.31502673 90.60972059 -0.31150085 100.36336643 -0.3177436 110.11714828 C-0.32343844 119.49467072 -0.31778929 128.87215167 -0.30657005 138.24966812 C-0.30192426 142.24237968 -0.30105016 146.23506586 -0.3031559 150.22777939 C-0.30503953 154.93092927 -0.29692906 159.63395934 -0.2810955 164.33708191 C-0.2768525 166.06364064 -0.27600221 167.79021152 -0.27878571 169.51677322 C-0.28200816 171.8731199 -0.27292408 174.2291088 -0.26069641 176.5854187 C-0.25864354 177.90429518 -0.25659067 179.22317165 -0.25447559 180.58201408 C-0.01191402 183.83997695 0.58911128 186.07900674 2 189 C1.01 189 0.02 189 -1 189 C-1 188.01 -1 187.02 -1 186 C-1.66 186 -2.32 186 -3 186 C-3.07003263 162.33925199 -3.12295999 138.67851947 -3.15543652 115.01768875 C-3.17091568 104.03193958 -3.19202526 93.04625475 -3.22631836 82.06054688 C-3.25618857 72.4871481 -3.27556736 62.9137959 -3.28226548 53.34035182 C-3.28618177 48.26970196 -3.29540739 43.19918539 -3.31719017 38.12857819 C-3.33751775 33.35816683 -3.34384136 28.58794399 -3.33932304 23.81749344 C-3.34014992 22.06470084 -3.34613773 20.31190209 -3.35761642 18.55914688 C-3.37250239 16.16934539 -3.36896816 13.78025931 -3.36076355 11.39044189 C-3.36950207 10.69394067 -3.3782406 9.99743945 -3.38724393 9.27983212 C-3.3496038 5.23459582 -2.83137275 2.94759234 0 0 Z " fill="#B78B4B" transform="translate(64,247)"/>
<path d="M0 0 C3.2336183 2.68413371 4.84766738 4.17213622 5.62082577 8.37392712 C5.61780878 10.32100551 5.61780878 10.32100551 5.61473083 12.30741882 C5.62041409 13.03306858 5.62609735 13.75871834 5.63195282 14.50635749 C5.64485061 16.93280406 5.62207329 19.35758057 5.59936523 21.78393555 C5.60122939 23.52525177 5.60526623 25.26656682 5.61131287 27.00787354 C5.62129084 31.73299649 5.60011394 36.45751998 5.57283282 41.18255591 C5.54901644 46.12371152 5.5519479 51.06485496 5.55152893 56.00605774 C5.54690075 64.30077274 5.52325448 72.5952582 5.48706055 80.88989258 C5.44528577 90.4892586 5.42774332 100.08841803 5.4244408 109.68786973 C5.42084594 119.89843194 5.40198091 130.10891949 5.37732053 140.31945062 C5.37108286 143.26686334 5.36745231 146.21427038 5.36428642 149.16168785 C5.35840036 153.78526081 5.34212799 158.40868511 5.31768227 163.03219604 C5.31022116 164.73259648 5.30616898 166.43301565 5.30570221 168.13343239 C5.30445106 170.44695394 5.29095816 172.76007898 5.27415466 175.0735321 C5.26950416 176.37045329 5.26485365 177.66737448 5.26006222 179.00359631 C5 182 5 182 3 184 C2.99668985 183.08816641 2.99337971 182.17633282 2.98996925 181.2368679 C2.90876004 159.05316352 2.81667435 136.86952756 2.71247292 114.68591881 C2.66234443 103.95810752 2.61590149 93.23030389 2.578125 82.50244141 C2.5451909 73.152385 2.50535176 63.80238792 2.45720994 54.45239699 C2.43195913 49.50135213 2.41017359 44.55034656 2.39665604 39.59925461 C2.38382291 34.93880104 2.36175484 30.2784823 2.33261681 25.61810303 C2.32355085 23.90810224 2.31785308 22.19807975 2.31578636 20.48805618 C2.31245689 18.15158313 2.2969611 15.81549073 2.2784729 13.47909546 C2.27294214 12.17199301 2.26741138 10.86489056 2.26171303 9.51817894 C2.00170554 6.02292742 1.2630537 3.25541394 0 0 Z " fill="#432E18" transform="translate(433,248)"/>
<path d="M0 0 C0.33 0.66 0.66 1.32 1 2 C88.615 2.495 88.615 2.495 178 3 C177.67 3.66 177.34 4.32 177 5 C117.27 5 57.54 5 -4 5 C-4 4.34 -4 3.68 -4 3 C-2 1.375 -2 1.375 0 0 Z " fill="#C55957" transform="translate(163,132)"/>
<path d="M0 0 C3.49406769 1.66762322 4.82670681 2.74006022 7 6 C7.56278366 13.73827534 7.56278366 13.73827534 5 17 C1.55324254 19.32455736 -0.44616045 20.00954896 -4.625 19.9375 C-8.42888011 18.88086664 -9.81607902 18.27588147 -12 15 C-12.99323813 11.4433311 -13.34322844 8.26994521 -12.375 4.6875 C-8.95389485 0.48887095 -5.29163117 -0.6614539 0 0 Z " fill="#080504" transform="translate(166,246)"/>
<path d="M0 0 C3.28523652 2.75249546 4.35186512 4.75187659 5.3125 8.9375 C3.86457766 12.62609854 1.9278075 16.12984625 -1.6875 17.9375 C-4.74499572 18.3506751 -7.63622564 18.42157026 -10.6875 17.9375 C-13.125 15.75 -13.125 15.75 -14.6875 12.9375 C-15.1825 12.15375 -15.6775 11.37 -16.1875 10.5625 C-16.86085524 7.02738497 -15.81152242 5.39850104 -13.890625 2.453125 C-10.28936424 -2.08352816 -5.11565371 -2.02246775 0 0 Z " fill="#090604" transform="translate(357.6875,419.0625)"/>
<path d="M0 0 C0.625 1.75 0.625 1.75 1 4 C0.62875 4.639375 0.2575 5.27875 -0.125 5.9375 C-0.41375 6.618125 -0.7025 7.29875 -1 8 C0.21408182 10.99949626 1.21073248 12.5694519 4.07337475 14.13103294 C7.97745557 15.29022393 11.72852208 15.28797012 15.76350403 15.2784729 C16.64573991 15.2842653 17.52797579 15.2900577 18.43694609 15.29602563 C21.39265281 15.3130286 24.34820341 15.31590241 27.30395508 15.31884766 C29.42289615 15.32814562 31.54183355 15.33831409 33.6607666 15.34928894 C39.41441147 15.37661781 45.16803181 15.39174696 50.92172456 15.40471697 C56.9342291 15.42033483 62.94668347 15.44712935 68.95915222 15.4727478 C80.34520035 15.51955938 91.73125788 15.556292 103.11735314 15.58942068 C116.07976859 15.62762523 129.04213369 15.67703977 142.00450671 15.72740483 C168.66963382 15.83076008 195.33479328 15.92000883 222 16 C222 16.33 222 16.66 222 17 C193.79308577 17.07003613 165.58618455 17.12296172 137.37920094 17.15543652 C124.28263762 17.17091493 111.18612828 17.19202311 98.08959961 17.22631836 C86.6765973 17.25619083 75.26363407 17.27556791 63.85059375 17.28226548 C57.80573514 17.28618137 51.76098836 17.2954046 45.71616554 17.31719017 C40.02895249 17.33752125 34.34189758 17.34384061 28.65465164 17.33932304 C26.56525629 17.34014976 24.47585575 17.34613541 22.38649178 17.35761642 C19.53727634 17.37250752 16.68866062 17.36896585 13.83943176 17.36076355 C12.5947744 17.37387134 12.5947744 17.37387134 11.32497245 17.38724393 C6.71210227 17.35126656 3.76635362 16.95160715 0 14 C-2.64000101 10.83199878 -3.02453512 9.48252396 -2.8125 5.3125 C-2 2 -2 2 0 0 Z " fill="#0D0C0F" transform="translate(195,249)"/>
<path d="M0 0 C0.33 0 0.66 0 1 0 C1.04670179 23.12195452 1.08197992 46.24390127 1.10362434 69.36589336 C1.11394093 80.10161095 1.12800859 90.83729925 1.15087891 101.57299805 C1.17080105 110.9292294 1.18371365 120.28543954 1.18817699 129.64169151 C1.19078636 134.59664619 1.1969275 139.55154019 1.21146011 144.50647545 C1.22502542 149.16934115 1.22922476 153.8321211 1.22621536 158.49500465 C1.22676599 160.2070576 1.23074969 161.91911339 1.23841095 163.63114929 C1.24835576 165.96792476 1.24597062 168.30437615 1.24050903 170.64115906 C1.24235262 171.9491833 1.24419621 173.25720755 1.24609566 174.60486889 C1.00656796 177.9093886 0.57106347 180.09888399 -1 183 C-4.20045476 185.13363651 -4.98629436 185.24672228 -8.6550293 185.22705078 C-10.06615242 185.22682419 -10.06615242 185.22682419 -11.50578308 185.22659302 C-12.51836685 185.21627045 -13.53095062 185.20594788 -14.57421875 185.1953125 C-16.13267265 185.19106766 -16.13267265 185.19106766 -17.72261047 185.18673706 C-21.04435697 185.17553282 -24.36583485 185.15042764 -27.6875 185.125 C-29.93814715 185.11497052 -32.18879852 185.10584462 -34.43945312 185.09765625 C-39.95972722 185.0755927 -45.47984442 185.04211271 -51 185 C-51 184.67 -51 184.34 -51 184 C-49.71834961 183.98018066 -48.43669922 183.96036133 -47.11621094 183.93994141 C-42.35998933 183.86385497 -37.60407243 183.77514202 -32.84814453 183.68261719 C-30.78993751 183.64434005 -28.73166388 183.60948496 -26.67333984 183.578125 C-23.71427612 183.53244722 -20.75567043 183.47445698 -17.796875 183.4140625 C-16.41698395 183.39673569 -16.41698395 183.39673569 -15.00921631 183.37905884 C-13.71833099 183.3492543 -13.71833099 183.3492543 -12.40136719 183.31884766 C-11.64635925 183.30552399 -10.89135132 183.29220032 -10.11346436 183.2784729 C-7.59378006 182.94647592 -6.11264247 182.42790304 -4 181 C-0.9163618 176.88952069 -0.61936637 173.79420307 -0.60127258 168.71708679 C-0.59462576 167.99410945 -0.58797893 167.27113211 -0.58113068 166.52624637 C-0.56251315 164.10939453 -0.56510506 161.69303831 -0.56762695 159.27612305 C-0.55860901 157.54141033 -0.54828171 155.806704 -0.53674316 154.07200623 C-0.50915076 149.36582403 -0.49988559 144.65976266 -0.49388909 139.95351005 C-0.48451128 135.03404684 -0.45830836 130.11467409 -0.43388367 125.19526672 C-0.3901987 115.88105176 -0.36166399 106.56685434 -0.33856028 97.25256807 C-0.31151934 86.64800696 -0.26760713 76.04353676 -0.22227156 65.43904054 C-0.12939667 43.62607592 -0.05772893 21.81308409 0 0 Z " fill="#F4B968" transform="translate(438,254)"/>
<path d="M0 0 C0.94374717 -0.00397441 1.88749434 -0.00794881 2.85983992 -0.01204365 C6.03598365 -0.02170163 9.21168584 -0.0098273 12.38781738 0.00190735 C14.65922716 -0.00051946 16.93063587 -0.00423769 19.20204163 -0.00915527 C25.38167713 -0.01858308 31.56115477 -0.00912291 37.74077797 0.00417686 C44.19762836 0.01546824 50.65447071 0.01138564 57.11132812 0.00942993 C67.95596257 0.00854622 78.80052521 0.01957288 89.6451416 0.03804016 C100.80824672 0.05704487 111.97127927 0.06412787 123.13439941 0.05854797 C136.57892157 0.05184761 150.02338976 0.05513144 163.46791077 0.06765175 C168.60661922 0.07230499 173.74530795 0.07316846 178.88401794 0.0710659 C184.93158164 0.06918682 190.97905179 0.07725764 197.02659416 0.0931263 C199.25066173 0.09738081 201.47473877 0.09821191 203.69880867 0.0954361 C206.72582325 0.09223043 209.75255548 0.10125529 212.77954102 0.11352539 C213.66756519 0.10974607 214.55558936 0.10596674 215.47052336 0.10207289 C221.54727666 0.14589257 221.54727666 0.14589257 224.88977051 2.3742218 C223.10318511 2.37283911 223.10318511 2.37283911 221.28050709 2.37142849 C193.01327696 2.3497751 164.74604704 2.33328351 136.47881045 2.32315647 C133.0003186 2.32190575 129.52182678 2.32061143 126.04333496 2.31929016 C125.00456835 2.3188967 125.00456835 2.3188967 123.94481655 2.31849528 C112.72876826 2.31414285 101.51272509 2.30625764 90.29667983 2.29706901 C78.78973945 2.28772062 67.28280268 2.28223853 55.77585858 2.28013331 C49.31185891 2.27882784 42.84787085 2.27575227 36.38387489 2.26849174 C30.30272686 2.26171643 24.22159525 2.25960795 18.1404438 2.26111412 C15.90592611 2.26083848 13.67140789 2.25884231 11.43689346 2.25501633 C8.3907954 2.25005553 5.34475972 2.25123241 2.29866028 2.25396729 C0.96645658 2.24959802 0.96645658 2.24959802 -0.39266032 2.24514049 C-4.43225223 2.2549718 -8.16898738 2.35902541 -12.11022949 3.3742218 C-8.70906349 -0.63710876 -4.93744649 -0.04100129 0 0 Z " fill="#210D00" transform="translate(208.1102294921875,245.6257781982422)"/>
<path d="M0 0 C0.66 0.33 1.32 0.66 2 1 C2.07613917 8.72291745 2.12863758 16.44573788 2.16479492 24.16894531 C2.1798702 26.79560971 2.20033366 29.42224899 2.22631836 32.04882812 C2.26275576 35.82688604 2.27973938 39.60461077 2.29296875 43.3828125 C2.30845261 44.55490265 2.32393646 45.7269928 2.33988953 46.93460083 C2.34109172 52.77433916 2.29778542 57.07804576 -1 62 C-2.32 61.67 -3.64 61.34 -5 61 C-4.2884375 60.319375 -4.2884375 60.319375 -3.5625 59.625 C-0.76465716 56.71524345 -0.85633263 54.56062161 -0.79467773 50.63232422 C-0.77473251 49.51131317 -0.75478729 48.39030212 -0.73423767 47.23532104 C-0.71752518 46.02071198 -0.70081268 44.80610291 -0.68359375 43.5546875 C-0.66281265 42.31453888 -0.64203156 41.07439026 -0.62062073 39.79666138 C-0.56622295 36.49888177 -0.51599905 33.2010728 -0.46777344 29.90319824 C-0.41754766 26.53827347 -0.36186723 23.1734395 -0.30664062 19.80859375 C-0.19938443 13.20580146 -0.09762811 6.60294128 0 0 Z " fill="#D86163" transform="translate(287,59)"/>
<path d="M0 0 C0.625 1.75 0.625 1.75 1 4 C0.62875 4.639375 0.2575 5.27875 -0.125 5.9375 C-0.41375 6.618125 -0.7025 7.29875 -1 8 C0.24125678 11.06663441 1.22169338 12.59783694 4.18400574 14.12850952 C7.56173495 15.17384505 10.45642819 15.28061003 13.9934082 15.31884766 C15.01862831 15.33391609 15.01862831 15.33391609 16.06455994 15.34928894 C18.30995897 15.38002905 20.55523926 15.39713014 22.80078125 15.4140625 C24.36306269 15.43278157 25.92533411 15.45235554 27.4875946 15.4727478 C31.58922401 15.52399709 35.69088616 15.56366121 39.79266357 15.60089111 C43.98230036 15.64097605 48.17180174 15.69204787 52.36132812 15.7421875 C60.57412613 15.83886144 68.78699135 15.92329335 77 16 C77 16.33 77 16.66 77 17 C67.69875725 17.06954996 58.3976042 17.12283657 49.09615803 17.15543652 C44.77698383 17.17108389 40.45798772 17.1923051 36.13891602 17.22631836 C31.96975647 17.2589451 27.80076808 17.27686 23.63149071 17.28463173 C22.04188531 17.2901693 20.45228915 17.30098291 18.86275673 17.31719017 C16.63396684 17.339009 14.40588168 17.34196514 12.17700195 17.34057617 C10.90903275 17.34723801 9.64106354 17.35389984 8.33467102 17.36076355 C3.67728473 16.85690119 1.09891273 15.31869528 -1.875 11.75 C-3.36528237 8.10708755 -2.92697349 5.77919961 -2 2 C-1.34 1.34 -0.68 0.68 0 0 Z " fill="#110F12" transform="translate(195,249)"/>
<path d="M0 0 C1.14080521 0.00030212 2.28161041 0.00060425 3.45698547 0.00091553 C5.28848396 0.03188324 5.28848396 0.03188324 7.15698242 0.06347656 C9.04413216 0.07196625 9.04413216 0.07196625 10.96940613 0.08062744 C14.30217902 0.09920112 17.63384333 0.1350904 20.96630859 0.17944336 C24.37156632 0.22048035 27.77693892 0.2386563 31.18237305 0.25878906 C37.8552041 0.30287027 44.52751367 0.3697946 51.19995117 0.45410156 C51.19995117 0.78410156 51.19995117 1.11410156 51.19995117 1.45410156 C50.17970856 1.45957001 50.17970856 1.45957001 49.13885498 1.46514893 C42.06593536 1.50692714 34.99366749 1.57624027 27.92114258 1.66162109 C25.28090937 1.68986409 22.64059109 1.71106194 20.00024414 1.72509766 C16.20699397 1.74648013 12.41477038 1.79310948 8.62182617 1.84472656 C6.84820709 1.84656952 6.84820709 1.84656952 5.03875732 1.84844971 C3.93791809 1.86816833 2.83707886 1.88788696 1.70288086 1.90820312 C0.73469421 1.91708557 -0.23349243 1.92596802 -1.23101807 1.93511963 C-4.49109899 2.59370384 -5.56729427 4.07321126 -7.80004883 6.45410156 C-8.79004883 6.45410156 -9.78004883 6.45410156 -10.80004883 6.45410156 C-11.13004883 7.44410156 -11.46004883 8.43410156 -11.80004883 9.45410156 C-11.51773747 6.06636531 -11.07867412 4.72702461 -8.61177063 2.31060791 C-5.38676714 0.18122247 -3.82010548 -0.0338812 0 0 Z " fill="#220D00" transform="translate(74.800048828125,245.5458984375)"/>
<path d="M0 0 C0.66 0.66 1.32 1.32 2 2 C0.1128125 1.8453125 0.1128125 1.8453125 -1.8125 1.6875 C-3.99669716 1.60375572 -3.99669716 1.60375572 -6 2 C-7.9354148 4.39056942 -7.9354148 4.39056942 -9 7 C-9.66 7 -10.32 7 -11 7 C-11 20.86 -11 34.72 -11 49 C-11.33 49 -11.66 49 -12 49 C-12.12372902 42.82535087 -12.21440144 36.65142544 -12.2746582 30.47583008 C-12.29978051 28.3757673 -12.33388458 26.27579177 -12.37719727 24.17602539 C-12.43794871 21.1548916 -12.46623263 18.13491504 -12.48828125 15.11328125 C-12.51408768 14.17664139 -12.5398941 13.24000153 -12.56648254 12.27497864 C-12.56843804 7.71556418 -12.48535143 5.65515488 -9.69995117 1.89526367 C-6.23002541 -0.54049306 -4.15344228 -0.54856785 0 0 Z " fill="#160000" transform="translate(280,53)"/>
<path d="M0 0 C1.20970459 1.2223938 1.20970459 1.2223938 2.44384766 2.46948242 C6.41892626 5.76364814 9.90480076 5.64931867 14.8984375 5.48828125 C15.73339752 5.48120651 16.56835754 5.47413177 17.42861938 5.46684265 C20.07834973 5.43899925 22.72591559 5.37628406 25.375 5.3125 C27.17835475 5.28740393 28.98174285 5.26459305 30.78515625 5.24414062 C35.19092983 5.18920611 39.59509879 5.10300712 44 5 C43.67 5.66 43.34 6.32 43 7 C37.64315122 7.02470696 32.28633556 7.04286331 26.92944336 7.05493164 C25.10684634 7.0599624 23.28425335 7.06678769 21.46166992 7.07543945 C18.84292606 7.08755997 16.22423553 7.09324086 13.60546875 7.09765625 C12.38188911 7.10539818 12.38188911 7.10539818 11.1335907 7.11329651 C7.82986071 7.1136246 5.15676862 7.05225621 2 6 C2 5.34 2 4.68 2 4 C1.01 3.67 0.02 3.34 -1 3 C-0.67 2.01 -0.34 1.02 0 0 Z " fill="#D65F60" transform="translate(238,116)"/>
<path d="M0 0 C1.32 0.33 2.64 0.66 4 1 C2.824375 1.2784375 2.824375 1.2784375 1.625 1.5625 C0.325625 2.2740625 0.325625 2.2740625 -1 3 C-1.66 5.31 -2.32 7.62 -3 10 C-9.27 10 -15.54 10 -22 10 C-22.66 8.02 -23.32 6.04 -24 4 C-23.34 3.67 -22.68 3.34 -22 3 C-22 3.99 -22 4.98 -22 6 C-21.34 6 -20.68 6 -20 6 C-20 6.99 -20 7.98 -20 9 C-14.72 9 -9.44 9 -4 9 C-3.67 6.69 -3.34 4.38 -3 2 C-2.01 2 -1.02 2 0 2 C0 1.34 0 0.68 0 0 Z " fill="#E4AE5F" transform="translate(156,246)"/>
<path d="M0 0 C0.33 0.66 0.66 1.32 1 2 C-1.85476725 5.92530497 -5.09813346 8.89409973 -8.76171875 12.01953125 C-12.68854774 15.49405533 -16.33226056 19.25584932 -20 23 C-20.66 22.67 -21.32 22.34 -22 22 C-14.74 14.74 -7.48 7.48 0 0 Z " fill="#2B1F12" transform="translate(153,114)"/>
<path d="M0 0 C6.6 0 13.2 0 20 0 C20.99 2.31 21.98 4.62 23 7 C23.33 7.66 23.66 8.32 24 9 C22.68 9 21.36 9 20 9 C19.34 6.69 18.68 4.38 18 2 C12.39 1.67 6.78 1.34 1 1 C0.67 1.99 0.34 2.98 0 4 C-0.33 3.34 -0.66 2.68 -1 2 C-0.67 1.34 -0.34 0.68 0 0 Z " fill="#E4B266" transform="translate(362,428)"/>
<path d="M0 0 C0.66 0 1.32 0 2 0 C1.68169381 2.97085779 1.15463763 3.87187168 -1.1875 5.8125 C-2.115625 6.534375 -3.04375 7.25625 -4 8 C-6.08411304 10.26512756 -8.05222958 12.61716059 -10 15 C-10.99 14.67 -11.98 14.34 -13 14 C-9.79107129 9.91590891 -6.49268766 6.56365176 -2.453125 3.296875 C-0.86712389 2.04219297 -0.86712389 2.04219297 0 0 Z " fill="#D95A5B" transform="translate(233,61)"/>
<path d="M0 0 C0.33 0.99 0.66 1.98 1 3 C-2.29281385 8.12332379 -6.79247254 11.95169124 -12 15 C-12.66 14.67 -13.32 14.34 -14 14 C-13.01 13.67 -12.02 13.34 -11 13 C-10.67 12.01 -10.34 11.02 -10 10 C-8.53580871 8.7635718 -7.06814864 7.5303817 -5.56640625 6.33984375 C-3.38290752 4.47216279 -1.70796088 2.2991781 0 0 Z " fill="#340D0B" transform="translate(359,116)"/>
<path d="M0 0 C2.96845667 0.62581269 4.35269589 2.0190701 6.09375 4.44140625 C5.10375 4.93640625 5.10375 4.93640625 4.09375 5.44140625 C4.09375 4.78140625 4.09375 4.12140625 4.09375 3.44140625 C-0.19625 3.44140625 -4.48625 3.44140625 -8.90625 3.44140625 C-9.23625 4.43140625 -9.56625 5.42140625 -9.90625 6.44140625 C-10.56625 6.11140625 -11.22625 5.78140625 -11.90625 5.44140625 C-8.27241349 0.75258495 -5.71125815 -0.29508167 0 0 Z " fill="#CD5456" transform="translate(281.90625,19.55859375)"/>
<path d="M0 0 C-1.49097658 3.7952131 -3.75700849 5.61042731 -7 8 C-7 6.68 -7 5.36 -7 4 C-7.66 3.67 -8.32 3.34 -9 3 C-9 2.34 -9 1.68 -9 1 C-5.846632 0.29925156 -3.27275026 0 0 0 Z " fill="#ECD098" transform="translate(156,110)"/>
<path d="M0 0 C0 0.33 0 0.66 0 1 C-1.2375 1.0825 -2.475 1.165 -3.75 1.25 C-7.77295761 1.72537594 -9.31713554 2.91967413 -12 6 C-12.99 6 -13.98 6 -15 6 C-15.33 6.99 -15.66 7.98 -16 9 C-15.72960418 5.75525016 -15.1742292 4.20795098 -13.0625 1.6875 C-8.71708095 -0.70691458 -4.85670666 -0.33949794 0 0 Z " fill="#2A1404" transform="translate(79,246)"/>
<path d="M0 0 C2.475 0.99 2.475 0.99 5 2 C5.08075665 4.29109597 5.13907731 6.58299267 5.1875 8.875 C5.22230469 10.15117187 5.25710938 11.42734375 5.29296875 12.7421875 C5.19628906 13.81726563 5.09960938 14.89234375 5 16 C4.01 16.66 3.02 17.32 2 18 C1.34 17.34 0.68 16.68 0 16 C0.49113281 15.44828125 0.98226563 14.8965625 1.48828125 14.328125 C3.30109424 11.53629931 3.3172951 10.03814259 3.1875 6.75 C3.16042969 5.85796875 3.13335937 4.9659375 3.10546875 4.046875 C3.07066406 3.37140625 3.03585937 2.6959375 3 2 C2.01 1.67 1.02 1.34 0 1 C0 0.67 0 0.34 0 0 Z " fill="#CAB389" transform="translate(408,138)"/>
<path d="M0 0 C0 0.99 0 1.98 0 3 C-0.99 3.33 -1.98 3.66 -3 4 C-3.2475 4.721875 -3.495 5.44375 -3.75 6.1875 C-5.53858195 10.21180939 -8.57695419 12.33661409 -12 15 C-12.66 14.67 -13.32 14.34 -14 14 C-9.33333333 9.33333333 -4.66666667 4.66666667 0 0 Z " fill="#D75C5E" transform="translate(183,112)"/>
<path d="M0 0 C0.625 1.75 0.625 1.75 1 4 C0.62875 4.639375 0.2575 5.27875 -0.125 5.9375 C-0.41375 6.618125 -0.7025 7.29875 -1 8 C0.62224561 11.69511501 2.64935488 13.80474975 6 16 C3.45889061 15.65660684 1.45538602 15.27648437 -0.75 13.9375 C-2.73501839 10.8607215 -3.15351695 7.63323455 -3 4 C-1.5625 1.5 -1.5625 1.5 0 0 Z " fill="#2B2015" transform="translate(195,249)"/>
<path d="M0 0 C0.639375 0.804375 1.27875 1.60875 1.9375 2.4375 C4.00768272 5.40645022 4.00768272 5.40645022 7.06640625 6.31640625 C8.30197266 6.43822266 8.30197266 6.43822266 9.5625 6.5625 C10.38878906 6.64628906 11.21507812 6.73007812 12.06640625 6.81640625 C12.70449219 6.87699219 13.34257812 6.93757813 14 7 C14 7.33 14 7.66 14 8 C12.56359829 8.19573608 11.12580496 8.38127816 9.6875 8.5625 C8.88699219 8.66691406 8.08648437 8.77132813 7.26171875 8.87890625 C5 9 5 9 2 8 C2 7.01 2 6.02 2 5 C1.34 5 0.68 5 0 5 C-0.5625 3.0625 -0.5625 3.0625 -1 1 C-0.67 0.67 -0.34 0.34 0 0 Z " fill="#D2A054" transform="translate(342,430)"/>
<path d="M0 0 C0.66 0 1.32 0 2 0 C3.60646029 3.21292058 3.62441428 6.5258652 3 10 C0.5 13 0.5 13 -2 15 C-2.99 14.67 -3.98 14.34 -5 14 C-4.34 14 -3.68 14 -3 14 C-2.67 13.34 -2.34 12.68 -2 12 C-1.46375 11.278125 -0.9275 10.55625 -0.375 9.8125 C1.41112188 6.15906888 0.84155849 3.90177119 0 0 Z " fill="#111012" transform="translate(381,336)"/>
<path d="M0 0 C0.33 0.99 0.66 1.98 1 3 C-0.36125 4.11375 -0.36125 4.11375 -1.75 5.25 C-4.3069423 7.37674584 -6.69110193 9.60229816 -9 12 C-9.66 11.67 -10.32 11.34 -11 11 C-7.37 7.37 -3.74 3.74 0 0 Z " fill="#E76164" transform="translate(259,36)"/>
<path d="M0 0 C1 3 1 3 0.25 5.5625 C-1 8 -1 8 -4 10 C-5.32 9.34 -6.64 8.68 -8 8 C-7.13375 7.690625 -7.13375 7.690625 -6.25 7.375 C-3.18589456 5.50249112 -1.84460032 3.03041481 0 0 Z " fill="#DFAA5C" transform="translate(438,429)"/>
<path d="M0 0 C3.875 1.75 3.875 1.75 5 4 C4.91348369 5.54613014 4.75997364 7.08909387 4.5625 8.625 C4.46066406 9.44226563 4.35882813 10.25953125 4.25390625 11.1015625 C4.17011719 11.72804688 4.08632813 12.35453125 4 13 C3.67 13 3.34 13 3 13 C2.67 10.36 2.34 7.72 2 5 C1.34 5 0.68 5 0 5 C0 3.35 0 1.7 0 0 Z " fill="#D0575D" transform="translate(361,98)"/>
<path d="M0 0 C0.66 0.66 1.32 1.32 2 2 C0.1128125 1.8453125 0.1128125 1.8453125 -1.8125 1.6875 C-3.99669716 1.60375572 -3.99669716 1.60375572 -6 2 C-7.9354148 4.39056942 -7.9354148 4.39056942 -9 7 C-9.66 7 -10.32 7 -11 7 C-11.33 7.66 -11.66 8.32 -12 9 C-11.66466723 5.98200506 -11.13434402 4.19118187 -9.375 1.6875 C-6.11901478 -0.62596319 -3.90413297 -0.43379255 0 0 Z " fill="#42110F" transform="translate(280,53)"/>
<path d="M0 0 C1.50433594 0.01353516 1.50433594 0.01353516 3.0390625 0.02734375 C3.80992187 0.03894531 4.58078125 0.05054688 5.375 0.0625 C5.705 1.3825 6.035 2.7025 6.375 4.0625 C5.859375 3.7325 5.34375 3.4025 4.8125 3.0625 C1.4489584 1.6825855 -1.01738959 1.68275154 -4.625 2.0625 C-7.53309543 3.91966187 -7.53309543 3.91966187 -9.625 6.0625 C-9.625 5.0725 -9.625 4.0825 -9.625 3.0625 C-8.965 3.0625 -8.305 3.0625 -7.625 3.0625 C-7.625 2.4025 -7.625 1.7425 -7.625 1.0625 C-4.98041621 -0.25979189 -2.94738699 -0.03427194 0 0 Z " fill="#D05758" transform="translate(277.625,51.9375)"/>
<path d="M0 0 C0.33 0 0.66 0 1 0 C1.03738281 0.81984375 1.07476562 1.6396875 1.11328125 2.484375 C1.17902344 3.56203125 1.24476562 4.6396875 1.3125 5.75 C1.37050781 6.81734375 1.42851563 7.8846875 1.48828125 8.984375 C2.03660906 12.21574195 2.93125269 13.53746969 5 16 C5 16.66 5 17.32 5 18 C4.01 18 3.02 18 2 18 C2 17.01 2 16.02 2 15 C1.34 15 0.68 15 0 15 C0 10.05 0 5.1 0 0 Z " fill="#DCA659" transform="translate(61,418)"/>
<path d="M0 0 C0.66 0.33 1.32 0.66 2 1 C1.75881648 4.25597758 0.47775788 5.7276304 -1.875 7.8125 C-2.90625 8.534375 -3.9375 9.25625 -5 10 C-5.99 9.67 -6.98 9.34 -8 9 C-2.71428571 2.57142857 -2.71428571 2.57142857 0 0 Z " fill="#D9595B" transform="translate(268,26)"/>
<path d="M0 0 C0.66 0 1.32 0 2 0 C1.66902062 3.08914085 0.99715301 4.0026931 -1.3125 6.1875 C-3.69466602 7.79407709 -5.20379133 8.58574686 -8 9 C-6.8553125 7.88625 -6.8553125 7.88625 -5.6875 6.75 C-3.04428801 4.176446 -3.04428801 4.176446 -1.3125 1.6875 C-0.879375 1.130625 -0.44625 0.57375 0 0 Z " fill="#C75050" transform="translate(193,101)"/>
<path d="M0 0 C0.33 0 0.66 0 1 0 C1.63019694 8.19256018 1.63019694 8.19256018 -1 11.5625 C-1.66 12.036875 -2.32 12.51125 -3 13 C-3.66 12.34 -4.32 11.68 -5 11 C-4.54625 10.67 -4.0925 10.34 -3.625 10 C-1.15680026 6.9622157 -0.81156856 3.80812939 0 0 Z " fill="#390C0C" transform="translate(366,103)"/>
<path d="M0 0 C0.433125 0.474375 0.86625 0.94875 1.3125 1.4375 C3.02309613 3.23686957 3.02309613 3.23686957 6 4 C4.68 4.99 3.36 5.98 2 7 C2 6.34 2 5.68 2 5 C0.68 5.33 -0.64 5.66 -2 6 C-1.125 1.125 -1.125 1.125 0 0 Z " fill="#E45758" transform="translate(339,128)"/>
<path d="M0 0 C0.6875 1.625 0.6875 1.625 1 4 C-0.4375 7.25 -0.4375 7.25 -2 10 C-2.66 10 -3.32 10 -4 10 C-3.43454163 6.04179141 -2.19097652 3.3340947 0 0 Z " fill="#D4BC8D" transform="translate(55,132)"/>
<path d="M0 0 C0 3 0 3 -1.375 4.6875 C-3 6 -3 6 -5 6 C-5 7.98 -5 9.96 -5 12 C-5.33 12 -5.66 12 -6 12 C-6.32644414 7.83783725 -6.40650982 5.63686538 -4.125 2.0625 C-2 0 -2 0 0 0 Z " fill="#453822" transform="translate(103,138)"/>
<path d="M0 0 C0.33 0.99 0.66 1.98 1 3 C-1.31 4.98 -3.62 6.96 -6 9 C-6.66 8.67 -7.32 8.34 -8 8 C-5.36 5.36 -2.72 2.72 0 0 Z " fill="#DF5D5F" transform="translate(243,52)"/>
<path d="M0 0 C1.70840281 1.63412443 2.93453047 2.86906094 4 5 C4.039992 6.99960012 4.04346799 9.00047242 4 11 C3.34 10.67 2.68 10.34 2 10 C1.3671875 7.71484375 1.3671875 7.71484375 0.875 4.9375 C0.70742187 4.01839844 0.53984375 3.09929687 0.3671875 2.15234375 C0.24601563 1.44207031 0.12484375 0.73179687 0 0 Z " fill="#29190A" transform="translate(130,248)"/>
<path d="M0 0 C0.33 0.66 0.66 1.32 1 2 C-1.65654657 5.73884332 -3.58110387 7.64978174 -8 9 C-7.04270084 7.87411986 -6.08412105 6.7493285 -5.125 5.625 C-4.59132812 4.99851562 -4.05765625 4.37203125 -3.5078125 3.7265625 C-2.38567993 2.44163349 -1.20628025 1.20628025 0 0 Z " fill="#E56164" transform="translate(212,83)"/>
<path d="M0 0 C0.99 0.33 1.98 0.66 3 1 C-0.32307692 4.93846154 -0.32307692 4.93846154 -3.75 5.25 C-4.4925 5.1675 -5.235 5.085 -6 5 C-6 4.34 -6 3.68 -6 3 C-5.195625 2.87625 -4.39125 2.7525 -3.5625 2.625 C-2.716875 2.41875 -1.87125 2.2125 -1 2 C-0.67 1.34 -0.34 0.68 0 0 Z " fill="#261306" transform="translate(433,432)"/>
<path d="M0 0 C0.33 0.66 0.66 1.32 1 2 C0.0625 4.625 0.0625 4.625 -1 7 C-1.66 7 -2.32 7 -3 7 C-3.33 7.99 -3.66 8.98 -4 10 C-3.38461538 3.47692308 -3.38461538 3.47692308 -1.4375 1.0625 C-0.7259375 0.5365625 -0.7259375 0.5365625 0 0 Z " fill="#38240E" transform="translate(157,248)"/>
<path d="M0 0 C1.2065625 0.0309375 1.2065625 0.0309375 2.4375 0.0625 C1.4475 0.5575 1.4475 0.5575 0.4375 1.0625 C0.2725 1.7225 0.1075 2.3825 -0.0625 3.0625 C-0.2275 3.7225 -0.3925 4.3825 -0.5625 5.0625 C-1.5525 5.5575 -1.5525 5.5575 -2.5625 6.0625 C-2.94468767 4.40635343 -3.27645102 2.73792976 -3.5625 1.0625 C-2.5625 0.0625 -2.5625 0.0625 0 0 Z " fill="#EEB058" transform="translate(195.5625,244.9375)"/>
<path d="M0 0 C0.66 0 1.32 0 2 0 C5 4.38461538 5 4.38461538 5 7 C3.68 6.67 2.36 6.34 1 6 C1.33 5.34 1.66 4.68 2 4 C1.34 4 0.68 4 0 4 C0 2.68 0 1.36 0 0 Z " fill="#E2C992" transform="translate(451,146)"/>
<path d="M0 0 C0.66 0.99 1.32 1.98 2 3 C1.01 3.33 0.02 3.66 -1 4 C-1.33 4.66 -1.66 5.32 -2 6 C-1.34 6.33 -0.68 6.66 0 7 C-1.65 7 -3.3 7 -5 7 C-3.70700306 4.11562221 -2.34058637 2.12780579 0 0 Z " fill="#D8C296" transform="translate(374,129)"/>
<path d="M0 0 C1.46484375 1.23697917 2.9296875 2.47395833 4.39453125 3.7109375 C5.8655046 4.89201099 7.43037794 5.95358529 9 7 C6.69 6.67 4.38 6.34 2 6 C2 5.34 2 4.68 2 4 C1.01 3.67 0.02 3.34 -1 3 C-0.67 2.01 -0.34 1.02 0 0 Z " fill="#D1585A" transform="translate(238,116)"/>
<path d="M0 0 C0.99386719 0.02707031 1.98773438 0.05414063 3.01171875 0.08203125 C4.15060547 0.13423828 4.15060547 0.13423828 5.3125 0.1875 C5.3125 0.5175 5.3125 0.8475 5.3125 1.1875 C4.42498047 1.27837891 4.42498047 1.27837891 3.51953125 1.37109375 C-0.59728208 1.80762371 -4.64294533 2.27421346 -8.6875 3.1875 C-6.10291354 -0.17334451 -4.11082043 -0.14508778 0 0 Z " fill="#2D0707" transform="translate(248.6875,102.8125)"/>
<path d="M0 0 C0.268125 0.556875 0.53625 1.11375 0.8125 1.6875 C2.10122647 4.19712523 3.52926478 6.59334236 5 9 C3.68 9 2.36 9 1 9 C-0.4783226 6.04335481 -0.06032783 3.25770263 0 0 Z " fill="#D7A259" transform="translate(381,428)"/>
<path d="M0 0 C2.83374881 3.20336822 3.5205537 5.78087253 4 10 C1.28312788 7.65361044 0.05484124 5.42823404 -1 2 C-0.67 1.34 -0.34 0.68 0 0 Z " fill="#3B2416" transform="translate(342,425)"/>
<path d="M0 0 C1.65 0.33 3.3 0.66 5 1 C5 1.99 5 2.98 5 4 C2.36 4 -0.28 4 -3 4 C-2.01 3.34 -1.02 2.68 0 2 C0 1.34 0 0.68 0 0 Z " fill="#F7B961" transform="translate(160,242)"/>
<path d="M0 0 C0 0.33 0 0.66 0 1 C-2.64 1 -5.28 1 -8 1 C-8 0.34 -8 -0.32 -8 -1 C-4.37673261 -2.2077558 -3.35853631 -1.54311128 0 0 Z " fill="#2F0E0C" transform="translate(284,19)"/>
</svg>
